<svg width="1440" height="290" viewBox="0 0 1440 290" fill="none" xmlns="http://www.w3.org/2000/svg">
<rect x="-26" width="1488" height="290" fill="#0E0E0E"/>
<path fill-rule="evenodd" clip-rule="evenodd" d="M136.167 85.8627H114.516V66.1621H136.167V85.8627ZM112.139 88.0249V63.9999H138.543V88.0249H112.139Z" fill="#4CBFCD"/>
<path fill-rule="evenodd" clip-rule="evenodd" d="M16.0274 85.8627H-5.6241V66.1621H16.0274V85.8627ZM-8.00049 88.0249V63.9999H18.4038V88.0249H-8.00049Z" fill="#4CBFCD"/>
<path fill-rule="evenodd" clip-rule="evenodd" d="M160.195 85.8627H138.543V66.1621H160.195V85.8627ZM136.167 88.0249V63.9999H162.571V88.0249H136.167Z" fill="#4CBFCD"/>
<path fill-rule="evenodd" clip-rule="evenodd" d="M40.0554 85.8627H18.4039V66.1621H40.0554V85.8627ZM16.0275 88.0249V63.9999H42.4318V88.0249H16.0275Z" fill="#4CBFCD"/>
<path fill-rule="evenodd" clip-rule="evenodd" d="M184.223 85.8627H162.571V66.1621H184.223V85.8627ZM160.195 88.0249V63.9999H186.599V88.0249H160.195Z" fill="#4CBFCD"/>
<path fill-rule="evenodd" clip-rule="evenodd" d="M64.0833 85.8627H42.4318V66.1621H64.0833V85.8627ZM40.0554 88.0249V63.9999H66.4597V88.0249H40.0554Z" fill="#4CBFCD"/>
<path fill-rule="evenodd" clip-rule="evenodd" d="M88.1112 85.8627H66.4596V66.1621H88.1112V85.8627ZM64.0833 88.0249V63.9999H90.4876V88.0249H64.0833Z" fill="#4CBFCD"/>
<path fill-rule="evenodd" clip-rule="evenodd" d="M112.139 85.8627H90.4875V66.1621H112.139V85.8627ZM88.1111 88.0249V63.9999H114.515V88.0249H88.1111Z" fill="#4CBFCD"/>
<path fill-rule="evenodd" clip-rule="evenodd" d="M328.367 85.8627H306.716V66.1621H328.367V85.8627ZM304.339 88.0249V63.9999H330.744V88.0249H304.339Z" fill="#4CBFCD"/>
<path fill-rule="evenodd" clip-rule="evenodd" d="M208.228 85.8627H186.576V66.1621H208.228V85.8627ZM184.2 88.0249V63.9999H210.604V88.0249H184.2Z" fill="#4CBFCD"/>
<path fill-rule="evenodd" clip-rule="evenodd" d="M352.395 85.8627H330.744V66.1621H352.395V85.8627ZM328.367 88.0249V63.9999H354.771V88.0249H328.367Z" fill="#4CBFCD"/>
<path fill-rule="evenodd" clip-rule="evenodd" d="M232.256 85.8627H210.604V66.1621H232.256V85.8627ZM208.228 88.0249V63.9999H234.632V88.0249H208.228Z" fill="#4CBFCD"/>
<path fill-rule="evenodd" clip-rule="evenodd" d="M376.423 85.8627H354.771V66.1621H376.423V85.8627ZM352.395 88.0249V63.9999H378.799V88.0249H352.395Z" fill="#4CBFCD"/>
<path fill-rule="evenodd" clip-rule="evenodd" d="M256.283 85.8627H234.632V66.1621H256.283V85.8627ZM232.255 88.0249V63.9999H258.66V88.0249H232.255Z" fill="#4CBFCD"/>
<path fill-rule="evenodd" clip-rule="evenodd" d="M280.311 85.8627H258.66V66.1621H280.311V85.8627ZM256.283 88.0249V63.9999H282.688V88.0249H256.283Z" fill="#4CBFCD"/>
<path fill-rule="evenodd" clip-rule="evenodd" d="M304.339 85.8627H282.688V66.1621H304.339V85.8627ZM280.311 88.0249V63.9999H306.716V88.0249H280.311Z" fill="#4CBFCD"/>
<path fill-rule="evenodd" clip-rule="evenodd" d="M520.567 85.8627H498.916V66.1621H520.567V85.8627ZM496.539 88.0249V63.9999H522.944V88.0249H496.539Z" fill="#4CBFCD"/>
<path fill-rule="evenodd" clip-rule="evenodd" d="M400.428 85.8627H378.776V66.1621H400.428V85.8627ZM376.4 88.0249V63.9999H402.804V88.0249H376.4Z" fill="#4CBFCD"/>
<path fill-rule="evenodd" clip-rule="evenodd" d="M544.595 85.8627H522.944V66.1621H544.595V85.8627ZM520.567 88.0249V63.9999H546.972V88.0249H520.567Z" fill="#4CBFCD"/>
<path fill-rule="evenodd" clip-rule="evenodd" d="M424.456 85.8627H402.804V66.1621H424.456V85.8627ZM400.428 88.0249V63.9999H426.832V88.0249H400.428Z" fill="#4CBFCD"/>
<path fill-rule="evenodd" clip-rule="evenodd" d="M568.623 85.8627H546.972V66.1621H568.623V85.8627ZM544.595 88.0249V63.9999H571V88.0249H544.595Z" fill="#4CBFCD"/>
<path fill-rule="evenodd" clip-rule="evenodd" d="M448.484 85.8627H426.832V66.1621H448.484V85.8627ZM424.456 88.0249V63.9999H450.86V88.0249H424.456Z" fill="#4CBFCD"/>
<path fill-rule="evenodd" clip-rule="evenodd" d="M472.512 85.8627H450.86V66.1621H472.512V85.8627ZM448.484 88.0249V63.9999H474.888V88.0249H448.484Z" fill="#4CBFCD"/>
<path fill-rule="evenodd" clip-rule="evenodd" d="M496.539 85.8627H474.888V66.1621H496.539V85.8627ZM472.511 88.0249V63.9999H498.916V88.0249H472.511Z" fill="#4CBFCD"/>
<path fill-rule="evenodd" clip-rule="evenodd" d="M917.167 49.8627H895.516V30.1621H917.167V49.8627ZM893.139 52.0249V27.9999H919.543V52.0249H893.139Z" fill="#4CBFCD"/>
<path fill-rule="evenodd" clip-rule="evenodd" d="M797.027 49.8627H775.376V30.1621H797.027V49.8627ZM773 52.0249V27.9999H799.404V52.0249H773Z" fill="#4CBFCD"/>
<path fill-rule="evenodd" clip-rule="evenodd" d="M941.195 49.8627H919.543V30.1621H941.195V49.8627ZM917.167 52.0249V27.9999H943.571V52.0249H917.167Z" fill="#4CBFCD"/>
<path fill-rule="evenodd" clip-rule="evenodd" d="M821.055 49.8627H799.404V30.1621H821.055V49.8627ZM797.027 52.0249V27.9999H823.432V52.0249H797.027Z" fill="#4CBFCD"/>
<path fill-rule="evenodd" clip-rule="evenodd" d="M965.223 49.8627H943.571V30.1621H965.223V49.8627ZM941.195 52.0249V27.9999H967.599V52.0249H941.195Z" fill="#4CBFCD"/>
<path fill-rule="evenodd" clip-rule="evenodd" d="M845.083 49.8627H823.432V30.1621H845.083V49.8627ZM821.055 52.0249V27.9999H847.46V52.0249H821.055Z" fill="#4CBFCD"/>
<path fill-rule="evenodd" clip-rule="evenodd" d="M869.111 49.8627H847.46V30.1621H869.111V49.8627ZM845.083 52.0249V27.9999H871.488V52.0249H845.083Z" fill="#4CBFCD"/>
<path fill-rule="evenodd" clip-rule="evenodd" d="M893.139 49.8627H871.487V30.1621H893.139V49.8627ZM869.111 52.0249V27.9999H895.515V52.0249H869.111Z" fill="#4CBFCD"/>
<path fill-rule="evenodd" clip-rule="evenodd" d="M1109.37 49.8627H1087.72V30.1621H1109.37V49.8627ZM1085.34 52.0249V27.9999H1111.74V52.0249H1085.34Z" fill="#4CBFCD"/>
<path fill-rule="evenodd" clip-rule="evenodd" d="M1037.28 49.8627H1015.63V30.1621H1037.28V49.8627ZM1013.26 52.0249V27.9999H1039.66V52.0249H1013.26Z" fill="#4CBFCD"/>
<path fill-rule="evenodd" clip-rule="evenodd" d="M1061.31 49.8627H1039.66V30.1621H1061.31V49.8627ZM1037.28 52.0249V27.9999H1063.69V52.0249H1037.28Z" fill="#4CBFCD"/>
<path fill-rule="evenodd" clip-rule="evenodd" d="M1085.34 49.8627H1063.69V30.1621H1085.34V49.8627ZM1061.31 52.0249V27.9999H1087.72V52.0249H1061.31Z" fill="#4CBFCD"/>
<path fill-rule="evenodd" clip-rule="evenodd" d="M1301.57 49.8627H1279.92V30.1621H1301.57V49.8627ZM1277.54 52.0249V27.9999H1303.94V52.0249H1277.54Z" fill="#4CBFCD"/>
<path fill-rule="evenodd" clip-rule="evenodd" d="M1181.43 49.8627H1159.78V30.1621H1181.43V49.8627ZM1157.4 52.0249V27.9999H1183.8V52.0249H1157.4Z" fill="#4CBFCD"/>
<path fill-rule="evenodd" clip-rule="evenodd" d="M1325.6 49.8627H1303.94V30.1621H1325.6V49.8627ZM1301.57 52.0249V27.9999H1327.97V52.0249H1301.57Z" fill="#4CBFCD"/>
<path fill-rule="evenodd" clip-rule="evenodd" d="M1205.46 49.8627H1183.8V30.1621H1205.46V49.8627ZM1181.43 52.0249V27.9999H1207.83V52.0249H1181.43Z" fill="#4CBFCD"/>
<path fill-rule="evenodd" clip-rule="evenodd" d="M1277.54 49.8627H1255.89V30.1621H1277.54V49.8627ZM1253.51 52.0249V27.9999H1279.92V52.0249H1253.51Z" fill="#4CBFCD"/>
<path d="M806.959 64.2727C800.694 64.2727 796.772 68.8176 796.772 76.0453C796.772 83.273 800.694 87.8021 806.959 87.8021C813.224 87.8021 817.146 83.273 817.146 76.0453C817.146 68.8176 813.224 64.2727 806.959 64.2727ZM806.959 66.8923C811.478 66.8923 814.312 70.4273 814.312 76.0453C814.312 81.6475 811.478 85.1825 806.959 85.1825C802.44 85.1825 799.606 81.6475 799.606 76.0453C799.606 70.4273 802.44 66.8923 806.959 66.8923Z" fill="#4CBFCD"/>
<path fill-rule="evenodd" clip-rule="evenodd" d="M790.839 74.8801C792.331 76.5139 794.584 78.7956 797.187 80.8039C800.42 83.299 803.945 85.1765 807.093 85.1765C810.209 85.1765 813.382 83.3294 816.253 80.8526C818.593 78.8344 820.564 76.5502 821.977 74.8816C820.426 73.3377 818.245 71.5082 815.822 69.978C812.879 68.1196 809.769 66.8235 807.093 66.8235C804.391 66.8235 800.927 68.1395 797.62 70.0126C794.91 71.5484 792.466 73.3662 790.839 74.8801ZM796.229 67.556C799.66 65.6122 803.646 64 807.093 64C810.566 64 814.228 65.6321 817.329 67.5906C820.463 69.5694 823.218 72.005 824.921 73.8723L825.76 74.7934L824.951 75.7409C824.787 75.9321 824.608 76.1446 824.413 76.375C822.994 78.0537 820.771 80.6841 818.098 82.9906C815.089 85.5856 811.256 88 807.093 88C802.963 88 798.801 85.616 795.462 83.0392C792.071 80.4224 789.272 77.4036 787.832 75.7507L787 74.7944L787.861 73.8641C789.631 71.9542 792.768 69.5166 796.229 67.556Z" fill="#4CBFCD"/>
<path d="M873.782 64.2727C867.517 64.2727 863.596 68.8176 863.596 76.0453C863.596 83.273 867.517 87.8021 873.782 87.8021C880.048 87.8021 883.969 83.273 883.969 76.0453C883.969 68.8176 880.048 64.2727 873.782 64.2727ZM873.782 66.8923C878.301 66.8923 881.135 70.4273 881.135 76.0453C881.135 81.6475 878.301 85.1825 873.782 85.1825C869.263 85.1825 866.43 81.6475 866.43 76.0453C866.43 70.4273 869.263 66.8923 873.782 66.8923Z" fill="#4CBFCD"/>
<path fill-rule="evenodd" clip-rule="evenodd" d="M857.663 74.8801C859.154 76.5139 861.408 78.7956 864.01 80.8039C867.244 83.299 870.768 85.1765 873.917 85.1765C877.032 85.1765 880.206 83.3294 883.077 80.8526C885.416 78.8344 887.387 76.5502 888.801 74.8816C887.25 73.3377 885.068 71.5082 882.645 69.978C879.702 68.1196 876.592 66.8235 873.917 66.8235C871.214 66.8235 867.75 68.1395 864.444 70.0126C861.733 71.5484 859.289 73.3662 857.663 74.8801ZM863.052 67.556C866.483 65.6122 870.47 64 873.917 64C877.39 64 881.051 65.6321 884.153 67.5906C887.286 69.5694 890.042 72.005 891.744 73.8723L892.584 74.7934L891.774 75.7409C891.611 75.9321 891.431 76.1446 891.236 76.375C889.818 78.0537 887.595 80.6841 884.921 82.9906C881.913 85.5856 878.079 88 873.917 88C869.787 88 865.625 85.616 862.286 83.0392C858.894 80.4224 856.095 77.4036 854.656 75.7507L853.823 74.7944L854.685 73.8641C856.454 71.9542 859.591 69.5166 863.052 67.556Z" fill="#4CBFCD"/>
<path d="M989.547 64.2727C983.282 64.2727 979.36 68.8176 979.36 76.0453C979.36 83.273 983.282 87.8021 989.547 87.8021C995.813 87.8021 999.734 83.273 999.734 76.0453C999.734 68.8176 995.813 64.2727 989.547 64.2727ZM989.547 66.8923C994.066 66.8923 996.9 70.4273 996.9 76.0453C996.9 81.6475 994.066 85.1825 989.547 85.1825C985.028 85.1825 982.194 81.6475 982.194 76.0453C982.194 70.4273 985.028 66.8923 989.547 66.8923Z" fill="#4CBFCD"/>
<path fill-rule="evenodd" clip-rule="evenodd" d="M973.428 74.8801C974.919 76.5139 977.173 78.7956 979.775 80.8039C983.009 83.299 986.533 85.1765 989.681 85.1765C992.797 85.1765 995.97 83.3294 998.842 80.8526C1001.18 78.8344 1003.15 76.5502 1004.57 74.8816C1003.01 73.3377 1000.83 71.5082 998.41 69.978C995.467 68.1196 992.357 66.8235 989.681 66.8235C986.979 66.8235 983.515 68.1395 980.209 70.0126C977.498 71.5484 975.054 73.3662 973.428 74.8801ZM978.817 67.556C982.248 65.6122 986.235 64 989.681 64C993.155 64 996.816 65.6321 999.918 67.5906C1003.05 69.5694 1005.81 72.005 1007.51 73.8723L1008.35 74.7934L1007.54 75.7409C1007.38 75.9321 1007.2 76.1446 1007 76.375C1005.58 78.0537 1003.36 80.6841 1000.69 82.9906C997.677 85.5856 993.844 88 989.681 88C985.551 88 981.389 85.616 978.05 83.0392C974.659 80.4224 971.86 77.4036 970.421 75.7507L969.588 74.7944L970.45 73.8641C972.219 71.9542 975.356 69.5166 978.817 67.556Z" fill="#4CBFCD"/>
<path d="M837.252 84.0575L838.922 82.3878L832.61 76.1072H850.702V73.7481H832.61L838.922 67.4675L837.252 65.7977L828.122 74.9276L837.252 84.0575Z" fill="#4CBFCD"/>
<path d="M904.075 84.0575L905.745 82.3878L899.434 76.1072H917.525V73.7481H899.434L905.745 67.4675L904.075 65.7977L894.945 74.9276L904.075 84.0575Z" fill="#4CBFCD"/>
<path d="M1019.84 84.0575L1021.51 82.3878L1015.2 76.1072H1033.29V73.7481H1015.2L1021.51 67.4675L1019.84 65.7977L1010.71 74.9276L1019.84 84.0575Z" fill="#4CBFCD"/>
<path d="M1057.94 64.2727C1051.67 64.2727 1047.75 68.8176 1047.75 76.0453C1047.75 83.273 1051.67 87.8021 1057.94 87.8021C1064.2 87.8021 1068.13 83.273 1068.13 76.0453C1068.13 68.8176 1064.2 64.2727 1057.94 64.2727ZM1057.94 66.8923C1062.46 66.8923 1065.29 70.4273 1065.29 76.0453C1065.29 81.6475 1062.46 85.1825 1057.94 85.1825C1053.42 85.1825 1050.59 81.6475 1050.59 76.0453C1050.59 70.4273 1053.42 66.8923 1057.94 66.8923Z" fill="#4CBFCD"/>
<path fill-rule="evenodd" clip-rule="evenodd" d="M1041.82 74.8801C1043.31 76.5139 1045.56 78.7956 1048.17 80.8039C1051.4 83.299 1054.93 85.1765 1058.07 85.1765C1061.19 85.1765 1064.36 83.3294 1067.23 80.8526C1069.57 78.8344 1071.54 76.5502 1072.96 74.8816C1071.41 73.3377 1069.23 71.5082 1066.8 69.978C1063.86 68.1196 1060.75 66.8235 1058.07 66.8235C1055.37 66.8235 1051.91 68.1395 1048.6 70.0126C1045.89 71.5484 1043.45 73.3662 1041.82 74.8801ZM1047.21 67.556C1050.64 65.6122 1054.63 64 1058.07 64C1061.55 64 1065.21 65.6321 1068.31 67.5906C1071.44 69.5694 1074.2 72.005 1075.9 73.8723L1076.74 74.7934L1075.93 75.7409C1075.77 75.9321 1075.59 76.1446 1075.39 76.375C1073.97 78.0537 1071.75 80.6841 1069.08 82.9906C1066.07 85.5856 1062.24 88 1058.07 88C1053.94 88 1049.78 85.616 1046.44 83.0392C1043.05 80.4224 1040.25 77.4036 1038.81 75.7507L1037.98 74.7944L1038.84 73.8641C1040.61 71.9542 1043.75 69.5166 1047.21 67.556Z" fill="#4CBFCD"/>
<path d="M1124.76 64.2727C1118.5 64.2727 1114.58 68.8176 1114.58 76.0453C1114.58 83.273 1118.5 87.8021 1124.76 87.8021C1131.03 87.8021 1134.95 83.273 1134.95 76.0453C1134.95 68.8176 1131.03 64.2727 1124.76 64.2727ZM1124.76 66.8923C1129.28 66.8923 1132.12 70.4273 1132.12 76.0453C1132.12 81.6475 1129.28 85.1825 1124.76 85.1825C1120.24 85.1825 1117.41 81.6475 1117.41 76.0453C1117.41 70.4273 1120.24 66.8923 1124.76 66.8923Z" fill="#4CBFCD"/>
<path fill-rule="evenodd" clip-rule="evenodd" d="M1108.64 74.8801C1110.13 76.5139 1112.39 78.7956 1114.99 80.8039C1118.22 83.299 1121.75 85.1765 1124.9 85.1765C1128.01 85.1765 1131.19 83.3294 1134.06 80.8526C1136.4 78.8344 1138.37 76.5502 1139.78 74.8816C1138.23 73.3377 1136.05 71.5082 1133.63 69.978C1130.68 68.1196 1127.57 66.8235 1124.9 66.8235C1122.19 66.8235 1118.73 68.1395 1115.42 70.0126C1112.71 71.5484 1110.27 73.3662 1108.64 74.8801ZM1114.03 67.556C1117.46 65.6122 1121.45 64 1124.9 64C1128.37 64 1132.03 65.6321 1135.13 67.5906C1138.27 69.5694 1141.02 72.005 1142.72 73.8723L1143.56 74.7934L1142.75 75.7409C1142.59 75.9321 1142.41 76.1446 1142.22 76.375C1140.8 78.0537 1138.58 80.6841 1135.9 82.9906C1132.89 85.5856 1129.06 88 1124.9 88C1120.77 88 1116.61 85.616 1113.27 83.0392C1109.87 80.4224 1107.08 77.4036 1105.64 75.7507L1104.8 74.7944L1105.67 73.8641C1107.43 71.9542 1110.57 69.5166 1114.03 67.556Z" fill="#4CBFCD"/>
<path d="M1240.53 64.2727C1234.26 64.2727 1230.34 68.8176 1230.34 76.0453C1230.34 83.273 1234.26 87.8021 1240.53 87.8021C1246.79 87.8021 1250.71 83.273 1250.71 76.0453C1250.71 68.8176 1246.79 64.2727 1240.53 64.2727ZM1240.53 66.8923C1245.05 66.8923 1247.88 70.4273 1247.88 76.0453C1247.88 81.6475 1245.05 85.1825 1240.53 85.1825C1236.01 85.1825 1233.17 81.6475 1233.17 76.0453C1233.17 70.4273 1236.01 66.8923 1240.53 66.8923Z" fill="#4CBFCD"/>
<path fill-rule="evenodd" clip-rule="evenodd" d="M1224.41 74.8801C1225.9 76.5139 1228.15 78.7956 1230.76 80.8039C1233.99 83.299 1237.51 85.1765 1240.66 85.1765C1243.78 85.1765 1246.95 83.3294 1249.82 80.8526C1252.16 78.8344 1254.13 76.5502 1255.55 74.8816C1253.99 73.3377 1251.81 71.5082 1249.39 69.978C1246.45 68.1196 1243.34 66.8235 1240.66 66.8235C1237.96 66.8235 1234.5 68.1395 1231.19 70.0126C1228.48 71.5484 1226.03 73.3662 1224.41 74.8801ZM1229.8 67.556C1233.23 65.6122 1237.22 64 1240.66 64C1244.14 64 1247.8 65.6321 1250.9 67.5906C1254.03 69.5694 1256.79 72.005 1258.49 73.8723L1259.33 74.7934L1258.52 75.7409C1258.36 75.9321 1258.18 76.1446 1257.98 76.375C1256.56 78.0537 1254.34 80.6841 1251.67 82.9906C1248.66 85.5856 1244.82 88 1240.66 88C1236.53 88 1232.37 85.616 1229.03 83.0392C1225.64 80.4224 1222.84 77.4036 1221.4 75.7507L1220.57 74.7944L1221.43 73.8641C1223.2 71.9542 1226.34 69.5166 1229.8 67.556Z" fill="#4CBFCD"/>
<path d="M1088.23 84.0575L1089.9 82.3878L1083.59 76.1072H1101.68V73.7481H1083.59L1089.9 67.4675L1088.23 65.7977L1079.1 74.9276L1088.23 84.0575Z" fill="#4CBFCD"/>
<path d="M1155.06 84.0575L1156.73 82.3878L1150.41 76.1072H1168.51V73.7481H1150.41L1156.73 67.4675L1155.06 65.7977L1145.93 74.9276L1155.06 84.0575Z" fill="#4CBFCD"/>
<path d="M1270.82 84.0575L1272.49 82.3878L1266.18 76.1072H1284.27V73.7481H1266.18L1272.49 67.4675L1270.82 65.7977L1261.69 74.9276L1270.82 84.0575Z" fill="#4CBFCD"/>
<path d="M1308.92 64.2727C1302.65 64.2727 1298.73 68.8176 1298.73 76.0453C1298.73 83.273 1302.65 87.8021 1308.92 87.8021C1315.19 87.8021 1319.11 83.273 1319.11 76.0453C1319.11 68.8176 1315.19 64.2727 1308.92 64.2727ZM1308.92 66.8923C1313.44 66.8923 1316.27 70.4273 1316.27 76.0453C1316.27 81.6475 1313.44 85.1825 1308.92 85.1825C1304.4 85.1825 1301.57 81.6475 1301.57 76.0453C1301.57 70.4273 1304.4 66.8923 1308.92 66.8923Z" fill="#4CBFCD"/>
<path fill-rule="evenodd" clip-rule="evenodd" d="M1292.8 74.8801C1294.29 76.5139 1296.55 78.7956 1299.15 80.8039C1302.38 83.299 1305.91 85.1765 1309.05 85.1765C1312.17 85.1765 1315.34 83.3294 1318.21 80.8526C1320.55 78.8344 1322.52 76.5502 1323.94 74.8816C1322.39 73.3377 1320.21 71.5082 1317.78 69.978C1314.84 68.1196 1311.73 66.8235 1309.05 66.8235C1306.35 66.8235 1302.89 68.1395 1299.58 70.0126C1296.87 71.5484 1294.43 73.3662 1292.8 74.8801ZM1298.19 67.556C1301.62 65.6122 1305.61 64 1309.05 64C1312.53 64 1316.19 65.6321 1319.29 67.5906C1322.42 69.5694 1325.18 72.005 1326.88 73.8723L1327.72 74.7934L1326.91 75.7409C1326.75 75.9321 1326.57 76.1446 1326.37 76.375C1324.96 78.0537 1322.73 80.6841 1320.06 82.9906C1317.05 85.5856 1313.22 88 1309.05 88C1304.92 88 1300.76 85.616 1297.42 83.0392C1294.03 80.4224 1291.23 77.4036 1289.79 75.7507L1288.96 74.7944L1289.82 73.8641C1291.59 71.9542 1294.73 69.5166 1298.19 67.556Z" fill="#4CBFCD"/>
<path d="M1375.74 64.2727C1369.48 64.2727 1365.56 68.8176 1365.56 76.0453C1365.56 83.273 1369.48 87.8021 1375.74 87.8021C1382.01 87.8021 1385.93 83.273 1385.93 76.0453C1385.93 68.8176 1382.01 64.2727 1375.74 64.2727ZM1375.74 66.8923C1380.26 66.8923 1383.1 70.4273 1383.1 76.0453C1383.1 81.6475 1380.26 85.1825 1375.74 85.1825C1371.22 85.1825 1368.39 81.6475 1368.39 76.0453C1368.39 70.4273 1371.22 66.8923 1375.74 66.8923Z" fill="#4CBFCD"/>
<path fill-rule="evenodd" clip-rule="evenodd" d="M1359.62 74.8801C1361.12 76.5139 1363.37 78.7956 1365.97 80.8039C1369.2 83.299 1372.73 85.1765 1375.88 85.1765C1378.99 85.1765 1382.17 83.3294 1385.04 80.8526C1387.38 78.8344 1389.35 76.5502 1390.76 74.8816C1389.21 73.3377 1387.03 71.5082 1384.61 69.978C1381.66 68.1196 1378.55 66.8235 1375.88 66.8235C1373.18 66.8235 1369.71 68.1395 1366.4 70.0126C1363.69 71.5484 1361.25 73.3662 1359.62 74.8801ZM1365.01 67.556C1368.44 65.6122 1372.43 64 1375.88 64C1379.35 64 1383.01 65.6321 1386.11 67.5906C1389.25 69.5694 1392 72.005 1393.7 73.8723L1394.54 74.7934L1393.73 75.7409C1393.57 75.9321 1393.39 76.1446 1393.2 76.375C1391.78 78.0537 1389.56 80.6841 1386.88 82.9906C1383.87 85.5856 1380.04 88 1375.88 88C1371.75 88 1367.59 85.616 1364.25 83.0392C1360.86 80.4224 1358.06 77.4036 1356.62 75.7507L1355.78 74.7944L1356.65 73.8641C1358.42 71.9542 1361.55 69.5166 1365.01 67.556Z" fill="#4CBFCD"/>
<path d="M1339.21 84.0575L1340.88 82.3878L1334.57 76.1072H1352.66V73.7481H1334.57L1340.88 67.4675L1339.21 65.7977L1330.08 74.9276L1339.21 84.0575Z" fill="#4CBFCD"/>
<path d="M1406.04 84.0575L1407.71 82.3878L1401.39 76.1072H1419.49V73.7481H1401.39L1407.71 67.4675L1406.04 65.7977L1396.91 74.9276L1406.04 84.0575Z" fill="#4CBFCD"/>
<path d="M64.5472 26.2727C58.2819 26.2727 54.3603 30.8176 54.3603 38.0453C54.3603 45.273 58.2819 49.8021 64.5472 49.8021C70.8125 49.8021 74.7341 45.273 74.7341 38.0453C74.7341 30.8176 70.8125 26.2727 64.5472 26.2727ZM64.5472 28.8923C69.0662 28.8923 71.9001 32.4273 71.9001 38.0453C71.9001 43.6475 69.0662 47.1825 64.5472 47.1825C60.0282 47.1825 57.1943 43.6475 57.1943 38.0453C57.1943 32.4273 60.0282 28.8923 64.5472 28.8923Z" fill="#4CBFCD"/>
<path fill-rule="evenodd" clip-rule="evenodd" d="M48.4275 36.8801C49.9191 38.5139 52.1727 40.7956 54.7752 42.8039C58.0086 45.299 61.533 47.1765 64.6814 47.1765C67.797 47.1765 70.9703 45.3294 73.8416 42.8526C76.1813 40.8344 78.1518 38.5502 79.5655 36.8816C78.0146 35.3377 75.8331 33.5082 73.4099 31.978C70.467 30.1196 67.3571 28.8235 64.6814 28.8235C61.979 28.8235 58.515 30.1395 55.2087 32.0126C52.4979 33.5484 50.0541 35.3662 48.4275 36.8801ZM53.8169 29.556C57.2478 27.6122 61.2347 26 64.6814 26C68.1547 26 71.816 27.6321 74.9175 29.5906C78.051 31.5694 80.8064 34.005 82.5089 35.8723L83.3487 36.7934L82.5388 37.7409C82.3753 37.9321 82.1958 38.1446 82.0011 38.375C80.5825 40.0537 78.3597 42.6841 75.6859 44.9906C72.6775 47.5856 68.8442 50 64.6814 50C60.5513 50 56.3895 47.616 53.0503 45.0392C49.6592 42.4224 46.8603 39.4036 45.4207 37.7507L44.5878 36.7944L45.4497 35.8641C47.2191 33.9542 50.3562 31.5166 53.8169 29.556Z" fill="#4CBFCD"/>
<path d="M94.84 46.0575L96.5098 44.3878L90.1985 38.1072H108.29V35.7481H90.1985L96.5098 29.4675L94.84 27.7977L85.7101 36.9276L94.84 46.0575Z" fill="#4CBFCD"/>
<path d="M132.939 26.2727C126.674 26.2727 122.753 30.8176 122.753 38.0453C122.753 45.273 126.674 49.8021 132.939 49.8021C139.205 49.8021 143.126 45.273 143.126 38.0453C143.126 30.8176 139.205 26.2727 132.939 26.2727ZM132.939 28.8923C137.458 28.8923 140.292 32.4273 140.292 38.0453C140.292 43.6475 137.458 47.1825 132.939 47.1825C128.42 47.1825 125.586 43.6475 125.586 38.0453C125.586 32.4273 128.42 28.8923 132.939 28.8923Z" fill="#4CBFCD"/>
<path fill-rule="evenodd" clip-rule="evenodd" d="M116.82 36.8801C118.311 38.5139 120.565 40.7956 123.167 42.8039C126.401 45.299 129.925 47.1765 133.074 47.1765C136.189 47.1765 139.362 45.3294 142.234 42.8526C144.573 40.8344 146.544 38.5502 147.958 36.8816C146.407 35.3377 144.225 33.5082 141.802 31.978C138.859 30.1196 135.749 28.8235 133.074 28.8235C130.371 28.8235 126.907 30.1395 123.601 32.0126C120.89 33.5484 118.446 35.3662 116.82 36.8801ZM122.209 29.556C125.64 27.6122 129.627 26 133.074 26C136.547 26 140.208 27.6321 143.31 29.5906C146.443 31.5694 149.199 34.005 150.901 35.8723L151.741 36.7934L150.931 37.7409C150.767 37.9321 150.588 38.1446 150.393 38.375C148.975 40.0537 146.752 42.6841 144.078 44.9906C141.07 47.5856 137.236 50 133.074 50C128.943 50 124.782 47.616 121.442 45.0392C118.051 42.4224 115.252 39.4036 113.813 37.7507L112.98 36.7944L113.842 35.8641C115.611 33.9542 118.748 31.5166 122.209 29.556Z" fill="#4CBFCD"/>
<path d="M199.763 26.2727C193.498 26.2727 189.576 30.8176 189.576 38.0453C189.576 45.273 193.498 49.8021 199.763 49.8021C206.028 49.8021 209.95 45.273 209.95 38.0453C209.95 30.8176 206.028 26.2727 199.763 26.2727ZM199.763 28.8923C204.282 28.8923 207.116 32.4273 207.116 38.0453C207.116 43.6475 204.282 47.1825 199.763 47.1825C195.244 47.1825 192.41 43.6475 192.41 38.0453C192.41 32.4273 195.244 28.8923 199.763 28.8923Z" fill="#4CBFCD"/>
<path fill-rule="evenodd" clip-rule="evenodd" d="M183.643 36.8801C185.135 38.5139 187.388 40.7956 189.991 42.8039C193.224 45.299 196.749 47.1765 199.897 47.1765C203.013 47.1765 206.186 45.3294 209.057 42.8526C211.397 40.8344 213.368 38.5502 214.781 36.8816C213.23 35.3377 211.049 33.5082 208.626 31.978C205.683 30.1196 202.573 28.8235 199.897 28.8235C197.195 28.8235 193.731 30.1395 190.424 32.0126C187.714 33.5484 185.27 35.3662 183.643 36.8801ZM189.033 29.556C192.464 27.6122 196.45 26 199.897 26C203.37 26 207.032 27.6321 210.133 29.5906C213.267 31.5694 216.022 34.005 217.725 35.8723L218.564 36.7934L217.755 37.7409C217.591 37.9321 217.411 38.1446 217.217 38.375C215.798 40.0537 213.575 42.6841 210.902 44.9906C207.893 47.5856 204.06 50 199.897 50C195.767 50 191.605 47.616 188.266 45.0392C184.875 42.4224 182.076 39.4036 180.636 37.7507L179.803 36.7944L180.665 35.8641C182.435 33.9542 185.572 31.5166 189.033 29.556Z" fill="#4CBFCD"/>
<path d="M315.528 26.2727C309.262 26.2727 305.341 30.8176 305.341 38.0453C305.341 45.273 309.262 49.8021 315.528 49.8021C321.793 49.8021 325.715 45.273 325.715 38.0453C325.715 30.8176 321.793 26.2727 315.528 26.2727ZM315.528 28.8923C320.047 28.8923 322.881 32.4273 322.881 38.0453C322.881 43.6475 320.047 47.1825 315.528 47.1825C311.009 47.1825 308.175 43.6475 308.175 38.0453C308.175 32.4273 311.009 28.8923 315.528 28.8923Z" fill="#4CBFCD"/>
<path fill-rule="evenodd" clip-rule="evenodd" d="M299.408 36.8801C300.9 38.5139 303.153 40.7956 305.756 42.8039C308.989 45.299 312.513 47.1765 315.662 47.1765C318.777 47.1765 321.951 45.3294 324.822 42.8526C327.162 40.8344 329.132 38.5502 330.546 36.8816C328.995 35.3377 326.813 33.5082 324.39 31.978C321.447 30.1196 318.338 28.8235 315.662 28.8235C312.959 28.8235 309.495 30.1395 306.189 32.0126C303.478 33.5484 301.034 35.3662 299.408 36.8801ZM304.797 29.556C308.228 27.6122 312.215 26 315.662 26C319.135 26 322.796 27.6321 325.898 29.5906C329.031 31.5694 331.787 34.005 333.489 35.8723L334.329 36.7934L333.519 37.7409C333.356 37.9321 333.176 38.1446 332.981 38.375C331.563 40.0537 329.34 42.6841 326.666 44.9906C323.658 47.5856 319.825 50 315.662 50C311.532 50 307.37 47.616 304.031 45.0392C300.64 42.4224 297.841 39.4036 296.401 37.7507L295.568 36.7944L296.43 35.8641C298.2 33.9542 301.337 31.5166 304.797 29.556Z" fill="#4CBFCD"/>
<path d="M163.232 46.0575L164.902 44.3878L158.591 38.1072H176.682V35.7481H158.591L164.902 29.4675L163.232 27.7977L154.102 36.9276L163.232 46.0575Z" fill="#4CBFCD"/>
<path d="M230.056 46.0575L231.725 44.3878L225.414 38.1072H243.506V35.7481H225.414L231.725 29.4675L230.056 27.7977L220.926 36.9276L230.056 46.0575Z" fill="#4CBFCD"/>
<path d="M345.82 46.0575L347.49 44.3878L341.179 38.1072H359.27V35.7481H341.179L347.49 29.4675L345.82 27.7977L336.691 36.9276L345.82 46.0575Z" fill="#4CBFCD"/>
<path d="M383.92 26.2727C377.654 26.2727 373.733 30.8176 373.733 38.0453C373.733 45.273 377.654 49.8021 383.92 49.8021C390.185 49.8021 394.107 45.273 394.107 38.0453C394.107 30.8176 390.185 26.2727 383.92 26.2727ZM383.92 28.8923C388.439 28.8923 391.273 32.4273 391.273 38.0453C391.273 43.6475 388.439 47.1825 383.92 47.1825C379.401 47.1825 376.567 43.6475 376.567 38.0453C376.567 32.4273 379.401 28.8923 383.92 28.8923Z" fill="#4CBFCD"/>
<path fill-rule="evenodd" clip-rule="evenodd" d="M367.8 36.8801C369.292 38.5139 371.545 40.7956 374.148 42.8039C377.381 45.299 380.906 47.1765 384.054 47.1765C387.17 47.1765 390.343 45.3294 393.214 42.8526C395.554 40.8344 397.524 38.5502 398.938 36.8816C397.387 35.3377 395.206 33.5082 392.783 31.978C389.84 30.1196 386.73 28.8235 384.054 28.8235C381.352 28.8235 377.888 30.1395 374.581 32.0126C371.87 33.5484 369.427 35.3662 367.8 36.8801ZM373.189 29.556C376.62 27.6122 380.607 26 384.054 26C387.527 26 391.189 27.6321 394.29 29.5906C397.424 31.5694 400.179 34.005 401.881 35.8723L402.721 36.7934L401.911 37.7409C401.748 37.9321 401.568 38.1446 401.374 38.375C399.955 40.0537 397.732 42.6841 395.058 44.9906C392.05 47.5856 388.217 50 384.054 50C379.924 50 375.762 47.616 372.423 45.0392C369.032 42.4224 366.233 39.4036 364.793 37.7507L363.96 36.7944L364.822 35.8641C366.592 33.9542 369.729 31.5166 373.189 29.556Z" fill="#4CBFCD"/>
<path d="M450.743 26.2727C444.478 26.2727 440.556 30.8176 440.556 38.0453C440.556 45.273 444.478 49.8021 450.743 49.8021C457.009 49.8021 460.93 45.273 460.93 38.0453C460.93 30.8176 457.009 26.2727 450.743 26.2727ZM450.743 28.8923C455.262 28.8923 458.096 32.4273 458.096 38.0453C458.096 43.6475 455.262 47.1825 450.743 47.1825C446.224 47.1825 443.39 43.6475 443.39 38.0453C443.39 32.4273 446.224 28.8923 450.743 28.8923Z" fill="#4CBFCD"/>
<path fill-rule="evenodd" clip-rule="evenodd" d="M434.624 36.8801C436.115 38.5139 438.369 40.7956 440.971 42.8039C444.205 45.299 447.729 47.1765 450.877 47.1765C453.993 47.1765 457.166 45.3294 460.038 42.8526C462.377 40.8344 464.348 38.5502 465.762 36.8816C464.211 35.3377 462.029 33.5082 459.606 31.978C456.663 30.1196 453.553 28.8235 450.877 28.8235C448.175 28.8235 444.711 30.1395 441.405 32.0126C438.694 33.5484 436.25 35.3662 434.624 36.8801ZM440.013 29.556C443.444 27.6122 447.431 26 450.877 26C454.351 26 458.012 27.6321 461.114 29.5906C464.247 31.5694 467.002 34.005 468.705 35.8723L469.545 36.7934L468.735 37.7409C468.571 37.9321 468.392 38.1446 468.197 38.375C466.779 40.0537 464.556 42.6841 461.882 44.9906C458.874 47.5856 455.04 50 450.877 50C446.747 50 442.586 47.616 439.246 45.0392C435.855 42.4224 433.056 39.4036 431.617 37.7507L430.784 36.7944L431.646 35.8641C433.415 33.9542 436.552 31.5166 440.013 29.556Z" fill="#4CBFCD"/>
<path d="M566.508 26.2727C560.243 26.2727 556.321 30.8176 556.321 38.0453C556.321 45.273 560.243 49.8021 566.508 49.8021C572.773 49.8021 576.695 45.273 576.695 38.0453C576.695 30.8176 572.773 26.2727 566.508 26.2727ZM566.508 28.8923C571.027 28.8923 573.861 32.4273 573.861 38.0453C573.861 43.6475 571.027 47.1825 566.508 47.1825C561.989 47.1825 559.155 43.6475 559.155 38.0453C559.155 32.4273 561.989 28.8923 566.508 28.8923Z" fill="#4CBFCD"/>
<path fill-rule="evenodd" clip-rule="evenodd" d="M550.388 36.8801C551.88 38.5139 554.134 40.7956 556.736 42.8039C559.969 45.299 563.494 47.1765 566.642 47.1765C569.758 47.1765 572.931 45.3294 575.802 42.8526C578.142 40.8344 580.113 38.5502 581.526 36.8816C579.975 35.3377 577.794 33.5082 575.371 31.978C572.428 30.1196 569.318 28.8235 566.642 28.8235C563.94 28.8235 560.476 30.1395 557.169 32.0126C554.459 33.5484 552.015 35.3662 550.388 36.8801ZM555.778 29.556C559.209 27.6122 563.196 26 566.642 26C570.115 26 573.777 27.6321 576.878 29.5906C580.012 31.5694 582.767 34.005 584.47 35.8723L585.31 36.7934L584.5 37.7409C584.336 37.9321 584.157 38.1446 583.962 38.375C582.543 40.0537 580.321 42.6841 577.647 44.9906C574.638 47.5856 570.805 50 566.642 50C562.512 50 558.35 47.616 555.011 45.0392C551.62 42.4224 548.821 39.4036 547.382 37.7507L546.549 36.7944L547.411 35.8641C549.18 33.9542 552.317 31.5166 555.778 29.556Z" fill="#4CBFCD"/>
<path d="M414.213 46.0575L415.882 44.3878L409.571 38.1072H427.662V35.7481H409.571L415.882 29.4675L414.213 27.7977L405.083 36.9276L414.213 46.0575Z" fill="#4CBFCD"/>
<path d="M481.036 46.0575L482.706 44.3878L476.395 38.1072H494.486V35.7481H476.395L482.706 29.4675L481.036 27.7977L471.906 36.9276L481.036 46.0575Z" fill="#4CBFCD"/>
<path d="M596.801 46.0575L598.471 44.3878L592.159 38.1072H610.251V35.7481H592.159L598.471 29.4675L596.801 27.7977L587.671 36.9276L596.801 46.0575Z" fill="#4CBFCD"/>
<path fill-rule="evenodd" clip-rule="evenodd" d="M278.84 28.16H259.16V47.84H278.84V28.16ZM257 26V50H281V26H257Z" fill="#4CBFCD"/>
<path fill-rule="evenodd" clip-rule="evenodd" d="M536.36 28.16H516.68V47.84H536.36V28.16ZM514.52 26V50H538.52V26H514.52Z" fill="#4CBFCD"/>
<path fill-rule="evenodd" clip-rule="evenodd" d="M662.84 28.16H643.16V47.84H662.84V28.16ZM641 26V50H665V26H641Z" fill="#4CBFCD"/>
<path fill-rule="evenodd" clip-rule="evenodd" d="M684.679 28.16H664.999V47.84H684.679V28.16ZM662.839 26V50H686.839V26H662.839Z" fill="#4CBFCD"/>
<path fill-rule="evenodd" clip-rule="evenodd" d="M706.519 28.16H686.839V47.84H706.519V28.16ZM684.679 26V50H708.679V26H684.679Z" fill="#4CBFCD"/>
<path fill-rule="evenodd" clip-rule="evenodd" d="M728.36 28.16H708.68V47.84H728.36V28.16ZM706.52 26V50H730.52V26H706.52Z" fill="#4CBFCD"/>
<path fill-rule="evenodd" clip-rule="evenodd" d="M1261.08 169.863H1282.73V150.162H1261.08V169.863ZM1285.11 172.025V148H1258.71V172.025H1285.11Z" fill="#4CBFCD"/>
<path fill-rule="evenodd" clip-rule="evenodd" d="M1381.22 169.863H1402.87V150.162H1381.22V169.863ZM1405.25 172.025V148H1378.85V172.025H1405.25Z" fill="#4CBFCD"/>
<path fill-rule="evenodd" clip-rule="evenodd" d="M1237.06 169.863H1258.71V150.162H1237.06V169.863ZM1261.08 172.025V148H1234.68V172.025H1261.08Z" fill="#4CBFCD"/>
<path fill-rule="evenodd" clip-rule="evenodd" d="M1357.2 169.863H1378.85V150.162H1357.2V169.863ZM1381.22 172.025V148H1354.82V172.025H1381.22Z" fill="#4CBFCD"/>
<path fill-rule="evenodd" clip-rule="evenodd" d="M1213.03 169.863H1234.68V150.162H1213.03V169.863ZM1237.06 172.025V148H1210.65V172.025H1237.06Z" fill="#4CBFCD"/>
<path fill-rule="evenodd" clip-rule="evenodd" d="M1333.17 169.863H1354.82V150.162H1333.17V169.863ZM1357.2 172.025V148H1330.79V172.025H1357.2Z" fill="#4CBFCD"/>
<path fill-rule="evenodd" clip-rule="evenodd" d="M1309.14 169.863H1330.79V150.162H1309.14V169.863ZM1333.17 172.025V148H1306.76V172.025H1333.17Z" fill="#4CBFCD"/>
<path fill-rule="evenodd" clip-rule="evenodd" d="M1285.11 169.863H1306.76V150.162H1285.11V169.863ZM1309.14 172.025V148H1282.74V172.025H1309.14Z" fill="#4CBFCD"/>
<path fill-rule="evenodd" clip-rule="evenodd" d="M1068.88 169.863H1090.53V150.162H1068.88V169.863ZM1092.91 172.025V148H1066.51V172.025H1092.91Z" fill="#4CBFCD"/>
<path fill-rule="evenodd" clip-rule="evenodd" d="M1189.02 169.863H1210.67V150.162H1189.02V169.863ZM1213.05 172.025V148H1186.65V172.025H1213.05Z" fill="#4CBFCD"/>
<path fill-rule="evenodd" clip-rule="evenodd" d="M1044.86 169.863H1066.51V150.162H1044.86V169.863ZM1068.88 172.025V148H1042.48V172.025H1068.88Z" fill="#4CBFCD"/>
<path fill-rule="evenodd" clip-rule="evenodd" d="M1164.99 169.863H1186.65V150.162H1164.99V169.863ZM1189.02 172.025V148H1162.62V172.025H1189.02Z" fill="#4CBFCD"/>
<path fill-rule="evenodd" clip-rule="evenodd" d="M1020.83 169.863H1042.48V150.162H1020.83V169.863ZM1044.86 172.025V148H1018.45V172.025H1044.86Z" fill="#4CBFCD"/>
<path fill-rule="evenodd" clip-rule="evenodd" d="M1140.97 169.863H1162.62V150.162H1140.97V169.863ZM1164.99 172.025V148H1138.59V172.025H1164.99Z" fill="#4CBFCD"/>
<path fill-rule="evenodd" clip-rule="evenodd" d="M1116.94 169.863H1138.59V150.162H1116.94V169.863ZM1140.97 172.025V148H1114.56V172.025H1140.97Z" fill="#4CBFCD"/>
<path fill-rule="evenodd" clip-rule="evenodd" d="M1092.91 169.863H1114.56V150.162H1092.91V169.863ZM1116.94 172.025V148H1090.53V172.025H1116.94Z" fill="#4CBFCD"/>
<path fill-rule="evenodd" clip-rule="evenodd" d="M876.683 169.863H898.335V150.162H876.683V169.863ZM900.711 172.025V148H874.307V172.025H900.711Z" fill="#4CBFCD"/>
<path fill-rule="evenodd" clip-rule="evenodd" d="M996.823 169.863H1018.47V150.162H996.823V169.863ZM1020.85 172.025V148H994.446V172.025H1020.85Z" fill="#4CBFCD"/>
<path fill-rule="evenodd" clip-rule="evenodd" d="M852.655 169.863H874.307V150.162H852.655V169.863ZM876.683 172.025V148H850.279V172.025H876.683Z" fill="#4CBFCD"/>
<path fill-rule="evenodd" clip-rule="evenodd" d="M972.795 169.863H994.446V150.162H972.795V169.863ZM996.823 172.025V148H970.418V172.025H996.823Z" fill="#4CBFCD"/>
<path fill-rule="evenodd" clip-rule="evenodd" d="M828.627 169.863H850.279V150.162H828.627V169.863ZM852.655 172.025V148H826.251V172.025H852.655Z" fill="#4CBFCD"/>
<path fill-rule="evenodd" clip-rule="evenodd" d="M948.767 169.863H970.419V150.162H948.767V169.863ZM972.795 172.025V148H946.391V172.025H972.795Z" fill="#4CBFCD"/>
<path fill-rule="evenodd" clip-rule="evenodd" d="M924.739 169.863H946.39V150.162H924.739V169.863ZM948.767 172.025V148H922.363V172.025H948.767Z" fill="#4CBFCD"/>
<path fill-rule="evenodd" clip-rule="evenodd" d="M900.711 169.863H922.363V150.162H900.711V169.863ZM924.739 172.025V148H898.335V172.025H924.739Z" fill="#4CBFCD"/>
<path fill-rule="evenodd" clip-rule="evenodd" d="M480.083 133.863H501.735V114.162H480.083V133.863ZM504.111 136.025V112H477.707V136.025H504.111Z" fill="#4CBFCD"/>
<path fill-rule="evenodd" clip-rule="evenodd" d="M600.223 133.863H621.875V114.162H600.223V133.863ZM624.251 136.025V112H597.847V136.025H624.251Z" fill="#4CBFCD"/>
<path fill-rule="evenodd" clip-rule="evenodd" d="M456.056 133.863H477.707V114.162H456.056V133.863ZM480.083 136.025V112H453.679V136.025H480.083Z" fill="#4CBFCD"/>
<path fill-rule="evenodd" clip-rule="evenodd" d="M576.195 133.863H597.847V114.162H576.195V133.863ZM600.223 136.025V112H573.819V136.025H600.223Z" fill="#4CBFCD"/>
<path fill-rule="evenodd" clip-rule="evenodd" d="M432.028 133.863H453.679V114.162H432.028V133.863ZM456.056 136.025V112H429.651V136.025H456.056Z" fill="#4CBFCD"/>
<path fill-rule="evenodd" clip-rule="evenodd" d="M552.167 133.863H573.819V114.162H552.167V133.863ZM576.195 136.025V112H549.791V136.025H576.195Z" fill="#4CBFCD"/>
<path fill-rule="evenodd" clip-rule="evenodd" d="M528.139 133.863H549.791V114.162H528.139V133.863ZM552.167 136.025V112H525.763V136.025H552.167Z" fill="#4CBFCD"/>
<path fill-rule="evenodd" clip-rule="evenodd" d="M504.111 133.863H525.763V114.162H504.111V133.863ZM528.139 136.025V112H501.735V136.025H528.139Z" fill="#4CBFCD"/>
<path fill-rule="evenodd" clip-rule="evenodd" d="M287.883 133.863H309.535V114.162H287.883V133.863ZM311.911 136.025V112H285.507V136.025H311.911Z" fill="#4CBFCD"/>
<path fill-rule="evenodd" clip-rule="evenodd" d="M359.967 133.863H381.619V114.162H359.967V133.863ZM383.995 136.025V112H357.591V136.025H383.995Z" fill="#4CBFCD"/>
<path fill-rule="evenodd" clip-rule="evenodd" d="M335.939 133.863H357.591V114.162H335.939V133.863ZM359.967 136.025V112H333.563V136.025H359.967Z" fill="#4CBFCD"/>
<path fill-rule="evenodd" clip-rule="evenodd" d="M311.911 133.863H333.563V114.162H311.911V133.863ZM335.939 136.025V112H309.535V136.025H335.939Z" fill="#4CBFCD"/>
<path fill-rule="evenodd" clip-rule="evenodd" d="M95.6831 133.863H117.335V114.162H95.6831V133.863ZM119.711 136.025V112H93.3068V136.025H119.711Z" fill="#4CBFCD"/>
<path fill-rule="evenodd" clip-rule="evenodd" d="M215.823 133.863H237.474V114.162H215.823V133.863ZM239.851 136.025V112H213.446V136.025H239.851Z" fill="#4CBFCD"/>
<path fill-rule="evenodd" clip-rule="evenodd" d="M71.6553 133.863H93.3068V114.162H71.6553V133.863ZM95.6832 136.025V112H69.2789V136.025H95.6832Z" fill="#4CBFCD"/>
<path fill-rule="evenodd" clip-rule="evenodd" d="M191.795 133.863H213.446V114.162H191.795V133.863ZM215.823 136.025V112H189.418V136.025H215.823Z" fill="#4CBFCD"/>
<path fill-rule="evenodd" clip-rule="evenodd" d="M119.711 133.863H141.363V114.162H119.711V133.863ZM143.739 136.025V112H117.335V136.025H143.739Z" fill="#4CBFCD"/>
<path d="M590.292 148.273C596.557 148.273 600.478 152.818 600.478 160.045C600.478 167.273 596.557 171.802 590.292 171.802C584.026 171.802 580.105 167.273 580.105 160.045C580.105 152.818 584.026 148.273 590.292 148.273ZM590.292 150.892C585.773 150.892 582.939 154.427 582.939 160.045C582.939 165.648 585.773 169.182 590.292 169.182C594.811 169.182 597.644 165.648 597.644 160.045C597.644 154.427 594.811 150.892 590.292 150.892Z" fill="#4CBFCD"/>
<path fill-rule="evenodd" clip-rule="evenodd" d="M606.411 158.88C604.92 160.514 602.666 162.796 600.063 164.804C596.83 167.299 593.306 169.176 590.157 169.176C587.042 169.176 583.868 167.329 580.997 164.853C578.657 162.834 576.687 160.55 575.273 158.882C576.824 157.338 579.006 155.508 581.429 153.978C584.372 152.12 587.482 150.824 590.157 150.824C592.86 150.824 596.324 152.139 599.63 154.013C602.341 155.548 604.785 157.366 606.411 158.88ZM601.022 151.556C597.591 149.612 593.604 148 590.157 148C586.684 148 583.023 149.632 579.921 151.591C576.788 153.569 574.032 156.005 572.33 157.872L571.49 158.793L572.3 159.741C572.463 159.932 572.643 160.145 572.838 160.375C574.256 162.054 576.479 164.684 579.153 166.991C582.161 169.586 585.995 172 590.157 172C594.287 172 598.449 169.616 601.788 167.039C605.18 164.422 607.978 161.404 609.418 159.751L610.251 158.794L609.389 157.864C607.62 155.954 604.483 153.517 601.022 151.556Z" fill="#4CBFCD"/>
<path d="M523.468 148.273C529.733 148.273 533.655 152.818 533.655 160.045C533.655 167.273 529.733 171.802 523.468 171.802C517.203 171.802 513.281 167.273 513.281 160.045C513.281 152.818 517.203 148.273 523.468 148.273ZM523.468 150.892C518.949 150.892 516.115 154.427 516.115 160.045C516.115 165.648 518.949 169.182 523.468 169.182C527.987 169.182 530.821 165.648 530.821 160.045C530.821 154.427 527.987 150.892 523.468 150.892Z" fill="#4CBFCD"/>
<path fill-rule="evenodd" clip-rule="evenodd" d="M539.588 158.88C538.096 160.514 535.843 162.796 533.24 164.804C530.007 167.299 526.482 169.176 523.334 169.176C520.218 169.176 517.045 167.329 514.174 164.853C511.834 162.834 509.863 160.55 508.45 158.882C510.001 157.338 512.182 155.508 514.605 153.978C517.548 152.12 520.658 150.824 523.334 150.824C526.036 150.824 529.5 152.139 532.807 154.013C535.517 155.548 537.961 157.366 539.588 158.88ZM534.198 151.556C530.767 149.612 526.78 148 523.334 148C519.861 148 516.199 149.632 513.098 151.591C509.964 153.569 507.209 156.005 505.506 157.872L504.666 158.793L505.476 159.741C505.64 159.932 505.819 160.145 506.014 160.375C507.433 162.054 509.655 164.684 512.329 166.991C515.338 169.586 519.171 172 523.334 172C527.464 172 531.626 169.616 534.965 167.039C538.356 164.422 541.155 161.404 542.594 159.751L543.427 158.794L542.566 157.864C540.796 155.954 537.659 153.517 534.198 151.556Z" fill="#4CBFCD"/>
<path d="M407.703 148.273C413.969 148.273 417.89 152.818 417.89 160.045C417.89 167.273 413.969 171.802 407.703 171.802C401.438 171.802 397.516 167.273 397.516 160.045C397.516 152.818 401.438 148.273 407.703 148.273ZM407.703 150.892C403.184 150.892 400.35 154.427 400.35 160.045C400.35 165.648 403.184 169.182 407.703 169.182C412.222 169.182 415.056 165.648 415.056 160.045C415.056 154.427 412.222 150.892 407.703 150.892Z" fill="#4CBFCD"/>
<path fill-rule="evenodd" clip-rule="evenodd" d="M423.823 158.88C422.331 160.514 420.078 162.796 417.475 164.804C414.242 167.299 410.717 169.176 407.569 169.176C404.453 169.176 401.28 167.329 398.409 164.853C396.069 162.834 394.099 160.55 392.685 158.882C394.236 157.338 396.417 155.508 398.841 153.978C401.783 152.12 404.893 150.824 407.569 150.824C410.271 150.824 413.736 152.139 417.042 154.013C419.753 155.548 422.196 157.366 423.823 158.88ZM418.434 151.556C415.003 149.612 411.016 148 407.569 148C404.096 148 400.434 149.632 397.333 151.591C394.199 153.569 391.444 156.005 389.742 157.872L388.902 158.793L389.712 159.741C389.875 159.932 390.055 160.145 390.249 160.375C391.668 162.054 393.891 164.684 396.565 166.991C399.573 169.586 403.406 172 407.569 172C411.699 172 415.861 169.616 419.2 167.039C422.591 164.422 425.39 161.404 426.83 159.751L427.663 158.794L426.801 157.864C425.031 155.954 421.894 153.517 418.434 151.556Z" fill="#4CBFCD"/>
<path d="M559.999 168.058L558.329 166.388L564.64 160.107H546.549V157.748H564.64L558.329 151.467L559.999 149.798L569.129 158.928L559.999 168.058Z" fill="#4CBFCD"/>
<path d="M493.175 168.058L491.505 166.388L497.817 160.107H479.725V157.748H497.817L491.505 151.467L493.175 149.798L502.305 158.928L493.175 168.058Z" fill="#4CBFCD"/>
<path d="M377.41 168.058L375.741 166.388L382.052 160.107H363.961V157.748H382.052L375.741 151.467L377.41 149.798L386.54 158.928L377.41 168.058Z" fill="#4CBFCD"/>
<path d="M339.311 148.273C345.576 148.273 349.498 152.818 349.498 160.045C349.498 167.273 345.576 171.802 339.311 171.802C333.046 171.802 329.124 167.273 329.124 160.045C329.124 152.818 333.046 148.273 339.311 148.273ZM339.311 150.892C334.792 150.892 331.958 154.427 331.958 160.045C331.958 165.648 334.792 169.182 339.311 169.182C343.83 169.182 346.664 165.648 346.664 160.045C346.664 154.427 343.83 150.892 339.311 150.892Z" fill="#4CBFCD"/>
<path fill-rule="evenodd" clip-rule="evenodd" d="M355.431 158.88C353.939 160.514 351.686 162.796 349.083 164.804C345.85 167.299 342.325 169.176 339.177 169.176C336.061 169.176 332.888 167.329 330.017 164.853C327.677 162.834 325.706 160.55 324.293 158.882C325.844 157.338 328.025 155.508 330.448 153.978C333.391 152.12 336.501 150.824 339.177 150.824C341.879 150.824 345.343 152.139 348.65 154.013C351.36 155.548 353.804 157.366 355.431 158.88ZM350.041 151.556C346.611 149.612 342.624 148 339.177 148C335.704 148 332.042 149.632 328.941 151.591C325.807 153.569 323.052 156.005 321.349 157.872L320.51 158.793L321.32 159.741C321.483 159.932 321.663 160.145 321.857 160.375C323.276 162.054 325.499 164.684 328.172 166.991C331.181 169.586 335.014 172 339.177 172C343.307 172 347.469 169.616 350.808 167.039C354.199 164.422 356.998 161.404 358.438 159.751L359.271 158.794L358.409 157.864C356.639 155.954 353.502 153.517 350.041 151.556Z" fill="#4CBFCD"/>
<path d="M272.488 148.273C278.753 148.273 282.674 152.818 282.674 160.045C282.674 167.273 278.753 171.802 272.488 171.802C266.222 171.802 262.301 167.273 262.301 160.045C262.301 152.818 266.222 148.273 272.488 148.273ZM272.488 150.892C267.969 150.892 265.135 154.427 265.135 160.045C265.135 165.648 267.969 169.182 272.488 169.182C277.007 169.182 279.841 165.648 279.841 160.045C279.841 154.427 277.007 150.892 272.488 150.892Z" fill="#4CBFCD"/>
<path fill-rule="evenodd" clip-rule="evenodd" d="M288.607 158.88C287.116 160.514 284.862 162.796 282.26 164.804C279.026 167.299 275.502 169.176 272.353 169.176C269.238 169.176 266.065 167.329 263.193 164.853C260.854 162.834 258.883 160.55 257.469 158.882C259.02 157.338 261.202 155.508 263.625 153.978C266.568 152.12 269.678 150.824 272.353 150.824C275.056 150.824 278.52 152.139 281.826 154.013C284.537 155.548 286.981 157.366 288.607 158.88ZM283.218 151.556C279.787 149.612 275.8 148 272.353 148C268.88 148 265.219 149.632 262.117 151.591C258.984 153.569 256.228 156.005 254.526 157.872L253.686 158.793L254.496 159.741C254.659 159.932 254.839 160.145 255.034 160.375C256.452 162.054 258.675 164.684 261.349 166.991C264.357 169.586 268.191 172 272.353 172C276.483 172 280.645 169.616 283.985 167.039C287.376 164.422 290.175 161.404 291.614 159.751L292.447 158.794L291.585 157.864C289.816 155.954 286.679 153.517 283.218 151.556Z" fill="#4CBFCD"/>
<path d="M156.723 148.273C162.988 148.273 166.91 152.818 166.91 160.045C166.91 167.273 162.988 171.802 156.723 171.802C150.458 171.802 146.536 167.273 146.536 160.045C146.536 152.818 150.458 148.273 156.723 148.273ZM156.723 150.892C152.204 150.892 149.37 154.427 149.37 160.045C149.37 165.648 152.204 169.182 156.723 169.182C161.242 169.182 164.076 165.648 164.076 160.045C164.076 154.427 161.242 150.892 156.723 150.892Z" fill="#4CBFCD"/>
<path fill-rule="evenodd" clip-rule="evenodd" d="M172.843 158.88C171.351 160.514 169.097 162.796 166.495 164.804C163.261 167.299 159.737 169.176 156.589 169.176C153.473 169.176 150.3 167.329 147.428 164.853C145.089 162.834 143.118 160.55 141.705 158.882C143.256 157.338 145.437 155.508 147.86 153.978C150.803 152.12 153.913 150.824 156.589 150.824C159.291 150.824 162.755 152.139 166.061 154.013C168.772 155.548 171.216 157.366 172.843 158.88ZM167.453 151.556C164.022 149.612 160.035 148 156.589 148C153.115 148 149.454 149.632 146.353 151.591C143.219 153.569 140.464 156.005 138.761 157.872L137.921 158.793L138.731 159.741C138.895 159.932 139.074 160.145 139.269 160.375C140.688 162.054 142.91 164.684 145.584 166.991C148.593 169.586 152.426 172 156.589 172C160.719 172 164.881 169.616 168.22 167.039C171.611 164.422 174.41 161.404 175.849 159.751L176.682 158.794L175.82 157.864C174.051 155.954 170.914 153.517 167.453 151.556Z" fill="#4CBFCD"/>
<path d="M309.018 168.058L307.349 166.388L313.66 160.107H295.569V157.748H313.66L307.349 151.467L309.018 149.798L318.148 158.928L309.018 168.058Z" fill="#4CBFCD"/>
<path d="M242.195 168.058L240.525 166.388L246.836 160.107H228.745V157.748H246.836L240.525 151.467L242.195 149.798L251.325 158.928L242.195 168.058Z" fill="#4CBFCD"/>
<path d="M126.43 168.058L124.76 166.388L131.072 160.107H112.98V157.748H131.072L124.76 151.467L126.43 149.798L135.56 158.928L126.43 168.058Z" fill="#4CBFCD"/>
<path d="M88.3307 148.273C94.596 148.273 98.5176 152.818 98.5176 160.045C98.5176 167.273 94.596 171.802 88.3307 171.802C82.0654 171.802 78.1438 167.273 78.1438 160.045C78.1438 152.818 82.0654 148.273 88.3307 148.273ZM88.3307 150.892C83.8117 150.892 80.9778 154.427 80.9778 160.045C80.9778 165.648 83.8117 169.182 88.3307 169.182C92.8497 169.182 95.6837 165.648 95.6837 160.045C95.6837 154.427 92.8497 150.892 88.3307 150.892Z" fill="#4CBFCD"/>
<path fill-rule="evenodd" clip-rule="evenodd" d="M104.45 158.88C102.959 160.514 100.705 162.796 98.1027 164.804C94.8693 167.299 91.3449 169.176 88.1965 169.176C85.0809 169.176 81.9077 167.329 79.0363 164.853C76.6967 162.834 74.7261 160.55 73.3124 158.882C74.8634 157.338 77.0449 155.508 79.468 153.978C82.4109 152.12 85.5208 150.824 88.1965 150.824C90.8989 150.824 94.363 152.139 97.6693 154.013C100.38 155.548 102.824 157.366 104.45 158.88ZM99.0611 151.556C95.6301 149.612 91.6432 148 88.1965 148C84.7232 148 81.0619 149.632 77.9604 151.591C74.8269 153.569 72.0715 156.005 70.369 157.872L69.5292 158.793L70.3391 159.741C70.5026 159.932 70.6822 160.145 70.8769 160.375C72.2954 162.054 74.5182 164.684 77.1921 166.991C80.2005 169.586 84.0338 172 88.1965 172C92.3266 172 96.4885 169.616 99.8277 167.039C103.219 164.422 106.018 161.404 107.457 159.751L108.29 158.794L107.428 157.864C105.659 155.954 102.522 153.517 99.0611 151.556Z" fill="#4CBFCD"/>
<path d="M21.5072 148.273C27.7725 148.273 31.6941 152.818 31.6941 160.045C31.6941 167.273 27.7725 171.802 21.5072 171.802C15.2419 171.802 11.3203 167.273 11.3203 160.045C11.3203 152.818 15.2419 148.273 21.5072 148.273ZM21.5072 150.892C16.9882 150.892 14.1543 154.427 14.1543 160.045C14.1543 165.648 16.9882 169.182 21.5072 169.182C26.0262 169.182 28.8601 165.648 28.8601 160.045C28.8601 154.427 26.0262 150.892 21.5072 150.892Z" fill="#4CBFCD"/>
<path fill-rule="evenodd" clip-rule="evenodd" d="M37.6269 158.88C36.1353 160.514 33.8818 162.796 31.2792 164.804C28.0458 167.299 24.5214 169.176 21.3731 169.176C18.2574 169.176 15.0842 167.329 12.2128 164.853C9.87318 162.834 7.9026 160.55 6.4889 158.882C8.03988 157.338 10.2214 155.508 12.6445 153.978C15.5874 152.12 18.6973 150.824 21.3731 150.824C24.0754 150.824 27.5395 152.139 30.8458 154.013C33.5566 155.548 36.0004 157.366 37.6269 158.88ZM32.2376 151.556C28.8066 149.612 24.8197 148 21.3731 148C17.8998 148 14.2384 149.632 11.1369 151.591C8.00341 153.569 5.24805 156.005 3.54551 157.872L2.70571 158.793L3.51562 159.741C3.67912 159.932 3.85867 160.145 4.05338 160.375C5.47194 162.054 7.6947 164.684 10.3686 166.991C13.377 169.586 17.2103 172 21.3731 172C25.5031 172 29.665 169.616 33.0042 167.039C36.3953 164.422 39.1942 161.404 40.6337 159.751L41.4667 158.794L40.6047 157.864C38.8353 155.954 35.6983 153.517 32.2376 151.556Z" fill="#4CBFCD"/>
<path d="M58.0379 168.058L56.3682 166.388L62.6794 160.107H44.5881V157.748H62.6794L56.3682 151.467L58.0379 149.798L67.1678 158.928L58.0379 168.058Z" fill="#4CBFCD"/>
<path d="M-8.78566 168.058L-10.4554 166.388L-4.14412 160.107H-22.2354V157.748H-4.14412L-10.4554 151.467L-8.78566 149.798L0.344238 158.928L-8.78566 168.058Z" fill="#4CBFCD"/>
<path d="M1448.47 110.273C1454.73 110.273 1458.65 114.818 1458.65 122.045C1458.65 129.273 1454.73 133.802 1448.47 133.802C1442.2 133.802 1438.28 129.273 1438.28 122.045C1438.28 114.818 1442.2 110.273 1448.47 110.273ZM1448.47 112.892C1443.95 112.892 1441.12 116.427 1441.12 122.045C1441.12 127.648 1443.95 131.182 1448.47 131.182C1452.99 131.182 1455.82 127.648 1455.82 122.045C1455.82 116.427 1452.99 112.892 1448.47 112.892Z" fill="#4CBFCD"/>
<path fill-rule="evenodd" clip-rule="evenodd" d="M1464.59 120.88C1463.1 122.514 1460.84 124.796 1458.24 126.804C1455.01 129.299 1451.48 131.176 1448.33 131.176C1445.22 131.176 1442.04 129.329 1439.17 126.853C1436.83 124.834 1434.86 122.55 1433.45 120.882C1435 119.338 1437.18 117.508 1439.61 115.978C1442.55 114.12 1445.66 112.824 1448.33 112.824C1451.04 112.824 1454.5 114.139 1457.81 116.013C1460.52 117.548 1462.96 119.366 1464.59 120.88ZM1459.2 113.556C1455.77 111.612 1451.78 110 1448.33 110C1444.86 110 1441.2 111.632 1438.1 113.591C1434.96 115.569 1432.21 118.005 1430.51 119.872L1429.67 120.793L1430.48 121.741C1430.64 121.932 1430.82 122.145 1431.01 122.375C1432.43 124.054 1434.66 126.684 1437.33 128.991C1440.34 131.586 1444.17 134 1448.33 134C1452.46 134 1456.63 131.616 1459.96 129.039C1463.36 126.422 1466.15 123.404 1467.59 121.751L1468.43 120.794L1467.57 119.864C1465.8 117.954 1462.66 115.517 1459.2 113.556Z" fill="#4CBFCD"/>
<path d="M1332.7 110.273C1338.97 110.273 1342.89 114.818 1342.89 122.045C1342.89 129.273 1338.97 133.802 1332.7 133.802C1326.44 133.802 1322.52 129.273 1322.52 122.045C1322.52 114.818 1326.44 110.273 1332.7 110.273ZM1332.7 112.892C1328.18 112.892 1325.35 116.427 1325.35 122.045C1325.35 127.648 1328.18 131.182 1332.7 131.182C1337.22 131.182 1340.06 127.648 1340.06 122.045C1340.06 116.427 1337.22 112.892 1332.7 112.892Z" fill="#4CBFCD"/>
<path fill-rule="evenodd" clip-rule="evenodd" d="M1348.82 120.88C1347.33 122.514 1345.08 124.796 1342.48 126.804C1339.24 129.299 1335.72 131.176 1332.57 131.176C1329.45 131.176 1326.28 129.329 1323.41 126.853C1321.07 124.834 1319.1 122.55 1317.68 120.882C1319.24 119.338 1321.42 117.508 1323.84 115.978C1326.78 114.12 1329.89 112.824 1332.57 112.824C1335.27 112.824 1338.74 114.139 1342.04 116.013C1344.75 117.548 1347.2 119.366 1348.82 120.88ZM1343.43 113.556C1340 111.612 1336.02 110 1332.57 110C1329.1 110 1325.43 111.632 1322.33 113.591C1319.2 115.569 1316.44 118.005 1314.74 119.872L1313.9 120.793L1314.71 121.741C1314.88 121.932 1315.05 122.145 1315.25 122.375C1316.67 124.054 1318.89 126.684 1321.56 128.991C1324.57 131.586 1328.41 134 1332.57 134C1336.7 134 1340.86 131.616 1344.2 129.039C1347.59 126.422 1350.39 123.404 1351.83 121.751L1352.66 120.794L1351.8 119.864C1350.03 117.954 1346.89 115.517 1343.43 113.556Z" fill="#4CBFCD"/>
<path d="M1418.18 130.058L1416.51 128.388L1422.82 122.107H1404.73V119.748H1422.82L1416.51 113.467L1418.18 111.798L1427.31 120.928L1418.18 130.058Z" fill="#4CBFCD"/>
<path d="M1302.41 130.058L1300.74 128.388L1307.05 122.107H1288.96V119.748H1307.05L1300.74 113.467L1302.41 111.798L1311.54 120.928L1302.41 130.058Z" fill="#4CBFCD"/>
<path d="M1264.31 110.273C1270.58 110.273 1274.5 114.818 1274.5 122.045C1274.5 129.273 1270.58 133.802 1264.31 133.802C1258.05 133.802 1254.12 129.273 1254.12 122.045C1254.12 114.818 1258.05 110.273 1264.31 110.273ZM1264.31 112.892C1259.79 112.892 1256.96 116.427 1256.96 122.045C1256.96 127.648 1259.79 131.182 1264.31 131.182C1268.83 131.182 1271.66 127.648 1271.66 122.045C1271.66 116.427 1268.83 112.892 1264.31 112.892Z" fill="#4CBFCD"/>
<path fill-rule="evenodd" clip-rule="evenodd" d="M1280.43 120.88C1278.94 122.514 1276.69 124.796 1274.08 126.804C1270.85 129.299 1267.33 131.176 1264.18 131.176C1261.06 131.176 1257.89 129.329 1255.02 126.853C1252.68 124.834 1250.71 122.55 1249.29 120.882C1250.84 119.338 1253.03 117.508 1255.45 115.978C1258.39 114.12 1261.5 112.824 1264.18 112.824C1266.88 112.824 1270.34 114.139 1273.65 116.013C1276.36 117.548 1278.8 119.366 1280.43 120.88ZM1275.04 113.556C1271.61 111.612 1267.62 110 1264.18 110C1260.7 110 1257.04 111.632 1253.94 113.591C1250.81 115.569 1248.05 118.005 1246.35 119.872L1245.51 120.793L1246.32 121.741C1246.48 121.932 1246.66 122.145 1246.86 122.375C1248.28 124.054 1250.5 126.684 1253.17 128.991C1256.18 131.586 1260.01 134 1264.18 134C1268.31 134 1272.47 131.616 1275.81 129.039C1279.2 126.422 1282 123.404 1283.44 121.751L1284.27 120.794L1283.41 119.864C1281.64 117.954 1278.5 115.517 1275.04 113.556Z" fill="#4CBFCD"/>
<path d="M1197.49 110.273C1203.75 110.273 1207.67 114.818 1207.67 122.045C1207.67 129.273 1203.75 133.802 1197.49 133.802C1191.22 133.802 1187.3 129.273 1187.3 122.045C1187.3 114.818 1191.22 110.273 1197.49 110.273ZM1197.49 112.892C1192.97 112.892 1190.13 116.427 1190.13 122.045C1190.13 127.648 1192.97 131.182 1197.49 131.182C1202.01 131.182 1204.84 127.648 1204.84 122.045C1204.84 116.427 1202.01 112.892 1197.49 112.892Z" fill="#4CBFCD"/>
<path fill-rule="evenodd" clip-rule="evenodd" d="M1213.61 120.88C1212.12 122.514 1209.86 124.796 1207.26 126.804C1204.03 129.299 1200.5 131.176 1197.35 131.176C1194.24 131.176 1191.06 129.329 1188.19 126.853C1185.85 124.834 1183.88 122.55 1182.47 120.882C1184.02 119.338 1186.2 117.508 1188.62 115.978C1191.57 114.12 1194.68 112.824 1197.35 112.824C1200.06 112.824 1203.52 114.139 1206.83 116.013C1209.54 117.548 1211.98 119.366 1213.61 120.88ZM1208.22 113.556C1204.79 111.612 1200.8 110 1197.35 110C1193.88 110 1190.22 111.632 1187.12 113.591C1183.98 115.569 1181.23 118.005 1179.53 119.872L1178.69 120.793L1179.5 121.741C1179.66 121.932 1179.84 122.145 1180.03 122.375C1181.45 124.054 1183.68 126.684 1186.35 128.991C1189.36 131.586 1193.19 134 1197.35 134C1201.48 134 1205.65 131.616 1208.98 129.039C1212.38 126.422 1215.17 123.404 1216.61 121.751L1217.45 120.794L1216.59 119.864C1214.82 117.954 1211.68 115.517 1208.22 113.556Z" fill="#4CBFCD"/>
<path d="M1081.72 110.273C1087.99 110.273 1091.91 114.818 1091.91 122.045C1091.91 129.273 1087.99 133.802 1081.72 133.802C1075.46 133.802 1071.54 129.273 1071.54 122.045C1071.54 114.818 1075.46 110.273 1081.72 110.273ZM1081.72 112.892C1077.2 112.892 1074.37 116.427 1074.37 122.045C1074.37 127.648 1077.2 131.182 1081.72 131.182C1086.24 131.182 1089.08 127.648 1089.08 122.045C1089.08 116.427 1086.24 112.892 1081.72 112.892Z" fill="#4CBFCD"/>
<path fill-rule="evenodd" clip-rule="evenodd" d="M1097.84 120.88C1096.35 122.514 1094.1 124.796 1091.49 126.804C1088.26 129.299 1084.74 131.176 1081.59 131.176C1078.47 131.176 1075.3 129.329 1072.43 126.853C1070.09 124.834 1068.12 122.55 1066.7 120.882C1068.26 119.338 1070.44 117.508 1072.86 115.978C1075.8 114.12 1078.91 112.824 1081.59 112.824C1084.29 112.824 1087.76 114.139 1091.06 116.013C1093.77 117.548 1096.22 119.366 1097.84 120.88ZM1092.45 113.556C1089.02 111.612 1085.04 110 1081.59 110C1078.12 110 1074.45 111.632 1071.35 113.591C1068.22 115.569 1065.46 118.005 1063.76 119.872L1062.92 120.793L1063.73 121.741C1063.89 121.932 1064.07 122.145 1064.27 122.375C1065.69 124.054 1067.91 126.684 1070.58 128.991C1073.59 131.586 1077.43 134 1081.59 134C1085.72 134 1089.88 131.616 1093.22 129.039C1096.61 126.422 1099.41 123.404 1100.85 121.751L1101.68 120.794L1100.82 119.864C1099.05 117.954 1095.91 115.517 1092.45 113.556Z" fill="#4CBFCD"/>
<path d="M1234.02 130.058L1232.35 128.388L1238.66 122.107H1220.57V119.748H1238.66L1232.35 113.467L1234.02 111.798L1243.15 120.928L1234.02 130.058Z" fill="#4CBFCD"/>
<path d="M1167.19 130.058L1165.53 128.388L1171.84 122.107H1153.75V119.748H1171.84L1165.53 113.467L1167.19 111.798L1176.32 120.928L1167.19 130.058Z" fill="#4CBFCD"/>
<path d="M1051.43 130.058L1049.76 128.388L1056.07 122.107H1037.98V119.748H1056.07L1049.76 113.467L1051.43 111.798L1060.56 120.928L1051.43 130.058Z" fill="#4CBFCD"/>
<path d="M1013.33 110.273C1019.6 110.273 1023.52 114.818 1023.52 122.045C1023.52 129.273 1019.6 133.802 1013.33 133.802C1007.07 133.802 1003.14 129.273 1003.14 122.045C1003.14 114.818 1007.07 110.273 1013.33 110.273ZM1013.33 112.892C1008.81 112.892 1005.98 116.427 1005.98 122.045C1005.98 127.648 1008.81 131.182 1013.33 131.182C1017.85 131.182 1020.68 127.648 1020.68 122.045C1020.68 116.427 1017.85 112.892 1013.33 112.892Z" fill="#4CBFCD"/>
<path fill-rule="evenodd" clip-rule="evenodd" d="M1029.45 120.88C1027.96 122.514 1025.71 124.796 1023.1 126.804C1019.87 129.299 1016.34 131.176 1013.2 131.176C1010.08 131.176 1006.91 129.329 1004.04 126.853C1001.7 124.834 999.726 122.55 998.312 120.882C999.863 119.338 1002.04 117.508 1004.47 115.978C1007.41 114.12 1010.52 112.824 1013.2 112.824C1015.9 112.824 1019.36 114.139 1022.67 116.013C1025.38 117.548 1027.82 119.366 1029.45 120.88ZM1024.06 113.556C1020.63 111.612 1016.64 110 1013.2 110C1009.72 110 1006.06 111.632 1002.96 113.591C999.827 115.569 997.072 118.005 995.369 119.872L994.529 120.793L995.339 121.741C995.503 121.932 995.682 122.145 995.877 122.375C997.295 124.054 999.518 126.684 1002.19 128.991C1005.2 131.586 1009.03 134 1013.2 134C1017.33 134 1021.49 131.616 1024.83 129.039C1028.22 126.422 1031.02 123.404 1032.46 121.751L1033.29 120.794L1032.43 119.864C1030.66 117.954 1027.52 115.517 1024.06 113.556Z" fill="#4CBFCD"/>
<path d="M946.507 110.273C952.773 110.273 956.694 114.818 956.694 122.045C956.694 129.273 952.773 133.802 946.507 133.802C940.242 133.802 936.32 129.273 936.32 122.045C936.32 114.818 940.242 110.273 946.507 110.273ZM946.507 112.892C941.988 112.892 939.154 116.427 939.154 122.045C939.154 127.648 941.988 131.182 946.507 131.182C951.026 131.182 953.86 127.648 953.86 122.045C953.86 116.427 951.026 112.892 946.507 112.892Z" fill="#4CBFCD"/>
<path fill-rule="evenodd" clip-rule="evenodd" d="M962.627 120.88C961.135 122.514 958.882 124.796 956.279 126.804C953.046 129.299 949.521 131.176 946.373 131.176C943.257 131.176 940.084 129.329 937.213 126.853C934.873 124.834 932.903 122.55 931.489 120.882C933.04 119.338 935.221 117.508 937.644 115.978C940.587 114.12 943.697 112.824 946.373 112.824C949.075 112.824 952.539 114.139 955.846 116.013C958.557 117.548 961 119.366 962.627 120.88ZM957.238 113.556C953.807 111.612 949.82 110 946.373 110C942.9 110 939.238 111.632 936.137 113.591C933.003 115.569 930.248 118.005 928.546 119.872L927.706 120.793L928.516 121.741C928.679 121.932 928.859 122.145 929.053 122.375C930.472 124.054 932.695 126.684 935.369 128.991C938.377 131.586 942.21 134 946.373 134C950.503 134 954.665 131.616 958.004 129.039C961.395 126.422 964.194 123.404 965.634 121.751L966.467 120.794L965.605 119.864C963.835 117.954 960.698 115.517 957.238 113.556Z" fill="#4CBFCD"/>
<path d="M830.742 110.273C837.008 110.273 840.929 114.818 840.929 122.045C840.929 129.273 837.008 133.802 830.742 133.802C824.477 133.802 820.556 129.273 820.556 122.045C820.556 114.818 824.477 110.273 830.742 110.273ZM830.742 112.892C826.223 112.892 823.389 116.427 823.389 122.045C823.389 127.648 826.223 131.182 830.742 131.182C835.261 131.182 838.095 127.648 838.095 122.045C838.095 116.427 835.261 112.892 830.742 112.892Z" fill="#4CBFCD"/>
<path fill-rule="evenodd" clip-rule="evenodd" d="M846.862 120.88C845.371 122.514 843.117 124.796 840.514 126.804C837.281 129.299 833.757 131.176 830.608 131.176C827.493 131.176 824.319 129.329 821.448 126.853C819.108 124.834 817.138 122.55 815.724 120.882C817.275 119.338 819.457 117.508 821.88 115.978C824.823 114.12 827.933 112.824 830.608 112.824C833.311 112.824 836.775 114.139 840.081 116.013C842.792 117.548 845.236 119.366 846.862 120.88ZM841.473 113.556C838.042 111.612 834.055 110 830.608 110C827.135 110 823.474 111.632 820.372 113.591C817.239 115.569 814.483 118.005 812.781 119.872L811.941 120.793L812.751 121.741C812.914 121.932 813.094 122.145 813.289 122.375C814.707 124.054 816.93 126.684 819.604 128.991C822.612 131.586 826.446 134 830.608 134C834.738 134 838.9 131.616 842.239 129.039C845.631 126.422 848.429 123.404 849.869 121.751L850.702 120.794L849.84 119.864C848.071 117.954 844.933 115.517 841.473 113.556Z" fill="#4CBFCD"/>
<path d="M983.038 130.058L981.368 128.388L987.679 122.107H969.588V119.748H987.679L981.368 113.467L983.038 111.798L992.168 120.928L983.038 130.058Z" fill="#4CBFCD"/>
<path d="M916.214 130.058L914.545 128.388L920.856 122.107H902.765V119.748H920.856L914.545 113.467L916.214 111.798L925.344 120.928L916.214 130.058Z" fill="#4CBFCD"/>
<path d="M800.45 130.058L798.78 128.388L805.091 122.107H787V119.748H805.091L798.78 113.467L800.45 111.798L809.58 120.928L800.45 130.058Z" fill="#4CBFCD"/>
<path fill-rule="evenodd" clip-rule="evenodd" d="M1118.41 112.16H1138.09V131.84H1118.41V112.16ZM1140.25 110V134H1116.25V110H1140.25Z" fill="#4CBFCD"/>
<path fill-rule="evenodd" clip-rule="evenodd" d="M860.891 112.16H880.571V131.84H860.891V112.16ZM882.731 110V134H858.731V110H882.731Z" fill="#4CBFCD"/>
<path fill-rule="evenodd" clip-rule="evenodd" d="M734.411 112.16H754.091V131.84H734.411V112.16ZM756.251 110V134H732.251V110H756.251Z" fill="#4CBFCD"/>
<path fill-rule="evenodd" clip-rule="evenodd" d="M712.571 112.16H732.251V131.84H712.571V112.16ZM734.411 110V134H710.411V110H734.411Z" fill="#4CBFCD"/>
<path fill-rule="evenodd" clip-rule="evenodd" d="M690.731 112.16H710.411V131.84H690.731V112.16ZM712.571 110V134H688.571V110H712.571Z" fill="#4CBFCD"/>
<path fill-rule="evenodd" clip-rule="evenodd" d="M668.891 112.16H688.571V131.84H668.891V112.16ZM690.731 110V134H666.731V110H690.731Z" fill="#4CBFCD"/>
<path fill-rule="evenodd" clip-rule="evenodd" d="M132.168 257.863H110.516V238.162H132.168V257.863ZM108.14 260.025V236H134.544V260.025H108.14Z" fill="#4CBFCD"/>
<path fill-rule="evenodd" clip-rule="evenodd" d="M12.0279 257.863H-9.62361V238.162H12.0279V257.863ZM-12 260.025V236H14.4043V260.025H-12Z" fill="#4CBFCD"/>
<path fill-rule="evenodd" clip-rule="evenodd" d="M156.195 257.863H134.544V238.162H156.195V257.863ZM132.167 260.025V236H158.572V260.025H132.167Z" fill="#4CBFCD"/>
<path fill-rule="evenodd" clip-rule="evenodd" d="M36.0559 257.863H14.4043V238.162H36.0559V257.863ZM12.028 260.025V236H38.4323V260.025H12.028Z" fill="#4CBFCD"/>
<path fill-rule="evenodd" clip-rule="evenodd" d="M180.223 257.863H158.572V238.162H180.223V257.863ZM156.195 260.025V236H182.6V260.025H156.195Z" fill="#4CBFCD"/>
<path fill-rule="evenodd" clip-rule="evenodd" d="M60.0838 257.863H38.4323V238.162H60.0838V257.863ZM36.0559 260.025V236H62.4602V260.025H36.0559Z" fill="#4CBFCD"/>
<path fill-rule="evenodd" clip-rule="evenodd" d="M84.1117 257.863H62.4601V238.162H84.1117V257.863ZM60.0837 260.025V236H86.488V260.025H60.0837Z" fill="#4CBFCD"/>
<path fill-rule="evenodd" clip-rule="evenodd" d="M108.139 257.863H86.488V238.162H108.139V257.863ZM84.1116 260.025V236H110.516V260.025H84.1116Z" fill="#4CBFCD"/>
<path fill-rule="evenodd" clip-rule="evenodd" d="M324.368 257.863H302.716V238.162H324.368V257.863ZM300.34 260.025V236H326.744V260.025H300.34Z" fill="#4CBFCD"/>
<path fill-rule="evenodd" clip-rule="evenodd" d="M204.228 257.863H182.577V238.162H204.228V257.863ZM180.2 260.025V236H206.604V260.025H180.2Z" fill="#4CBFCD"/>
<path fill-rule="evenodd" clip-rule="evenodd" d="M348.396 257.863H326.744V238.162H348.396V257.863ZM324.368 260.025V236H350.772V260.025H324.368Z" fill="#4CBFCD"/>
<path fill-rule="evenodd" clip-rule="evenodd" d="M228.256 257.863H206.604V238.162H228.256V257.863ZM204.228 260.025V236H230.632V260.025H204.228Z" fill="#4CBFCD"/>
<path fill-rule="evenodd" clip-rule="evenodd" d="M372.423 257.863H350.772V238.162H372.423V257.863ZM348.396 260.025V236H374.8V260.025H348.396Z" fill="#4CBFCD"/>
<path fill-rule="evenodd" clip-rule="evenodd" d="M252.284 257.863H230.632V238.162H252.284V257.863ZM228.256 260.025V236H254.66V260.025H228.256Z" fill="#4CBFCD"/>
<path fill-rule="evenodd" clip-rule="evenodd" d="M276.312 257.863H254.66V238.162H276.312V257.863ZM252.284 260.025V236H278.688V260.025H252.284Z" fill="#4CBFCD"/>
<path fill-rule="evenodd" clip-rule="evenodd" d="M300.34 257.863H278.688V238.162H300.34V257.863ZM276.312 260.025V236H302.716V260.025H276.312Z" fill="#4CBFCD"/>
<path fill-rule="evenodd" clip-rule="evenodd" d="M516.568 257.863H494.916V238.162H516.568V257.863ZM492.54 260.025V236H518.944V260.025H492.54Z" fill="#4CBFCD"/>
<path fill-rule="evenodd" clip-rule="evenodd" d="M396.428 257.863H374.777V238.162H396.428V257.863ZM372.4 260.025V236H398.805V260.025H372.4Z" fill="#4CBFCD"/>
<path fill-rule="evenodd" clip-rule="evenodd" d="M540.596 257.863H518.944V238.162H540.596V257.863ZM516.568 260.025V236H542.972V260.025H516.568Z" fill="#4CBFCD"/>
<path fill-rule="evenodd" clip-rule="evenodd" d="M420.456 257.863H398.805V238.162H420.456V257.863ZM396.428 260.025V236H422.833V260.025H396.428Z" fill="#4CBFCD"/>
<path fill-rule="evenodd" clip-rule="evenodd" d="M564.624 257.863H542.972V238.162H564.624V257.863ZM540.596 260.025V236H567V260.025H540.596Z" fill="#4CBFCD"/>
<path fill-rule="evenodd" clip-rule="evenodd" d="M444.484 257.863H422.833V238.162H444.484V257.863ZM420.456 260.025V236H446.86V260.025H420.456Z" fill="#4CBFCD"/>
<path fill-rule="evenodd" clip-rule="evenodd" d="M468.512 257.863H446.86V238.162H468.512V257.863ZM444.484 260.025V236H470.888V260.025H444.484Z" fill="#4CBFCD"/>
<path fill-rule="evenodd" clip-rule="evenodd" d="M492.54 257.863H470.888V238.162H492.54V257.863ZM468.512 260.025V236H494.916V260.025H468.512Z" fill="#4CBFCD"/>
<path fill-rule="evenodd" clip-rule="evenodd" d="M992.167 219.863H970.516V200.162H992.167V219.863ZM968.139 222.025V198H994.543V222.025H968.139Z" fill="#4CBFCD"/>
<path fill-rule="evenodd" clip-rule="evenodd" d="M872.027 219.863H850.376V200.162H872.027V219.863ZM848 222.025V198H874.404V222.025H848Z" fill="#4CBFCD"/>
<path fill-rule="evenodd" clip-rule="evenodd" d="M1016.19 219.863H994.543V200.162H1016.19V219.863ZM992.167 222.025V198H1018.57V222.025H992.167Z" fill="#4CBFCD"/>
<path fill-rule="evenodd" clip-rule="evenodd" d="M896.055 219.863H874.404V200.162H896.055V219.863ZM872.027 222.025V198H898.432V222.025H872.027Z" fill="#4CBFCD"/>
<path fill-rule="evenodd" clip-rule="evenodd" d="M1040.22 219.863H1018.57V200.162H1040.22V219.863ZM1016.19 222.025V198H1042.6V222.025H1016.19Z" fill="#4CBFCD"/>
<path fill-rule="evenodd" clip-rule="evenodd" d="M920.083 219.863H898.432V200.162H920.083V219.863ZM896.055 222.025V198H922.46V222.025H896.055Z" fill="#4CBFCD"/>
<path fill-rule="evenodd" clip-rule="evenodd" d="M944.111 219.863H922.46V200.162H944.111V219.863ZM920.083 222.025V198H946.488V222.025H920.083Z" fill="#4CBFCD"/>
<path fill-rule="evenodd" clip-rule="evenodd" d="M968.139 219.863H946.487V200.162H968.139V219.863ZM944.111 222.025V198H970.515V222.025H944.111Z" fill="#4CBFCD"/>
<path fill-rule="evenodd" clip-rule="evenodd" d="M1184.37 219.863H1162.72V200.162H1184.37V219.863ZM1160.34 222.025V198H1186.74V222.025H1160.34Z" fill="#4CBFCD"/>
<path fill-rule="evenodd" clip-rule="evenodd" d="M1112.28 219.863H1090.63V200.162H1112.28V219.863ZM1088.26 222.025V198H1114.66V222.025H1088.26Z" fill="#4CBFCD"/>
<path fill-rule="evenodd" clip-rule="evenodd" d="M1136.31 219.863H1114.66V200.162H1136.31V219.863ZM1112.28 222.025V198H1138.69V222.025H1112.28Z" fill="#4CBFCD"/>
<path fill-rule="evenodd" clip-rule="evenodd" d="M1160.34 219.863H1138.69V200.162H1160.34V219.863ZM1136.31 222.025V198H1162.72V222.025H1136.31Z" fill="#4CBFCD"/>
<path fill-rule="evenodd" clip-rule="evenodd" d="M1376.57 219.863H1354.92V200.162H1376.57V219.863ZM1352.54 222.025V198H1378.94V222.025H1352.54Z" fill="#4CBFCD"/>
<path fill-rule="evenodd" clip-rule="evenodd" d="M1256.43 219.863H1234.78V200.162H1256.43V219.863ZM1232.4 222.025V198H1258.8V222.025H1232.4Z" fill="#4CBFCD"/>
<path fill-rule="evenodd" clip-rule="evenodd" d="M1400.6 219.863H1378.94V200.162H1400.6V219.863ZM1376.57 222.025V198H1402.97V222.025H1376.57Z" fill="#4CBFCD"/>
<path fill-rule="evenodd" clip-rule="evenodd" d="M1280.46 219.863H1258.8V200.162H1280.46V219.863ZM1256.43 222.025V198H1282.83V222.025H1256.43Z" fill="#4CBFCD"/>
<path fill-rule="evenodd" clip-rule="evenodd" d="M1352.54 219.863H1330.89V200.162H1352.54V219.863ZM1328.51 222.025V198H1354.92V222.025H1328.51Z" fill="#4CBFCD"/>
<path d="M849.959 236.273C843.694 236.273 839.772 240.818 839.772 248.045C839.772 255.273 843.694 259.802 849.959 259.802C856.224 259.802 860.146 255.273 860.146 248.045C860.146 240.818 856.224 236.273 849.959 236.273ZM849.959 238.892C854.478 238.892 857.312 242.427 857.312 248.045C857.312 253.648 854.478 257.182 849.959 257.182C845.44 257.182 842.606 253.648 842.606 248.045C842.606 242.427 845.44 238.892 849.959 238.892Z" fill="#4CBFCD"/>
<path fill-rule="evenodd" clip-rule="evenodd" d="M833.839 246.88C835.331 248.514 837.584 250.796 840.187 252.804C843.42 255.299 846.945 257.176 850.093 257.176C853.209 257.176 856.382 255.329 859.253 252.853C861.593 250.834 863.564 248.55 864.977 246.882C863.426 245.338 861.245 243.508 858.822 241.978C855.879 240.12 852.769 238.824 850.093 238.824C847.391 238.824 843.927 240.139 840.62 242.013C837.91 243.548 835.466 245.366 833.839 246.88ZM839.229 239.556C842.66 237.612 846.646 236 850.093 236C853.566 236 857.228 237.632 860.329 239.591C863.463 241.569 866.218 244.005 867.921 245.872L868.76 246.793L867.951 247.741C867.787 247.932 867.608 248.145 867.413 248.375C865.994 250.054 863.771 252.684 861.098 254.991C858.089 257.586 854.256 260 850.093 260C845.963 260 841.801 257.616 838.462 255.039C835.071 252.422 832.272 249.404 830.832 247.751L830 246.794L830.861 245.864C832.631 243.954 835.768 241.517 839.229 239.556Z" fill="#4CBFCD"/>
<path d="M916.782 236.273C910.517 236.273 906.596 240.818 906.596 248.045C906.596 255.273 910.517 259.802 916.782 259.802C923.048 259.802 926.969 255.273 926.969 248.045C926.969 240.818 923.048 236.273 916.782 236.273ZM916.782 238.892C921.301 238.892 924.135 242.427 924.135 248.045C924.135 253.648 921.301 257.182 916.782 257.182C912.263 257.182 909.43 253.648 909.43 248.045C909.43 242.427 912.263 238.892 916.782 238.892Z" fill="#4CBFCD"/>
<path fill-rule="evenodd" clip-rule="evenodd" d="M900.663 246.88C902.154 248.514 904.408 250.796 907.01 252.804C910.244 255.299 913.768 257.176 916.917 257.176C920.032 257.176 923.206 255.329 926.077 252.853C928.416 250.834 930.387 248.55 931.801 246.882C930.25 245.338 928.068 243.508 925.645 241.978C922.702 240.12 919.592 238.824 916.917 238.824C914.214 238.824 910.75 240.139 907.444 242.013C904.733 243.548 902.289 245.366 900.663 246.88ZM906.052 239.556C909.483 237.612 913.47 236 916.917 236C920.39 236 924.051 237.632 927.153 239.591C930.286 241.569 933.042 244.005 934.744 245.872L935.584 246.793L934.774 247.741C934.611 247.932 934.431 248.145 934.236 248.375C932.818 250.054 930.595 252.684 927.921 254.991C924.913 257.586 921.079 260 916.917 260C912.787 260 908.625 257.616 905.286 255.039C901.894 252.422 899.095 249.404 897.656 247.751L896.823 246.794L897.685 245.864C899.454 243.954 902.591 241.517 906.052 239.556Z" fill="#4CBFCD"/>
<path d="M1032.55 236.273C1026.28 236.273 1022.36 240.818 1022.36 248.045C1022.36 255.273 1026.28 259.802 1032.55 259.802C1038.81 259.802 1042.73 255.273 1042.73 248.045C1042.73 240.818 1038.81 236.273 1032.55 236.273ZM1032.55 238.892C1037.07 238.892 1039.9 242.427 1039.9 248.045C1039.9 253.648 1037.07 257.182 1032.55 257.182C1028.03 257.182 1025.19 253.648 1025.19 248.045C1025.19 242.427 1028.03 238.892 1032.55 238.892Z" fill="#4CBFCD"/>
<path fill-rule="evenodd" clip-rule="evenodd" d="M1016.43 246.88C1017.92 248.514 1020.17 250.796 1022.78 252.804C1026.01 255.299 1029.53 257.176 1032.68 257.176C1035.8 257.176 1038.97 255.329 1041.84 252.853C1044.18 250.834 1046.15 248.55 1047.57 246.882C1046.01 245.338 1043.83 243.508 1041.41 241.978C1038.47 240.12 1035.36 238.824 1032.68 238.824C1029.98 238.824 1026.51 240.139 1023.21 242.013C1020.5 243.548 1018.05 245.366 1016.43 246.88ZM1021.82 239.556C1025.25 237.612 1029.23 236 1032.68 236C1036.15 236 1039.82 237.632 1042.92 239.591C1046.05 241.569 1048.81 244.005 1050.51 245.872L1051.35 246.793L1050.54 247.741C1050.38 247.932 1050.2 248.145 1050 248.375C1048.58 250.054 1046.36 252.684 1043.69 254.991C1040.68 257.586 1036.84 260 1032.68 260C1028.55 260 1024.39 257.616 1021.05 255.039C1017.66 252.422 1014.86 249.404 1013.42 247.751L1012.59 246.794L1013.45 245.864C1015.22 243.954 1018.36 241.517 1021.82 239.556Z" fill="#4CBFCD"/>
<path d="M880.252 256.058L881.922 254.388L875.61 248.107H893.702V245.748H875.61L881.922 239.467L880.252 237.798L871.122 246.928L880.252 256.058Z" fill="#4CBFCD"/>
<path d="M947.075 256.058L948.745 254.388L942.434 248.107H960.525V245.748H942.434L948.745 239.467L947.075 237.798L937.945 246.928L947.075 256.058Z" fill="#4CBFCD"/>
<path d="M1062.84 256.058L1064.51 254.388L1058.2 248.107H1076.29V245.748H1058.2L1064.51 239.467L1062.84 237.798L1053.71 246.928L1062.84 256.058Z" fill="#4CBFCD"/>
<path d="M1100.94 236.273C1094.67 236.273 1090.75 240.818 1090.75 248.045C1090.75 255.273 1094.67 259.802 1100.94 259.802C1107.2 259.802 1111.13 255.273 1111.13 248.045C1111.13 240.818 1107.2 236.273 1100.94 236.273ZM1100.94 238.892C1105.46 238.892 1108.29 242.427 1108.29 248.045C1108.29 253.648 1105.46 257.182 1100.94 257.182C1096.42 257.182 1093.59 253.648 1093.59 248.045C1093.59 242.427 1096.42 238.892 1100.94 238.892Z" fill="#4CBFCD"/>
<path fill-rule="evenodd" clip-rule="evenodd" d="M1084.82 246.88C1086.31 248.514 1088.56 250.796 1091.17 252.804C1094.4 255.299 1097.93 257.176 1101.07 257.176C1104.19 257.176 1107.36 255.329 1110.23 252.853C1112.57 250.834 1114.54 248.55 1115.96 246.882C1114.41 245.338 1112.23 243.508 1109.8 241.978C1106.86 240.12 1103.75 238.824 1101.07 238.824C1098.37 238.824 1094.91 240.139 1091.6 242.013C1088.89 243.548 1086.45 245.366 1084.82 246.88ZM1090.21 239.556C1093.64 237.612 1097.63 236 1101.07 236C1104.55 236 1108.21 237.632 1111.31 239.591C1114.44 241.569 1117.2 244.005 1118.9 245.872L1119.74 246.793L1118.93 247.741C1118.77 247.932 1118.59 248.145 1118.39 248.375C1116.97 250.054 1114.75 252.684 1112.08 254.991C1109.07 257.586 1105.24 260 1101.07 260C1096.94 260 1092.78 257.616 1089.44 255.039C1086.05 252.422 1083.25 249.404 1081.81 247.751L1080.98 246.794L1081.84 245.864C1083.61 243.954 1086.75 241.517 1090.21 239.556Z" fill="#4CBFCD"/>
<path d="M1167.76 236.273C1161.5 236.273 1157.58 240.818 1157.58 248.045C1157.58 255.273 1161.5 259.802 1167.76 259.802C1174.03 259.802 1177.95 255.273 1177.95 248.045C1177.95 240.818 1174.03 236.273 1167.76 236.273ZM1167.76 238.892C1172.28 238.892 1175.12 242.427 1175.12 248.045C1175.12 253.648 1172.28 257.182 1167.76 257.182C1163.24 257.182 1160.41 253.648 1160.41 248.045C1160.41 242.427 1163.24 238.892 1167.76 238.892Z" fill="#4CBFCD"/>
<path fill-rule="evenodd" clip-rule="evenodd" d="M1151.64 246.88C1153.13 248.514 1155.39 250.796 1157.99 252.804C1161.22 255.299 1164.75 257.176 1167.9 257.176C1171.01 257.176 1174.19 255.329 1177.06 252.853C1179.4 250.834 1181.37 248.55 1182.78 246.882C1181.23 245.338 1179.05 243.508 1176.63 241.978C1173.68 240.12 1170.57 238.824 1167.9 238.824C1165.19 238.824 1161.73 240.139 1158.42 242.013C1155.71 243.548 1153.27 245.366 1151.64 246.88ZM1157.03 239.556C1160.46 237.612 1164.45 236 1167.9 236C1171.37 236 1175.03 237.632 1178.13 239.591C1181.27 241.569 1184.02 244.005 1185.72 245.872L1186.56 246.793L1185.75 247.741C1185.59 247.932 1185.41 248.145 1185.22 248.375C1183.8 250.054 1181.58 252.684 1178.9 254.991C1175.89 257.586 1172.06 260 1167.9 260C1163.77 260 1159.61 257.616 1156.27 255.039C1152.87 252.422 1150.08 249.404 1148.64 247.751L1147.8 246.794L1148.67 245.864C1150.43 243.954 1153.57 241.517 1157.03 239.556Z" fill="#4CBFCD"/>
<path d="M1283.53 236.273C1277.26 236.273 1273.34 240.818 1273.34 248.045C1273.34 255.273 1277.26 259.802 1283.53 259.802C1289.79 259.802 1293.71 255.273 1293.71 248.045C1293.71 240.818 1289.79 236.273 1283.53 236.273ZM1283.53 238.892C1288.05 238.892 1290.88 242.427 1290.88 248.045C1290.88 253.648 1288.05 257.182 1283.53 257.182C1279.01 257.182 1276.17 253.648 1276.17 248.045C1276.17 242.427 1279.01 238.892 1283.53 238.892Z" fill="#4CBFCD"/>
<path fill-rule="evenodd" clip-rule="evenodd" d="M1267.41 246.88C1268.9 248.514 1271.15 250.796 1273.76 252.804C1276.99 255.299 1280.51 257.176 1283.66 257.176C1286.78 257.176 1289.95 255.329 1292.82 252.853C1295.16 250.834 1297.13 248.55 1298.55 246.882C1296.99 245.338 1294.81 243.508 1292.39 241.978C1289.45 240.12 1286.34 238.824 1283.66 238.824C1280.96 238.824 1277.5 240.139 1274.19 242.013C1271.48 243.548 1269.03 245.366 1267.41 246.88ZM1272.8 239.556C1276.23 237.612 1280.22 236 1283.66 236C1287.14 236 1290.8 237.632 1293.9 239.591C1297.03 241.569 1299.79 244.005 1301.49 245.872L1302.33 246.793L1301.52 247.741C1301.36 247.932 1301.18 248.145 1300.98 248.375C1299.56 250.054 1297.34 252.684 1294.67 254.991C1291.66 257.586 1287.82 260 1283.66 260C1279.53 260 1275.37 257.616 1272.03 255.039C1268.64 252.422 1265.84 249.404 1264.4 247.751L1263.57 246.794L1264.43 245.864C1266.2 243.954 1269.34 241.517 1272.8 239.556Z" fill="#4CBFCD"/>
<path d="M1131.23 256.058L1132.9 254.388L1126.59 248.107H1144.68V245.748H1126.59L1132.9 239.467L1131.23 237.798L1122.1 246.928L1131.23 256.058Z" fill="#4CBFCD"/>
<path d="M1198.06 256.058L1199.73 254.388L1193.41 248.107H1211.51V245.748H1193.41L1199.73 239.467L1198.06 237.798L1188.93 246.928L1198.06 256.058Z" fill="#4CBFCD"/>
<path d="M1313.82 256.058L1315.49 254.388L1309.18 248.107H1327.27V245.748H1309.18L1315.49 239.467L1313.82 237.798L1304.69 246.928L1313.82 256.058Z" fill="#4CBFCD"/>
<path d="M1351.92 236.273C1345.65 236.273 1341.73 240.818 1341.73 248.045C1341.73 255.273 1345.65 259.802 1351.92 259.802C1358.19 259.802 1362.11 255.273 1362.11 248.045C1362.11 240.818 1358.19 236.273 1351.92 236.273ZM1351.92 238.892C1356.44 238.892 1359.27 242.427 1359.27 248.045C1359.27 253.648 1356.44 257.182 1351.92 257.182C1347.4 257.182 1344.57 253.648 1344.57 248.045C1344.57 242.427 1347.4 238.892 1351.92 238.892Z" fill="#4CBFCD"/>
<path fill-rule="evenodd" clip-rule="evenodd" d="M1335.8 246.88C1337.29 248.514 1339.55 250.796 1342.15 252.804C1345.38 255.299 1348.91 257.176 1352.05 257.176C1355.17 257.176 1358.34 255.329 1361.21 252.853C1363.55 250.834 1365.52 248.55 1366.94 246.882C1365.39 245.338 1363.21 243.508 1360.78 241.978C1357.84 240.12 1354.73 238.824 1352.05 238.824C1349.35 238.824 1345.89 240.139 1342.58 242.013C1339.87 243.548 1337.43 245.366 1335.8 246.88ZM1341.19 239.556C1344.62 237.612 1348.61 236 1352.05 236C1355.53 236 1359.19 237.632 1362.29 239.591C1365.42 241.569 1368.18 244.005 1369.88 245.872L1370.72 246.793L1369.91 247.741C1369.75 247.932 1369.57 248.145 1369.37 248.375C1367.96 250.054 1365.73 252.684 1363.06 254.991C1360.05 257.586 1356.22 260 1352.05 260C1347.92 260 1343.76 257.616 1340.42 255.039C1337.03 252.422 1334.23 249.404 1332.79 247.751L1331.96 246.794L1332.82 245.864C1334.59 243.954 1337.73 241.517 1341.19 239.556Z" fill="#4CBFCD"/>
<path d="M1418.74 236.273C1412.48 236.273 1408.56 240.818 1408.56 248.045C1408.56 255.273 1412.48 259.802 1418.74 259.802C1425.01 259.802 1428.93 255.273 1428.93 248.045C1428.93 240.818 1425.01 236.273 1418.74 236.273ZM1418.74 238.892C1423.26 238.892 1426.1 242.427 1426.1 248.045C1426.1 253.648 1423.26 257.182 1418.74 257.182C1414.22 257.182 1411.39 253.648 1411.39 248.045C1411.39 242.427 1414.22 238.892 1418.74 238.892Z" fill="#4CBFCD"/>
<path fill-rule="evenodd" clip-rule="evenodd" d="M1402.62 246.88C1404.12 248.514 1406.37 250.796 1408.97 252.804C1412.2 255.299 1415.73 257.176 1418.88 257.176C1421.99 257.176 1425.17 255.329 1428.04 252.853C1430.38 250.834 1432.35 248.55 1433.76 246.882C1432.21 245.338 1430.03 243.508 1427.61 241.978C1424.66 240.12 1421.55 238.824 1418.88 238.824C1416.18 238.824 1412.71 240.139 1409.4 242.013C1406.69 243.548 1404.25 245.366 1402.62 246.88ZM1408.01 239.556C1411.44 237.612 1415.43 236 1418.88 236C1422.35 236 1426.01 237.632 1429.11 239.591C1432.25 241.569 1435 244.005 1436.7 245.872L1437.54 246.793L1436.73 247.741C1436.57 247.932 1436.39 248.145 1436.2 248.375C1434.78 250.054 1432.56 252.684 1429.88 254.991C1426.87 257.586 1423.04 260 1418.88 260C1414.75 260 1410.59 257.616 1407.25 255.039C1403.86 252.422 1401.06 249.404 1399.62 247.751L1398.78 246.794L1399.65 245.864C1401.42 243.954 1404.55 241.517 1408.01 239.556Z" fill="#4CBFCD"/>
<path d="M1382.21 256.058L1383.88 254.388L1377.57 248.107H1395.66V245.748H1377.57L1383.88 239.467L1382.21 237.798L1373.08 246.928L1382.21 256.058Z" fill="#4CBFCD"/>
<path d="M1449.04 256.058L1450.71 254.388L1444.39 248.107H1462.49V245.748H1444.39L1450.71 239.467L1449.04 237.798L1439.91 246.928L1449.04 256.058Z" fill="#4CBFCD"/>
<path d="M60.5477 198.273C54.2824 198.273 50.3608 202.818 50.3608 210.045C50.3608 217.273 54.2824 221.802 60.5477 221.802C66.813 221.802 70.7346 217.273 70.7346 210.045C70.7346 202.818 66.813 198.273 60.5477 198.273ZM60.5477 200.892C65.0667 200.892 67.9006 204.427 67.9006 210.045C67.9006 215.648 65.0667 219.182 60.5477 219.182C56.0287 219.182 53.1948 215.648 53.1948 210.045C53.1948 204.427 56.0287 200.892 60.5477 200.892Z" fill="#4CBFCD"/>
<path fill-rule="evenodd" clip-rule="evenodd" d="M44.428 208.88C45.9196 210.514 48.1732 212.796 50.7757 214.804C54.0091 217.299 57.5335 219.176 60.6819 219.176C63.7975 219.176 66.9708 217.329 69.8421 214.853C72.1817 212.834 74.1523 210.55 75.566 208.882C74.0151 207.338 71.8335 205.508 69.4104 203.978C66.4675 202.12 63.3576 200.824 60.6819 200.824C57.9795 200.824 54.5154 202.139 51.2092 204.013C48.4984 205.548 46.0546 207.366 44.428 208.88ZM49.8173 201.556C53.2483 199.612 57.2352 198 60.6819 198C64.1552 198 67.8165 199.632 70.918 201.591C74.0515 203.569 76.8069 206.005 78.5094 207.872L79.3492 208.793L78.5393 209.741C78.3758 209.932 78.1963 210.145 78.0015 210.375C76.583 212.054 74.3602 214.684 71.6864 216.991C68.678 219.586 64.8447 222 60.6819 222C56.5518 222 52.39 219.616 49.0508 217.039C45.6596 214.422 42.8608 211.404 41.4212 209.751L40.5883 208.794L41.4502 207.864C43.2196 205.954 46.3567 203.517 49.8173 201.556Z" fill="#4CBFCD"/>
<path d="M90.8405 218.058L92.5103 216.388L86.199 210.107H104.29V207.748H86.199L92.5103 201.467L90.8405 199.798L81.7106 208.928L90.8405 218.058Z" fill="#4CBFCD"/>
<path d="M128.94 198.273C122.675 198.273 118.753 202.818 118.753 210.045C118.753 217.273 122.675 221.802 128.94 221.802C135.205 221.802 139.127 217.273 139.127 210.045C139.127 202.818 135.205 198.273 128.94 198.273ZM128.94 200.892C133.459 200.892 136.293 204.427 136.293 210.045C136.293 215.648 133.459 219.182 128.94 219.182C124.421 219.182 121.587 215.648 121.587 210.045C121.587 204.427 124.421 200.892 128.94 200.892Z" fill="#4CBFCD"/>
<path fill-rule="evenodd" clip-rule="evenodd" d="M112.82 208.88C114.312 210.514 116.565 212.796 119.168 214.804C122.401 217.299 125.926 219.176 129.074 219.176C132.19 219.176 135.363 217.329 138.234 214.853C140.574 212.834 142.544 210.55 143.958 208.882C142.407 207.338 140.226 205.508 137.803 203.978C134.86 202.12 131.75 200.824 129.074 200.824C126.372 200.824 122.908 202.139 119.601 204.013C116.891 205.548 114.447 207.366 112.82 208.88ZM118.209 201.556C121.64 199.612 125.627 198 129.074 198C132.547 198 136.209 199.632 139.31 201.591C142.444 203.569 145.199 206.005 146.902 207.872L147.741 208.793L146.931 209.741C146.768 209.932 146.588 210.145 146.394 210.375C144.975 212.054 142.752 214.684 140.079 216.991C137.07 219.586 133.237 222 129.074 222C124.944 222 120.782 219.616 117.443 217.039C114.052 214.422 111.253 211.404 109.813 209.751L108.98 208.794L109.842 207.864C111.612 205.954 114.749 203.517 118.209 201.556Z" fill="#4CBFCD"/>
<path d="M195.763 198.273C189.498 198.273 185.576 202.818 185.576 210.045C185.576 217.273 189.498 221.802 195.763 221.802C202.029 221.802 205.95 217.273 205.95 210.045C205.95 202.818 202.029 198.273 195.763 198.273ZM195.763 200.892C200.282 200.892 203.116 204.427 203.116 210.045C203.116 215.648 200.282 219.182 195.763 219.182C191.244 219.182 188.41 215.648 188.41 210.045C188.41 204.427 191.244 200.892 195.763 200.892Z" fill="#4CBFCD"/>
<path fill-rule="evenodd" clip-rule="evenodd" d="M179.644 208.88C181.135 210.514 183.389 212.796 185.991 214.804C189.225 217.299 192.749 219.176 195.898 219.176C199.013 219.176 202.186 217.329 205.058 214.853C207.397 212.834 209.368 210.55 210.782 208.882C209.231 207.338 207.049 205.508 204.626 203.978C201.683 202.12 198.573 200.824 195.898 200.824C193.195 200.824 189.731 202.139 186.425 204.013C183.714 205.548 181.27 207.366 179.644 208.88ZM185.033 201.556C188.464 199.612 192.451 198 195.898 198C199.371 198 203.032 199.632 206.134 201.591C209.267 203.569 212.023 206.005 213.725 207.872L214.565 208.793L213.755 209.741C213.592 209.932 213.412 210.145 213.217 210.375C211.799 212.054 209.576 214.684 206.902 216.991C203.894 219.586 200.06 222 195.898 222C191.767 222 187.606 219.616 184.266 217.039C180.875 214.422 178.076 211.404 176.637 209.751L175.804 208.794L176.666 207.864C178.435 205.954 181.572 203.517 185.033 201.556Z" fill="#4CBFCD"/>
<path d="M311.528 198.273C305.263 198.273 301.341 202.818 301.341 210.045C301.341 217.273 305.263 221.802 311.528 221.802C317.793 221.802 321.715 217.273 321.715 210.045C321.715 202.818 317.793 198.273 311.528 198.273ZM311.528 200.892C316.047 200.892 318.881 204.427 318.881 210.045C318.881 215.648 316.047 219.182 311.528 219.182C307.009 219.182 304.175 215.648 304.175 210.045C304.175 204.427 307.009 200.892 311.528 200.892Z" fill="#4CBFCD"/>
<path fill-rule="evenodd" clip-rule="evenodd" d="M295.408 208.88C296.9 210.514 299.154 212.796 301.756 214.804C304.989 217.299 308.514 219.176 311.662 219.176C314.778 219.176 317.951 217.329 320.823 214.853C323.162 212.834 325.133 210.55 326.546 208.882C324.995 207.338 322.814 205.508 320.391 203.978C317.448 202.12 314.338 200.824 311.662 200.824C308.96 200.824 305.496 202.139 302.19 204.013C299.479 205.548 297.035 207.366 295.408 208.88ZM300.798 201.556C304.229 199.612 308.216 198 311.662 198C315.136 198 318.797 199.632 321.898 201.591C325.032 203.569 327.787 206.005 329.49 207.872L330.33 208.793L329.52 209.741C329.356 209.932 329.177 210.145 328.982 210.375C327.563 212.054 325.341 214.684 322.667 216.991C319.658 219.586 315.825 222 311.662 222C307.532 222 303.37 219.616 300.031 217.039C296.64 214.422 293.841 211.404 292.402 209.751L291.569 208.794L292.431 207.864C294.2 205.954 297.337 203.517 300.798 201.556Z" fill="#4CBFCD"/>
<path d="M159.233 218.058L160.902 216.388L154.591 210.107H172.682V207.748H154.591L160.902 201.467L159.233 199.798L150.103 208.928L159.233 218.058Z" fill="#4CBFCD"/>
<path d="M226.056 218.058L227.726 216.388L221.415 210.107H239.506V207.748H221.415L227.726 201.467L226.056 199.798L216.926 208.928L226.056 218.058Z" fill="#4CBFCD"/>
<path d="M341.821 218.058L343.491 216.388L337.179 210.107H355.271V207.748H337.179L343.491 201.467L341.821 199.798L332.691 208.928L341.821 218.058Z" fill="#4CBFCD"/>
<path d="M379.92 198.273C373.655 198.273 369.733 202.818 369.733 210.045C369.733 217.273 373.655 221.802 379.92 221.802C386.186 221.802 390.107 217.273 390.107 210.045C390.107 202.818 386.186 198.273 379.92 198.273ZM379.92 200.892C384.439 200.892 387.273 204.427 387.273 210.045C387.273 215.648 384.439 219.182 379.92 219.182C375.401 219.182 372.567 215.648 372.567 210.045C372.567 204.427 375.401 200.892 379.92 200.892Z" fill="#4CBFCD"/>
<path fill-rule="evenodd" clip-rule="evenodd" d="M363.801 208.88C365.292 210.514 367.546 212.796 370.148 214.804C373.382 217.299 376.906 219.176 380.054 219.176C383.17 219.176 386.343 217.329 389.215 214.853C391.554 212.834 393.525 210.55 394.939 208.882C393.388 207.338 391.206 205.508 388.783 203.978C385.84 202.12 382.73 200.824 380.054 200.824C377.352 200.824 373.888 202.139 370.582 204.013C367.871 205.548 365.427 207.366 363.801 208.88ZM369.19 201.556C372.621 199.612 376.608 198 380.054 198C383.528 198 387.189 199.632 390.291 201.591C393.424 203.569 396.179 206.005 397.882 207.872L398.722 208.793L397.912 209.741C397.748 209.932 397.569 210.145 397.374 210.375C395.956 212.054 393.733 214.684 391.059 216.991C388.051 219.586 384.217 222 380.054 222C375.924 222 371.763 219.616 368.423 217.039C365.032 214.422 362.233 211.404 360.794 209.751L359.961 208.794L360.823 207.864C362.592 205.954 365.729 203.517 369.19 201.556Z" fill="#4CBFCD"/>
<path d="M446.744 198.273C440.478 198.273 436.557 202.818 436.557 210.045C436.557 217.273 440.478 221.802 446.744 221.802C453.009 221.802 456.931 217.273 456.931 210.045C456.931 202.818 453.009 198.273 446.744 198.273ZM446.744 200.892C451.263 200.892 454.097 204.427 454.097 210.045C454.097 215.648 451.263 219.182 446.744 219.182C442.225 219.182 439.391 215.648 439.391 210.045C439.391 204.427 442.225 200.892 446.744 200.892Z" fill="#4CBFCD"/>
<path fill-rule="evenodd" clip-rule="evenodd" d="M430.624 208.88C432.116 210.514 434.369 212.796 436.972 214.804C440.205 217.299 443.73 219.176 446.878 219.176C449.994 219.176 453.167 217.329 456.038 214.853C458.378 212.834 460.348 210.55 461.762 208.882C460.211 207.338 458.03 205.508 455.606 203.978C452.664 202.12 449.554 200.824 446.878 200.824C444.176 200.824 440.711 202.139 437.405 204.013C434.694 205.548 432.251 207.366 430.624 208.88ZM436.013 201.556C439.444 199.612 443.431 198 446.878 198C450.351 198 454.013 199.632 457.114 201.591C460.248 203.569 463.003 206.005 464.705 207.872L465.545 208.793L464.735 209.741C464.572 209.932 464.392 210.145 464.198 210.375C462.779 212.054 460.556 214.684 457.882 216.991C454.874 219.586 451.041 222 446.878 222C442.748 222 438.586 219.616 435.247 217.039C431.856 214.422 429.057 211.404 427.617 209.751L426.784 208.794L427.646 207.864C429.416 205.954 432.553 203.517 436.013 201.556Z" fill="#4CBFCD"/>
<path d="M562.509 198.273C556.243 198.273 552.322 202.818 552.322 210.045C552.322 217.273 556.243 221.802 562.509 221.802C568.774 221.802 572.695 217.273 572.695 210.045C572.695 202.818 568.774 198.273 562.509 198.273ZM562.509 200.892C567.028 200.892 569.861 204.427 569.861 210.045C569.861 215.648 567.028 219.182 562.509 219.182C557.99 219.182 555.156 215.648 555.156 210.045C555.156 204.427 557.99 200.892 562.509 200.892Z" fill="#4CBFCD"/>
<path fill-rule="evenodd" clip-rule="evenodd" d="M546.389 208.88C547.88 210.514 550.134 212.796 552.737 214.804C555.97 217.299 559.494 219.176 562.643 219.176C565.758 219.176 568.932 217.329 571.803 214.853C574.143 212.834 576.113 210.55 577.527 208.882C575.976 207.338 573.794 205.508 571.371 203.978C568.428 202.12 565.318 200.824 562.643 200.824C559.94 200.824 556.476 202.139 553.17 204.013C550.459 205.548 548.015 207.366 546.389 208.88ZM551.778 201.556C555.209 199.612 559.196 198 562.643 198C566.116 198 569.777 199.632 572.879 201.591C576.012 203.569 578.768 206.005 580.47 207.872L581.31 208.793L580.5 209.741C580.337 209.932 580.157 210.145 579.962 210.375C578.544 212.054 576.321 214.684 573.647 216.991C570.639 219.586 566.805 222 562.643 222C558.513 222 554.351 219.616 551.012 217.039C547.62 214.422 544.822 211.404 543.382 209.751L542.549 208.794L543.411 207.864C545.18 205.954 548.317 203.517 551.778 201.556Z" fill="#4CBFCD"/>
<path d="M410.213 218.058L411.883 216.388L405.572 210.107H423.663V207.748H405.572L411.883 201.467L410.213 199.798L401.083 208.928L410.213 218.058Z" fill="#4CBFCD"/>
<path d="M477.037 218.058L478.706 216.388L472.395 210.107H490.486V207.748H472.395L478.706 201.467L477.037 199.798L467.907 208.928L477.037 218.058Z" fill="#4CBFCD"/>
<path d="M592.801 218.058L594.471 216.388L588.16 210.107H606.251V207.748H588.16L594.471 201.467L592.801 199.798L583.671 208.928L592.801 218.058Z" fill="#4CBFCD"/>
<path fill-rule="evenodd" clip-rule="evenodd" d="M274.84 200.16H255.16V219.84H274.84V200.16ZM253 198V222H277V198H253Z" fill="#4CBFCD"/>
<path fill-rule="evenodd" clip-rule="evenodd" d="M532.36 200.16H512.68V219.84H532.36V200.16ZM510.52 198V222H534.52V198H510.52Z" fill="#4CBFCD"/>
<path fill-rule="evenodd" clip-rule="evenodd" d="M658.84 200.16H639.16V219.84H658.84V200.16ZM637 198V222H661V198H637Z" fill="#4CBFCD"/>
<path fill-rule="evenodd" clip-rule="evenodd" d="M680.68 200.16H661V219.84H680.68V200.16ZM658.84 198V222H682.84V198H658.84Z" fill="#4CBFCD"/>
<path fill-rule="evenodd" clip-rule="evenodd" d="M702.52 200.16H682.84V219.84H702.52V200.16ZM680.68 198V222H704.68V198H680.68Z" fill="#4CBFCD"/>
<path fill-rule="evenodd" clip-rule="evenodd" d="M724.36 200.16H704.68V219.84H724.36V200.16ZM702.52 198V222H726.52V198H702.52Z" fill="#4CBFCD"/>
</svg>
