<svg width="175" height="203" viewBox="0 0 175 203" fill="none" xmlns="http://www.w3.org/2000/svg">
<rect width="156.439" height="87.9654" rx="43.9827" transform="matrix(-1 0 0 1 168.122 -2.86102e-05)" fill="#3C8AFF"/>
<rect width="127.328" height="59.1077" rx="29.5539" transform="matrix(-1 0 0 1 136.732 6.07524)" fill="#FFC900"/>
<path d="M81.4237 137.662C83.0777 134.078 80.4595 129.986 76.512 129.986V129.986C74.411 129.986 72.5 131.203 71.6109 133.106L61.2785 155.226C60.1463 157.65 60.1517 160.452 61.2932 162.872L71.6077 184.733C72.4994 186.623 74.4015 187.828 76.4912 187.828V187.828C80.4408 187.828 83.0541 183.727 81.3855 180.147L73.3156 162.834C72.1978 160.436 72.1925 157.667 73.3011 155.265L81.4237 137.662Z" fill="#0E0E0E"/>
<path d="M103.147 134.379C102.969 130.435 98.7639 128.004 95.2575 129.817V129.817C93.3914 130.783 92.253 132.741 92.3377 134.84L93.3228 159.235C93.4307 161.908 94.7228 164.394 96.8483 166.018L116.053 180.697C117.714 181.966 119.957 182.163 121.813 181.203V181.203C125.321 179.389 125.758 174.545 122.631 172.132L107.509 160.461C105.415 158.845 104.138 156.388 104.019 153.745L103.147 134.379Z" fill="#0E0E0E"/>
<rect width="22.023" height="7.341" rx="3.6705" transform="matrix(-0.873251 0.487271 0.487271 0.873251 88.1577 184.946)" fill="#3C8AFF"/>
<rect width="17.4665" height="18.7322" rx="4.05021" transform="matrix(-0.873251 0.487271 0.487271 0.873251 82.6072 174.999)" fill="#3C8AFF"/>
<rect width="22.023" height="7.341" rx="3.6705" transform="matrix(-0.565497 0.824751 0.824751 0.565497 128.156 170.809)" fill="#3C8AFF"/>
<rect width="17.4665" height="18.7322" rx="4.05021" transform="matrix(-0.565497 0.824751 0.824751 0.565497 118.761 164.368)" fill="#3C8AFF"/>
<path d="M45.856 137.707C45.856 126.025 50.4966 114.822 58.7568 106.562C67.0171 98.3016 78.2203 93.661 89.9021 93.661C101.584 93.661 112.787 98.3016 121.047 106.562C129.308 114.822 133.948 126.025 133.948 137.707L89.9021 137.707H45.856Z" fill="#1657A6"/>
<rect width="59.9937" height="11.3912" rx="5.6956" transform="matrix(-1 0 0 1 119.899 87.9655)" fill="#0E0E0E"/>
<path d="M157.903 44.6003C157.279 45.2983 157.603 46.4082 158.503 46.6619L166.444 48.8979C167.11 49.0854 167.803 48.7036 168 48.0405L172.962 31.3632C173.348 30.0675 171.706 29.1508 170.805 30.159L157.903 44.6003Z" fill="#3C8AFF"/>
<path d="M61.4129 44.181C69.2015 15.2721 93.8827 19.0879 106.217 25.0146C106.754 25.2723 107.012 25.8961 106.849 26.4685C98.1785 57.0089 73.9159 52.2238 61.9842 45.5804C61.4946 45.3079 61.2671 44.722 61.4129 44.181Z" fill="white"/>
<circle r="13.6256" transform="matrix(-0.966376 -0.257133 -0.257133 0.966376 84.0666 35.5832)" fill="black"/>
<mask id="mask0_176_5986" style="mask-type:alpha" maskUnits="userSpaceOnUse" x="9" y="6" width="128" height="60">
<rect width="127.328" height="59.1077" rx="29.5539" transform="matrix(-1 0 0 1 136.732 6.07554)" fill="#FFC900"/>
</mask>
<g mask="url(#mask0_176_5986)">
<path d="M49.5345 44.3074C41.7452 15.3987 17.0642 19.215 4.72972 25.1421C4.19342 25.3998 3.93525 26.0236 4.09777 26.5959C12.7692 57.1361 37.0317 52.3505 48.9633 45.7068C49.4528 45.4343 49.6803 44.8484 49.5345 44.3074Z" fill="white"/>
<circle r="13.6256" transform="matrix(-0.96637 0.257155 0.257155 0.96637 26.8808 35.7101)" fill="black"/>
</g>
<circle cx="13.4459" cy="107.078" r="9.90937" transform="rotate(118.631 13.4459 107.078)" fill="#3C8AFF"/>
<path d="M17.3954 120.524C19.7022 121.784 22.4147 122.075 24.9363 121.334C27.4579 120.594 29.582 118.882 30.8413 116.575C32.1006 114.268 32.392 111.556 31.6513 109.034C30.9107 106.512 29.1986 104.388 26.8918 103.129L22.1436 111.827L17.3954 120.524Z" fill="#0E0E0E"/>
<circle cx="84.8636" cy="116.605" r="9.90937" transform="rotate(118.631 84.8636 116.605)" fill="#3C8AFF"/>
<path d="M88.8131 130.051C91.1199 131.31 93.8324 131.601 96.354 130.861C98.8756 130.12 101 128.408 102.259 126.101C103.518 123.795 103.81 121.082 103.069 118.56C102.328 116.039 100.616 113.915 98.3096 112.655L93.5613 121.353L88.8131 130.051Z" fill="#0E0E0E"/>
</svg>
