<svg width="847" height="152" viewBox="0 0 847 152" fill="none" xmlns="http://www.w3.org/2000/svg">
<path d="M110.229 46.9228L109.56 47.288L109.776 47.6853H110.229V46.9228ZM36.5121 50.7249L35.8354 50.3735L36.5121 50.7249ZM36.5121 101.841L35.8353 102.192L35.8407 102.203L36.5121 101.841ZM52.7763 118.739L52.398 119.401L52.398 119.401L52.7763 118.739ZM104.526 115.782L105.011 116.37L105.018 116.365L104.526 115.782ZM118.678 90.6461L119.424 90.8032L119.618 89.8836H118.678V90.6461ZM67.9844 90.6461H67.2219V91.4086H67.9844V90.6461ZM67.9844 68.0452V67.2827H67.2219V68.0452H67.9844ZM147.827 68.0452H148.589V67.2827H147.827V68.0452ZM147.827 93.8145L148.576 93.9581L148.589 93.887V93.8145H147.827ZM135.154 122.33L134.541 121.875L134.541 121.875L135.154 122.33ZM110.018 143.452L110.366 144.13L110.37 144.128L110.018 143.452ZM37.1457 141.762L36.7692 142.425L36.7789 142.431L37.1457 141.762ZM10.1091 114.937L9.44605 115.313L9.4496 115.32L10.1091 114.937ZM10.1091 37.2066L9.44757 36.8274L9.44608 36.83L10.1091 37.2066ZM37.1457 10.3812L37.5161 11.0477L37.5188 11.0462L37.1457 10.3812ZM118.889 12.9158L118.466 13.5503L118.471 13.5536L118.889 12.9158ZM144.236 46.9228V47.6853H145.278L144.963 46.6922L144.236 46.9228ZM110.899 46.5577C107.452 40.24 102.703 35.4143 96.6546 32.1021L95.9221 33.4397C101.702 36.6049 106.247 41.2139 109.56 47.288L110.899 46.5577ZM96.6546 32.1021C90.6104 28.7922 83.5804 27.1502 75.5885 27.1502V28.6752C83.3679 28.6752 90.1378 30.2721 95.9221 33.4397L96.6546 32.1021ZM75.5885 27.1502C66.7389 27.1502 58.8585 29.1499 51.9697 33.1684L52.7381 34.4856C59.3675 30.6184 66.9769 28.6752 75.5885 28.6752V27.1502ZM51.9697 33.1684C45.079 37.1879 39.7001 42.9304 35.8354 50.3735L37.1888 51.0762C40.9281 43.8746 46.1104 38.3517 52.7381 34.4856L51.9697 33.1684ZM35.8354 50.3735C31.9685 57.8207 30.0465 66.3936 30.0465 76.0717H31.5715C31.5715 66.5989 33.4516 58.2739 37.1888 51.0762L35.8354 50.3735ZM30.0465 76.0717C30.0465 86.0275 31.967 94.7422 35.8354 102.192L37.1888 101.49C33.4531 94.295 31.5715 85.8302 31.5715 76.0717H30.0465ZM35.8407 102.203C39.8479 109.644 45.3682 115.384 52.398 119.401L53.1546 118.077C46.3844 114.208 41.0619 108.682 37.1834 101.48L35.8407 102.203ZM52.398 119.401C59.4297 123.419 67.5905 125.416 76.8558 125.416V123.891C67.8151 123.891 59.9229 121.944 53.1546 118.077L52.398 119.401ZM76.8558 125.416C88.2592 125.416 97.6655 122.419 105.011 116.37L104.041 115.193C97.0234 120.973 87.9829 123.891 76.8558 123.891V125.416ZM105.018 116.365C112.35 110.183 117.142 101.643 119.424 90.8032L117.932 90.4891C115.708 101.053 111.066 109.271 104.035 115.199L105.018 116.365ZM118.678 89.8836H67.9844V91.4086H118.678V89.8836ZM68.7469 90.6461V68.0452H67.2219V90.6461H68.7469ZM67.9844 68.8077H147.827V67.2827H67.9844V68.8077ZM147.064 68.0452V93.8145H148.589V68.0452H147.064ZM147.078 93.6709C145.129 103.834 140.953 113.233 134.541 121.875L135.766 122.784C142.309 113.965 146.582 104.355 148.576 93.9581L147.078 93.6709ZM134.541 121.875C128.137 130.507 119.85 137.474 109.666 142.776L110.37 144.128C120.745 138.728 129.215 131.613 135.766 122.784L134.541 121.875ZM109.669 142.774C99.6501 147.923 88.3656 150.505 75.7997 150.505V152.03C88.5806 152.03 100.108 149.402 110.366 144.13L109.669 142.774ZM75.7997 150.505C61.695 150.505 48.9382 147.364 37.5126 141.094L36.7789 142.431C48.4471 148.834 61.4596 152.03 75.7997 152.03V150.505ZM37.5223 141.099C26.2344 134.689 17.3195 125.844 10.7686 114.554L9.4496 115.32C16.1354 126.842 25.245 135.881 36.7692 142.425L37.5223 141.099ZM10.7722 114.56C4.36653 103.281 1.15533 90.458 1.15533 76.0717H-0.369672C-0.369672 90.6935 2.89665 103.781 9.44608 115.313L10.7722 114.56ZM1.15533 76.0717C1.15533 61.6854 4.36653 48.8626 10.7722 37.5831L9.44608 36.83C2.89665 48.3627 -0.369672 61.45 -0.369672 76.0717H1.15533ZM10.7707 37.5857C17.3214 26.1568 26.2339 17.3155 37.516 11.0477L36.7754 9.71461C25.2454 16.1202 16.1336 25.1625 9.44758 36.8274L10.7707 37.5857ZM37.5188 11.0462C48.9445 4.63664 61.6289 1.42737 75.5885 1.42737V-0.0976336C61.3848 -0.0976336 48.4408 3.17062 36.7727 9.71615L37.5188 11.0462ZM75.5885 1.42737C92.0742 1.42737 106.356 5.47691 118.466 13.5503L119.312 12.2814C106.92 4.02013 92.3352 -0.0976336 75.5885 -0.0976336V1.42737ZM118.471 13.5536C130.568 21.479 138.913 32.667 143.509 47.1535L144.963 46.6922C140.266 31.889 131.712 20.4057 119.307 12.278L118.471 13.5536ZM144.236 46.1603H110.229V47.6853H144.236V46.1603ZM198.854 2.56588H199.616V1.80338H198.854V2.56588ZM206.669 116.838L206.123 117.37L206.13 117.377L206.669 116.838ZM250.815 116.838L251.354 117.377L251.361 117.37L250.815 116.838ZM258.63 2.56588V1.80338H257.868V2.56588H258.63ZM288.413 2.56588H289.175V1.80338H288.413V2.56588ZM280.175 125.498L279.53 125.092L279.528 125.095L280.175 125.498ZM258.419 144.931L258.091 144.242L258.087 144.244L258.419 144.931ZM198.22 144.931L197.884 145.615L197.888 145.617L198.22 144.931ZM177.098 125.498L176.443 125.889L176.446 125.893L177.098 125.498ZM169.283 2.56588V1.80338H168.52V2.56588H169.283ZM198.091 2.56588V93.8145H199.616V2.56588H198.091ZM198.091 93.8145C198.091 103.942 200.732 111.834 206.123 117.37L207.216 116.306C202.186 111.14 199.616 103.683 199.616 93.8145H198.091ZM206.13 117.377C211.52 122.767 219.059 125.416 228.637 125.416V123.891C219.345 123.891 212.238 121.329 207.208 116.299L206.13 117.377ZM228.637 125.416C238.351 125.416 245.962 122.769 251.354 117.377L250.276 116.299C245.248 121.327 238.073 123.891 228.637 123.891V125.416ZM251.361 117.37C256.752 111.834 259.393 103.942 259.393 93.8145H257.868C257.868 103.683 255.299 111.14 250.269 116.306L251.361 117.37ZM259.393 93.8145V2.56588H257.868V93.8145H259.393ZM258.63 3.32838H288.413V1.80338H258.63V3.32838ZM287.65 2.56588V93.6033H289.175V2.56588H287.65ZM287.65 93.6033C287.65 106.023 284.93 116.507 279.53 125.092L280.82 125.904C286.404 117.028 289.175 106.248 289.175 93.6033H287.65ZM279.528 125.095C274.254 133.561 267.113 139.94 258.091 144.242L258.747 145.619C268.031 141.191 275.394 134.615 280.822 125.901L279.528 125.095ZM258.087 144.244C249.189 148.554 239.236 150.716 228.214 150.716V152.241C239.441 152.241 249.625 150.038 258.751 145.617L258.087 144.244ZM228.214 150.716C217.334 150.716 207.452 148.555 198.553 144.244L197.888 145.617C207.013 150.037 217.127 152.241 228.214 152.241V150.716ZM198.557 144.246C189.818 139.946 182.886 133.57 177.75 125.103L176.446 125.893C181.73 134.605 188.88 141.184 197.884 145.615L198.557 144.246ZM177.753 125.107C172.628 116.52 170.045 106.03 170.045 93.6033H168.52C168.52 106.242 171.148 117.015 176.443 125.889L177.753 125.107ZM170.045 93.6033V2.56588H168.52V93.6033H170.045ZM169.283 3.32838H198.854V1.80338H169.283V3.32838ZM346.555 2.56588H347.318V1.80338H346.555V2.56588ZM346.555 150V150.762H347.318V150H346.555ZM316.984 150H316.222V150.762H316.984V150ZM316.984 2.56588V1.80338H316.222V2.56588H316.984ZM345.793 2.56588V150H347.318V2.56588H345.793ZM346.555 149.238H316.984V150.762H346.555V149.238ZM317.747 150V2.56588H316.222V150H317.747ZM316.984 3.32838H346.555V1.80338H316.984V3.32838ZM405.343 126.554H404.581V127.317H405.343V126.554ZM453.925 126.554H454.687V125.792H453.925V126.554ZM453.925 150V150.762H454.687V150H453.925ZM375.772 150H375.009V150.762H375.772V150ZM375.772 2.56588V1.80338H375.009V2.56588H375.772ZM405.343 2.56588H406.106V1.80338H405.343V2.56588ZM405.343 127.317H453.925V125.792H405.343V127.317ZM453.162 126.554V150H454.687V126.554H453.162ZM453.925 149.238H375.772V150.762H453.925V149.238ZM376.534 150V2.56588H375.009V150H376.534ZM375.772 3.32838H405.343V1.80338H375.772V3.32838ZM404.581 2.56588V126.554H406.106V2.56588H404.581ZM565.025 11.6485L564.674 12.3255L564.678 12.3272L565.025 11.6485ZM592.273 37.629L591.608 38.0029L591.614 38.0127L592.273 37.629ZM592.273 115.359L591.614 114.976L591.612 114.978L592.273 115.359ZM565.025 140.917L564.678 140.239L564.674 140.24L565.025 140.917ZM472.72 150H471.958V150.762H472.72V150ZM472.72 2.56588V1.80338H471.958V2.56588H472.72ZM559.111 112.191L558.572 111.652L558.572 111.652L559.111 112.191ZM559.111 40.5861L558.563 41.1164L558.567 41.1208L559.111 40.5861ZM502.292 27.4903V26.7278H501.529V27.4903H502.292ZM502.292 124.864H501.529V125.627H502.292V124.864ZM524.259 3.32838C539.648 3.32838 553.113 6.33574 564.674 12.3255L565.376 10.9715C553.562 4.85109 539.849 1.80338 524.259 1.80338V3.32838ZM564.678 12.3272C576.377 18.3161 585.347 26.872 591.608 38.0028L592.937 37.2552C586.525 25.8555 577.33 17.0911 565.373 10.9698L564.678 12.3272ZM591.614 38.0127C598.014 49.0043 601.227 61.823 601.227 76.4942H602.752C602.752 61.594 599.487 48.5027 592.932 37.2453L591.614 38.0127ZM601.227 76.4942C601.227 91.1654 598.014 103.984 591.614 114.976L592.932 115.743C599.487 104.486 602.752 91.3943 602.752 76.4942H601.227ZM591.612 114.978C585.353 125.828 576.382 134.247 564.678 140.239L565.373 141.596C577.325 135.477 586.52 126.858 592.933 115.74L591.612 114.978ZM564.674 140.24C553.113 146.23 539.648 149.238 524.259 149.238V150.762C539.849 150.762 553.562 147.715 565.376 141.594L564.674 140.24ZM524.259 149.238H472.72V150.762H524.259V149.238ZM473.483 150V2.56588H471.958V150H473.483ZM472.72 3.32838H524.259V1.80338H472.72V3.32838ZM523.203 125.627C538.832 125.627 551.019 121.361 559.65 112.73L558.572 111.652C550.305 119.919 538.553 124.102 523.203 124.102V125.627ZM559.65 112.73C568.28 104.101 572.547 91.9851 572.547 76.4942H571.022C571.022 91.7011 566.84 103.383 558.572 111.652L559.65 112.73ZM572.547 76.4942C572.547 61.0026 568.279 48.8201 559.654 40.0514L558.567 41.1208C566.84 49.5317 571.022 61.2879 571.022 76.4942H572.547ZM559.659 40.0559C551.029 31.1387 538.839 26.7278 523.203 26.7278V28.2528C538.546 28.2528 550.294 32.5724 558.563 41.1164L559.659 40.0559ZM523.203 26.7278H502.292V28.2528H523.203V26.7278ZM501.529 27.4903V124.864H503.054V27.4903H501.529ZM502.292 125.627H523.203V124.102H502.292V125.627ZM653.696 26.4341V25.6716H652.934V26.4341H653.696ZM653.696 63.3983H652.934V64.1608H653.696V63.3983ZM703.334 63.3983H704.096V62.6358H703.334V63.3983ZM703.334 86.8441V87.6066H704.096V86.8441H703.334ZM653.696 86.8441V86.0816H652.934V86.8441H653.696ZM653.696 125.921H652.934V126.683H653.696V125.921ZM709.67 125.921H710.433V125.158H709.67V125.921ZM709.67 150V150.762H710.433V150H709.67ZM624.125 150H623.362V150.762H624.125V150ZM624.125 2.35465V1.59215H623.362V2.35465H624.125ZM709.67 2.35465H710.433V1.59215H709.67V2.35465ZM709.67 26.4341V27.1966H710.433V26.4341H709.67ZM652.934 26.4341V63.3983H654.459V26.4341H652.934ZM653.696 64.1608H703.334V62.6358H653.696V64.1608ZM702.571 63.3983V86.8441H704.096V63.3983H702.571ZM703.334 86.0816H653.696V87.6066H703.334V86.0816ZM652.934 86.8441V125.921H654.459V86.8441H652.934ZM653.696 126.683H709.67V125.158H653.696V126.683ZM708.908 125.921V150H710.433V125.921H708.908ZM709.67 149.238H624.125V150.762H709.67V149.238ZM624.887 150V2.35465H623.362V150H624.887ZM624.125 3.11715H709.67V1.59215H624.125V3.11715ZM708.908 2.35465V26.4341H710.433V2.35465H708.908ZM709.67 25.6716H653.696V27.1966H709.67V25.6716ZM812.584 150L811.921 150.376L812.14 150.762H812.584V150ZM780.056 92.5472L780.719 92.1715L780.5 91.7847H780.056V92.5472ZM766.115 92.5472V91.7847H765.352V92.5472H766.115ZM766.115 150V150.762H766.877V150H766.115ZM736.544 150H735.781V150.762H736.544V150ZM736.544 2.56588V1.80338H735.781V2.56588H736.544ZM821.033 8.69136L820.687 9.37103L820.697 9.37575L821.033 8.69136ZM838.987 24.9556L838.325 25.3339L838.33 25.342L838.334 25.3499L838.987 24.9556ZM836.664 74.1707L837.28 74.6192L837.284 74.6139L836.664 74.1707ZM811.528 90.2237L811.332 89.4868L810.36 89.7451L810.871 90.6112L811.528 90.2237ZM846.802 150V150.762H848.138L847.459 149.612L846.802 150ZM766.115 70.3687H765.352V71.1312H766.115V70.3687ZM808.782 64.6656L809.311 65.2146L809.321 65.2048L808.782 64.6656ZM808.782 32.7709L808.253 33.3197L808.258 33.3247L808.263 33.3296L808.782 32.7709ZM766.115 27.0678V26.3053H765.352V27.0678H766.115ZM813.248 149.624L780.719 92.1715L779.392 92.9228L811.921 150.376L813.248 149.624ZM780.056 91.7847H766.115V93.3097H780.056V91.7847ZM765.352 92.5472V150H766.877V92.5472H765.352ZM766.115 149.238H736.544V150.762H766.115V149.238ZM737.306 150V2.56588H735.781V150H737.306ZM736.544 3.32838H791.884V1.80338H736.544V3.32838ZM791.884 3.32838C803.201 3.32838 812.793 5.35438 820.687 9.37096L821.379 8.01176C813.221 3.86104 803.379 1.80338 791.884 1.80338V3.32838ZM820.697 9.37575C828.604 13.2601 834.467 18.5824 838.325 25.3339L839.649 24.5773C835.621 17.5288 829.515 12.0083 821.369 8.00698L820.697 9.37575ZM838.334 25.3499C842.341 31.9817 844.35 39.4477 844.35 47.7677H845.875C845.875 39.1899 843.8 31.4478 839.64 24.5613L838.334 25.3499ZM844.35 47.7677C844.35 57.3256 841.583 65.9715 836.043 73.7275L837.284 74.6139C843.009 66.5985 845.875 57.6425 845.875 47.7677H844.35ZM836.047 73.7222C830.537 81.2984 822.323 86.5652 811.332 89.4868L811.724 90.9606C822.982 87.9679 831.525 82.5327 837.28 74.6192L836.047 73.7222ZM810.871 90.6112L846.146 150.388L847.459 149.612L812.185 89.8362L810.871 90.6112ZM846.802 149.238H812.584V150.762H846.802V149.238ZM766.115 71.1312H790.828V69.6062H766.115V71.1312ZM790.828 71.1312C798.961 71.1312 805.172 69.206 809.311 65.2145L808.253 64.1168C804.506 67.7294 798.748 69.6062 790.828 69.6062V71.1312ZM809.321 65.2048C813.439 61.0866 815.459 55.4527 815.459 48.4014H813.934C813.934 55.15 812.01 60.359 808.243 64.1265L809.321 65.2048ZM815.459 48.4014C815.459 41.4882 813.437 36.0528 809.301 32.2121L808.263 33.3296C812.013 36.8113 813.934 41.7963 813.934 48.4014H815.459ZM809.311 32.222C805.172 28.2306 798.961 26.3053 790.828 26.3053V27.8303C798.748 27.8303 804.506 29.7071 808.253 33.3197L809.311 32.222ZM790.828 26.3053H766.115V27.8303H790.828V26.3053ZM765.352 27.0678V70.3687H766.877V27.0678H765.352Z" fill="#4100AC"/>
</svg>
