<svg width="749" height="126" viewBox="0 0 749 126" fill="none" xmlns="http://www.w3.org/2000/svg">
<path d="M19.9595 0.272705C13.6942 0.272705 9.77258 4.81762 9.77258 12.0453C9.77258 19.273 13.6942 23.8021 19.9595 23.8021C26.2248 23.8021 30.1464 19.273 30.1464 12.0453C30.1464 4.81762 26.2248 0.272705 19.9595 0.272705ZM19.9595 2.89234C24.4785 2.89234 27.3124 6.42728 27.3124 12.0453C27.3124 17.6475 24.4785 21.1825 19.9595 21.1825C15.4405 21.1825 12.6065 17.6475 12.6065 12.0453C12.6065 6.42728 15.4405 2.89234 19.9595 2.89234Z" fill="#DEDCE6"/>
<path fill-rule="evenodd" clip-rule="evenodd" d="M3.83977 10.8801C5.33135 12.5139 7.58492 14.7956 10.1875 16.8039C13.4208 19.299 16.9453 21.1765 20.0936 21.1765C23.2093 21.1765 26.3825 19.3294 29.2538 16.8526C31.5935 14.8344 33.5641 12.5502 34.9778 10.8816C33.4268 9.33766 31.2453 7.50815 28.8222 5.97799C25.8793 4.11957 22.7694 2.82353 20.0936 2.82353C17.3912 2.82353 13.9272 4.13947 10.6209 6.01264C7.9101 7.54845 5.4663 9.36625 3.83977 10.8801ZM9.22908 3.55599C12.6601 1.61217 16.647 0 20.0936 0C23.5669 0 27.2282 1.63206 30.3298 3.59063C33.4633 5.5694 36.2186 8.00504 37.9212 9.87235L38.761 10.7934L37.951 11.7409C37.7876 11.9321 37.608 12.1446 37.4133 12.375C35.9947 14.0537 33.772 16.6841 31.0981 18.9906C28.0897 21.5856 24.2564 24 20.0936 24C15.9635 24 11.8017 21.616 8.46251 19.0392C5.07139 16.4224 2.27249 13.4036 0.832955 11.7507L0 10.7944L0.861925 9.86406C2.63137 7.95419 5.76841 5.51663 9.22908 3.55599Z" fill="#DEDCE6"/>
<path d="M86.783 0.272705C80.5176 0.272705 76.5961 4.81762 76.5961 12.0453C76.5961 19.273 80.5176 23.8021 86.783 23.8021C93.0483 23.8021 96.9698 19.273 96.9698 12.0453C96.9698 4.81762 93.0483 0.272705 86.783 0.272705ZM86.783 2.89234C91.302 2.89234 94.1359 6.42728 94.1359 12.0453C94.1359 17.6475 91.302 21.1825 86.783 21.1825C82.264 21.1825 79.43 17.6475 79.43 12.0453C79.43 6.42728 82.264 2.89234 86.783 2.89234Z" fill="#DEDCE6"/>
<path fill-rule="evenodd" clip-rule="evenodd" d="M70.6633 10.8801C72.1549 12.5139 74.4085 14.7956 77.011 16.8039C80.2444 19.299 83.7688 21.1765 86.9172 21.1765C90.0328 21.1765 93.2061 19.3294 96.0774 16.8526C98.417 14.8344 100.388 12.5502 101.801 10.8816C100.25 9.33766 98.0688 7.50815 95.6457 5.97799C92.7028 4.11957 89.5929 2.82353 86.9172 2.82353C84.2148 2.82353 80.7507 4.13947 77.4445 6.01264C74.7336 7.54845 72.2898 9.36625 70.6633 10.8801ZM76.0526 3.55599C79.4836 1.61217 83.4705 0 86.9172 0C90.3905 0 94.0518 1.63206 97.1533 3.59063C100.287 5.5694 103.042 8.00504 104.745 9.87235L105.585 10.7934L104.775 11.7409C104.611 11.9321 104.432 12.1446 104.237 12.375C102.818 14.0537 100.596 16.6841 97.9216 18.9906C94.9132 21.5856 91.0799 24 86.9172 24C82.7871 24 78.6253 21.616 75.2861 19.0392C71.8949 16.4224 69.096 13.4036 67.6565 11.7507L66.8235 10.7944L67.6855 9.86406C69.4549 7.95419 72.592 5.51663 76.0526 3.55599Z" fill="#DEDCE6"/>
<path d="M202.548 0.272705C196.282 0.272705 192.361 4.81762 192.361 12.0453C192.361 19.273 196.282 23.8021 202.548 23.8021C208.813 23.8021 212.735 19.273 212.735 12.0453C212.735 4.81762 208.813 0.272705 202.548 0.272705ZM202.548 2.89234C207.067 2.89234 209.901 6.42728 209.901 12.0453C209.901 17.6475 207.067 21.1825 202.548 21.1825C198.029 21.1825 195.195 17.6475 195.195 12.0453C195.195 6.42728 198.029 2.89234 202.548 2.89234Z" fill="#DEDCE6"/>
<path fill-rule="evenodd" clip-rule="evenodd" d="M186.428 10.8801C187.92 12.5139 190.173 14.7956 192.776 16.8039C196.009 19.299 199.534 21.1765 202.682 21.1765C205.798 21.1765 208.971 19.3294 211.842 16.8526C214.182 14.8344 216.152 12.5502 217.566 10.8816C216.015 9.33766 213.834 7.50815 211.41 5.97799C208.468 4.11957 205.358 2.82353 202.682 2.82353C199.98 2.82353 196.515 4.13947 193.209 6.01264C190.498 7.54845 188.055 9.36625 186.428 10.8801ZM191.817 3.55599C195.248 1.61217 199.235 0 202.682 0C206.155 0 209.817 1.63206 212.918 3.59063C216.052 5.5694 218.807 8.00504 220.509 9.87235L221.349 10.7934L220.539 11.7409C220.376 11.9321 220.196 12.1446 220.002 12.375C218.583 14.0537 216.36 16.6841 213.686 18.9906C210.678 21.5856 206.845 24 202.682 24C198.552 24 194.39 21.616 191.051 19.0392C187.66 16.4224 184.861 13.4036 183.421 11.7507L182.588 10.7944L183.45 9.86406C185.22 7.95419 188.357 5.51663 191.817 3.55599Z" fill="#DEDCE6"/>
<path d="M50.2523 20.0577L51.922 18.3879L45.6107 12.1073H63.702V9.74822H45.6107L51.922 3.46758L50.2523 1.79785L41.1224 10.9278L50.2523 20.0577Z" fill="#DEDCE6"/>
<path d="M117.076 20.0577L118.746 18.3879L112.434 12.1073H130.526V9.74822H112.434L118.746 3.46758L117.076 1.79785L107.946 10.9278L117.076 20.0577Z" fill="#DEDCE6"/>
<path d="M232.841 20.0577L234.51 18.3879L228.199 12.1073H246.29V9.74822H228.199L234.51 3.46758L232.841 1.79785L223.711 10.9278L232.841 20.0577Z" fill="#DEDCE6"/>
<path d="M270.94 0.272705C264.675 0.272705 260.753 4.81762 260.753 12.0453C260.753 19.273 264.675 23.8021 270.94 23.8021C277.205 23.8021 281.127 19.273 281.127 12.0453C281.127 4.81762 277.205 0.272705 270.94 0.272705ZM270.94 2.89234C275.459 2.89234 278.293 6.42728 278.293 12.0453C278.293 17.6475 275.459 21.1825 270.94 21.1825C266.421 21.1825 263.587 17.6475 263.587 12.0453C263.587 6.42728 266.421 2.89234 270.94 2.89234Z" fill="#DEDCE6"/>
<path fill-rule="evenodd" clip-rule="evenodd" d="M254.82 10.8801C256.312 12.5139 258.565 14.7956 261.168 16.8039C264.401 19.299 267.926 21.1765 271.074 21.1765C274.19 21.1765 277.363 19.3294 280.234 16.8526C282.574 14.8344 284.544 12.5502 285.958 10.8816C284.407 9.33766 282.226 7.50815 279.803 5.97799C276.86 4.11957 273.75 2.82353 271.074 2.82353C268.372 2.82353 264.908 4.13947 261.601 6.01264C258.891 7.54845 256.447 9.36625 254.82 10.8801ZM260.209 3.55599C263.64 1.61217 267.627 0 271.074 0C274.547 0 278.209 1.63206 281.31 3.59063C284.444 5.5694 287.199 8.00504 288.902 9.87235L289.741 10.7934L288.931 11.7409C288.768 11.9321 288.588 12.1446 288.394 12.375C286.975 14.0537 284.752 16.6841 282.079 18.9906C279.07 21.5856 275.237 24 271.074 24C266.944 24 262.782 21.616 259.443 19.0392C256.052 16.4224 253.253 13.4036 251.813 11.7507L250.98 10.7944L251.842 9.86406C253.612 7.95419 256.749 5.51663 260.209 3.55599Z" fill="#DEDCE6"/>
<path d="M337.763 0.272705C331.498 0.272705 327.576 4.81762 327.576 12.0453C327.576 19.273 331.498 23.8021 337.763 23.8021C344.029 23.8021 347.95 19.273 347.95 12.0453C347.95 4.81762 344.029 0.272705 337.763 0.272705ZM337.763 2.89234C342.282 2.89234 345.116 6.42728 345.116 12.0453C345.116 17.6475 342.282 21.1825 337.763 21.1825C333.244 21.1825 330.41 17.6475 330.41 12.0453C330.41 6.42728 333.244 2.89234 337.763 2.89234Z" fill="#DEDCE6"/>
<path fill-rule="evenodd" clip-rule="evenodd" d="M321.644 10.8801C323.135 12.5139 325.389 14.7956 327.991 16.8039C331.225 19.299 334.749 21.1765 337.898 21.1765C341.013 21.1765 344.186 19.3294 347.058 16.8526C349.397 14.8344 351.368 12.5502 352.782 10.8816C351.231 9.33766 349.049 7.50815 346.626 5.97799C343.683 4.11957 340.573 2.82353 337.898 2.82353C335.195 2.82353 331.731 4.13947 328.425 6.01264C325.714 7.54845 323.27 9.36625 321.644 10.8801ZM327.033 3.55599C330.464 1.61217 334.451 0 337.898 0C341.371 0 345.032 1.63206 348.134 3.59063C351.267 5.5694 354.023 8.00504 355.725 9.87235L356.565 10.7934L355.755 11.7409C355.592 11.9321 355.412 12.1446 355.217 12.375C353.799 14.0537 351.576 16.6841 348.902 18.9906C345.894 21.5856 342.06 24 337.898 24C333.767 24 329.606 21.616 326.266 19.0392C322.875 16.4224 320.076 13.4036 318.637 11.7507L317.804 10.7944L318.666 9.86406C320.435 7.95419 323.572 5.51663 327.033 3.55599Z" fill="#DEDCE6"/>
<path d="M453.528 0.272705C447.263 0.272705 443.341 4.81762 443.341 12.0453C443.341 19.273 447.263 23.8021 453.528 23.8021C459.793 23.8021 463.715 19.273 463.715 12.0453C463.715 4.81762 459.793 0.272705 453.528 0.272705ZM453.528 2.89234C458.047 2.89234 460.881 6.42728 460.881 12.0453C460.881 17.6475 458.047 21.1825 453.528 21.1825C449.009 21.1825 446.175 17.6475 446.175 12.0453C446.175 6.42728 449.009 2.89234 453.528 2.89234Z" fill="#DEDCE6"/>
<path fill-rule="evenodd" clip-rule="evenodd" d="M437.408 10.8801C438.9 12.5139 441.154 14.7956 443.756 16.8039C446.989 19.299 450.514 21.1765 453.662 21.1765C456.778 21.1765 459.951 19.3294 462.823 16.8526C465.162 14.8344 467.133 12.5502 468.546 10.8816C466.995 9.33766 464.814 7.50815 462.391 5.97799C459.448 4.11957 456.338 2.82353 453.662 2.82353C450.96 2.82353 447.496 4.13947 444.19 6.01264C441.479 7.54845 439.035 9.36625 437.408 10.8801ZM442.798 3.55599C446.229 1.61217 450.216 0 453.662 0C457.136 0 460.797 1.63206 463.898 3.59063C467.032 5.5694 469.787 8.00504 471.49 9.87235L472.33 10.7934L471.52 11.7409C471.356 11.9321 471.177 12.1446 470.982 12.375C469.563 14.0537 467.341 16.6841 464.667 18.9906C461.658 21.5856 457.825 24 453.662 24C449.532 24 445.37 21.616 442.031 19.0392C438.64 16.4224 435.841 13.4036 434.402 11.7507L433.569 10.7944L434.431 9.86406C436.2 7.95419 439.337 5.51663 442.798 3.55599Z" fill="#DEDCE6"/>
<path d="M301.233 20.0577L302.902 18.3879L296.591 12.1073H314.682V9.74822H296.591L302.902 3.46758L301.233 1.79785L292.103 10.9278L301.233 20.0577Z" fill="#DEDCE6"/>
<path d="M368.056 20.0577L369.726 18.3879L363.415 12.1073H381.506V9.74822H363.415L369.726 3.46758L368.056 1.79785L358.926 10.9278L368.056 20.0577Z" fill="#DEDCE6"/>
<path d="M483.821 20.0577L485.491 18.3879L479.179 12.1073H497.271V9.74822H479.179L485.491 3.46758L483.821 1.79785L474.691 10.9278L483.821 20.0577Z" fill="#DEDCE6"/>
<path d="M521.92 0.272705C515.655 0.272705 511.733 4.81762 511.733 12.0453C511.733 19.273 515.655 23.8021 521.92 23.8021C528.186 23.8021 532.107 19.273 532.107 12.0453C532.107 4.81762 528.186 0.272705 521.92 0.272705ZM521.92 2.89234C526.439 2.89234 529.273 6.42728 529.273 12.0453C529.273 17.6475 526.439 21.1825 521.92 21.1825C517.401 21.1825 514.567 17.6475 514.567 12.0453C514.567 6.42728 517.401 2.89234 521.92 2.89234Z" fill="#DEDCE6"/>
<path fill-rule="evenodd" clip-rule="evenodd" d="M505.801 10.8801C507.292 12.5139 509.546 14.7956 512.148 16.8039C515.382 19.299 518.906 21.1765 522.054 21.1765C525.17 21.1765 528.343 19.3294 531.215 16.8526C533.554 14.8344 535.525 12.5502 536.939 10.8816C535.388 9.33766 533.206 7.50815 530.783 5.97799C527.84 4.11957 524.73 2.82353 522.054 2.82353C519.352 2.82353 515.888 4.13947 512.582 6.01264C509.871 7.54845 507.427 9.36625 505.801 10.8801ZM511.19 3.55599C514.621 1.61217 518.608 0 522.054 0C525.528 0 529.189 1.63206 532.291 3.59063C535.424 5.5694 538.179 8.00504 539.882 9.87235L540.722 10.7934L539.912 11.7409C539.748 11.9321 539.569 12.1446 539.374 12.375C537.956 14.0537 535.733 16.6841 533.059 18.9906C530.051 21.5856 526.217 24 522.054 24C517.924 24 513.763 21.616 510.423 19.0392C507.032 16.4224 504.233 13.4036 502.794 11.7507L501.961 10.7944L502.823 9.86406C504.592 7.95419 507.729 5.51663 511.19 3.55599Z" fill="#DEDCE6"/>
<path d="M588.744 0.272705C582.478 0.272705 578.557 4.81762 578.557 12.0453C578.557 19.273 582.478 23.8021 588.744 23.8021C595.009 23.8021 598.931 19.273 598.931 12.0453C598.931 4.81762 595.009 0.272705 588.744 0.272705ZM588.744 2.89234C593.263 2.89234 596.097 6.42728 596.097 12.0453C596.097 17.6475 593.263 21.1825 588.744 21.1825C584.225 21.1825 581.391 17.6475 581.391 12.0453C581.391 6.42728 584.225 2.89234 588.744 2.89234Z" fill="#DEDCE6"/>
<path fill-rule="evenodd" clip-rule="evenodd" d="M572.624 10.8801C574.116 12.5139 576.369 14.7956 578.972 16.8039C582.205 19.299 585.73 21.1765 588.878 21.1765C591.994 21.1765 595.167 19.3294 598.038 16.8526C600.378 14.8344 602.348 12.5502 603.762 10.8816C602.211 9.33766 600.03 7.50815 597.606 5.97799C594.664 4.11957 591.554 2.82353 588.878 2.82353C586.176 2.82353 582.711 4.13947 579.405 6.01264C576.694 7.54845 574.251 9.36625 572.624 10.8801ZM578.013 3.55599C581.444 1.61217 585.431 0 588.878 0C592.351 0 596.013 1.63206 599.114 3.59063C602.248 5.5694 605.003 8.00504 606.705 9.87235L607.545 10.7934L606.735 11.7409C606.572 11.9321 606.392 12.1446 606.198 12.375C604.779 14.0537 602.556 16.6841 599.882 18.9906C596.874 21.5856 593.041 24 588.878 24C584.748 24 580.586 21.616 577.247 19.0392C573.856 16.4224 571.057 13.4036 569.617 11.7507L568.784 10.7944L569.646 9.86406C571.416 7.95419 574.553 5.51663 578.013 3.55599Z" fill="#DEDCE6"/>
<path d="M704.509 0.272705C698.243 0.272705 694.322 4.81762 694.322 12.0453C694.322 19.273 698.243 23.8021 704.509 23.8021C710.774 23.8021 714.695 19.273 714.695 12.0453C714.695 4.81762 710.774 0.272705 704.509 0.272705ZM704.509 2.89234C709.028 2.89234 711.861 6.42728 711.861 12.0453C711.861 17.6475 709.028 21.1825 704.509 21.1825C699.99 21.1825 697.156 17.6475 697.156 12.0453C697.156 6.42728 699.99 2.89234 704.509 2.89234Z" fill="#DEDCE6"/>
<path fill-rule="evenodd" clip-rule="evenodd" d="M688.389 10.8801C689.88 12.5139 692.134 14.7956 694.737 16.8039C697.97 19.299 701.494 21.1765 704.643 21.1765C707.758 21.1765 710.932 19.3294 713.803 16.8526C716.143 14.8344 718.113 12.5502 719.527 10.8816C717.976 9.33766 715.794 7.50815 713.371 5.97799C710.428 4.11957 707.318 2.82353 704.643 2.82353C701.94 2.82353 698.476 4.13947 695.17 6.01264C692.459 7.54845 690.015 9.36625 688.389 10.8801ZM693.778 3.55599C697.209 1.61217 701.196 0 704.643 0C708.116 0 711.777 1.63206 714.879 3.59063C718.012 5.5694 720.768 8.00504 722.47 9.87235L723.31 10.7934L722.5 11.7409C722.337 11.9321 722.157 12.1446 721.962 12.375C720.544 14.0537 718.321 16.6841 715.647 18.9906C712.639 21.5856 708.805 24 704.643 24C700.513 24 696.351 21.616 693.012 19.0392C689.62 16.4224 686.822 13.4036 685.382 11.7507L684.549 10.7944L685.411 9.86406C687.18 7.95419 690.317 5.51663 693.778 3.55599Z" fill="#DEDCE6"/>
<path d="M552.213 20.0577L553.883 18.3879L547.572 12.1073H565.663V9.74822H547.572L553.883 3.46758L552.213 1.79785L543.083 10.9278L552.213 20.0577Z" fill="#DEDCE6"/>
<path d="M619.037 20.0577L620.706 18.3879L614.395 12.1073H632.486V9.74822H614.395L620.706 3.46758L619.037 1.79785L609.907 10.9278L619.037 20.0577Z" fill="#DEDCE6"/>
<path d="M734.801 20.0577L736.471 18.3879L730.16 12.1073H748.251V9.74822H730.16L736.471 3.46758L734.801 1.79785L725.671 10.9278L734.801 20.0577Z" fill="#DEDCE6"/>
<path d="M728.292 51.2727C734.557 51.2727 738.479 55.8176 738.479 63.0453C738.479 70.273 734.557 74.8021 728.292 74.8021C722.026 74.8021 718.105 70.273 718.105 63.0453C718.105 55.8176 722.026 51.2727 728.292 51.2727ZM728.292 53.8923C723.773 53.8923 720.939 57.4273 720.939 63.0453C720.939 68.6475 723.773 72.1825 728.292 72.1825C732.811 72.1825 735.645 68.6475 735.645 63.0453C735.645 57.4273 732.811 53.8923 728.292 53.8923Z" fill="#DEDCE6"/>
<path fill-rule="evenodd" clip-rule="evenodd" d="M744.411 61.8801C742.92 63.5139 740.666 65.7956 738.064 67.8039C734.83 70.299 731.306 72.1765 728.157 72.1765C725.042 72.1765 721.869 70.3294 718.997 67.8526C716.658 65.8344 714.687 63.5502 713.273 61.8816C714.824 60.3377 717.006 58.5082 719.429 56.978C722.372 55.1196 725.482 53.8235 728.157 53.8235C730.86 53.8235 734.324 55.1395 737.63 57.0126C740.341 58.5484 742.785 60.3662 744.411 61.8801ZM739.022 54.556C735.591 52.6122 731.604 51 728.157 51C724.684 51 721.023 52.6321 717.921 54.5906C714.788 56.5694 712.032 59.005 710.33 60.8723L709.49 61.7934L710.3 62.7409C710.464 62.9321 710.643 63.1446 710.838 63.375C712.256 65.0537 714.479 67.6841 717.153 69.9906C720.161 72.5856 723.995 75 728.157 75C732.288 75 736.449 72.616 739.789 70.0392C743.18 67.4224 745.979 64.4036 747.418 62.7507L748.251 61.7944L747.389 60.8641C745.62 58.9542 742.483 56.5166 739.022 54.556Z" fill="#DEDCE6"/>
<path d="M661.468 51.2727C667.733 51.2727 671.655 55.8176 671.655 63.0453C671.655 70.273 667.733 74.8021 661.468 74.8021C655.203 74.8021 651.281 70.273 651.281 63.0453C651.281 55.8176 655.203 51.2727 661.468 51.2727ZM661.468 53.8923C656.949 53.8923 654.115 57.4273 654.115 63.0453C654.115 68.6475 656.949 72.1825 661.468 72.1825C665.987 72.1825 668.821 68.6475 668.821 63.0453C668.821 57.4273 665.987 53.8923 661.468 53.8923Z" fill="#DEDCE6"/>
<path fill-rule="evenodd" clip-rule="evenodd" d="M677.588 61.8801C676.096 63.5139 673.843 65.7956 671.24 67.8039C668.007 70.299 664.482 72.1765 661.334 72.1765C658.218 72.1765 655.045 70.3294 652.174 67.8526C649.834 65.8344 647.864 63.5502 646.45 61.8816C648.001 60.3377 650.182 58.5082 652.605 56.978C655.548 55.1196 658.658 53.8235 661.334 53.8235C664.036 53.8235 667.5 55.1395 670.807 57.0126C673.518 58.5484 675.961 60.3662 677.588 61.8801ZM672.199 54.556C668.768 52.6122 664.781 51 661.334 51C657.861 51 654.199 52.6321 651.098 54.5906C647.964 56.5694 645.209 59.005 643.506 60.8723L642.667 61.7934L643.477 62.7409C643.64 62.9321 643.82 63.1446 644.014 63.375C645.433 65.0537 647.656 67.6841 650.33 69.9906C653.338 72.5856 657.171 75 661.334 75C665.464 75 669.626 72.616 672.965 70.0392C676.356 67.4224 679.155 64.4036 680.595 62.7507L681.428 61.7944L680.566 60.8641C678.796 58.9542 675.659 56.5166 672.199 54.556Z" fill="#DEDCE6"/>
<path d="M545.703 51.2727C551.969 51.2727 555.89 55.8176 555.89 63.0453C555.89 70.273 551.969 74.8021 545.703 74.8021C539.438 74.8021 535.516 70.273 535.516 63.0453C535.516 55.8176 539.438 51.2727 545.703 51.2727ZM545.703 53.8923C541.184 53.8923 538.35 57.4273 538.35 63.0453C538.35 68.6475 541.184 72.1825 545.703 72.1825C550.222 72.1825 553.056 68.6475 553.056 63.0453C553.056 57.4273 550.222 53.8923 545.703 53.8923Z" fill="#DEDCE6"/>
<path fill-rule="evenodd" clip-rule="evenodd" d="M561.823 61.8801C560.331 63.5139 558.078 65.7956 555.475 67.8039C552.242 70.299 548.718 72.1765 545.569 72.1765C542.454 72.1765 539.28 70.3294 536.409 67.8526C534.069 65.8344 532.099 63.5502 530.685 61.8816C532.236 60.3377 534.418 58.5082 536.841 56.978C539.784 55.1196 542.893 53.8235 545.569 53.8235C548.272 53.8235 551.736 55.1395 555.042 57.0126C557.753 58.5484 560.197 60.3662 561.823 61.8801ZM556.434 54.556C553.003 52.6122 549.016 51 545.569 51C542.096 51 538.435 52.6321 535.333 54.5906C532.2 56.5694 529.444 59.005 527.742 60.8723L526.902 61.7934L527.712 62.7409C527.875 62.9321 528.055 63.1446 528.25 63.375C529.668 65.0537 531.891 67.6841 534.565 69.9906C537.573 72.5856 541.406 75 545.569 75C549.699 75 553.861 72.616 557.2 70.0392C560.591 67.4224 563.39 64.4036 564.83 62.7507L565.663 61.7944L564.801 60.8641C563.031 58.9542 559.894 56.5166 556.434 54.556Z" fill="#DEDCE6"/>
<path d="M697.999 71.0577L696.329 69.3879L702.64 63.1073H684.549V60.7482H702.64L696.329 54.4676L697.999 52.7979L707.129 61.9278L697.999 71.0577Z" fill="#DEDCE6"/>
<path d="M631.175 71.0577L629.506 69.3879L635.817 63.1073H617.726V60.7482H635.817L629.506 54.4676L631.175 52.7979L640.305 61.9278L631.175 71.0577Z" fill="#DEDCE6"/>
<path d="M515.411 71.0577L513.741 69.3879L520.052 63.1073H501.961V60.7482H520.052L513.741 54.4676L515.411 52.7979L524.541 61.9278L515.411 71.0577Z" fill="#DEDCE6"/>
<path d="M477.311 51.2727C483.577 51.2727 487.498 55.8176 487.498 63.0453C487.498 70.273 483.577 74.8021 477.311 74.8021C471.046 74.8021 467.124 70.273 467.124 63.0453C467.124 55.8176 471.046 51.2727 477.311 51.2727ZM477.311 53.8923C472.792 53.8923 469.958 57.4273 469.958 63.0453C469.958 68.6475 472.792 72.1825 477.311 72.1825C481.83 72.1825 484.664 68.6475 484.664 63.0453C484.664 57.4273 481.83 53.8923 477.311 53.8923Z" fill="#DEDCE6"/>
<path fill-rule="evenodd" clip-rule="evenodd" d="M493.431 61.8801C491.939 63.5139 489.686 65.7956 487.083 67.8039C483.85 70.299 480.325 72.1765 477.177 72.1765C474.061 72.1765 470.888 70.3294 468.017 67.8526C465.677 65.8344 463.707 63.5502 462.293 61.8816C463.844 60.3377 466.025 58.5082 468.449 56.978C471.391 55.1196 474.501 53.8235 477.177 53.8235C479.88 53.8235 483.344 55.1395 486.65 57.0126C489.361 58.5484 491.804 60.3662 493.431 61.8801ZM488.042 54.556C484.611 52.6122 480.624 51 477.177 51C473.704 51 470.043 52.6321 466.941 54.5906C463.807 56.5694 461.052 59.005 459.35 60.8723L458.51 61.7934L459.32 62.7409C459.483 62.9321 459.663 63.1446 459.857 63.375C461.276 65.0537 463.499 67.6841 466.173 69.9906C469.181 72.5856 473.014 75 477.177 75C481.307 75 485.469 72.616 488.808 70.0392C492.199 67.4224 494.998 64.4036 496.438 62.7507L497.271 61.7944L496.409 60.8641C494.639 58.9542 491.502 56.5166 488.042 54.556Z" fill="#DEDCE6"/>
<path d="M410.488 51.2727C416.753 51.2727 420.675 55.8176 420.675 63.0453C420.675 70.273 416.753 74.8021 410.488 74.8021C404.222 74.8021 400.301 70.273 400.301 63.0453C400.301 55.8176 404.222 51.2727 410.488 51.2727ZM410.488 53.8923C405.969 53.8923 403.135 57.4273 403.135 63.0453C403.135 68.6475 405.969 72.1825 410.488 72.1825C415.007 72.1825 417.841 68.6475 417.841 63.0453C417.841 57.4273 415.007 53.8923 410.488 53.8923Z" fill="#DEDCE6"/>
<path fill-rule="evenodd" clip-rule="evenodd" d="M426.607 61.8801C425.116 63.5139 422.862 65.7956 420.26 67.8039C417.026 70.299 413.502 72.1765 410.354 72.1765C407.238 72.1765 404.065 70.3294 401.193 67.8526C398.854 65.8344 396.883 63.5502 395.469 61.8816C397.02 60.3377 399.202 58.5082 401.625 56.978C404.568 55.1196 407.678 53.8235 410.354 53.8235C413.056 53.8235 416.52 55.1395 419.826 57.0126C422.537 58.5484 424.981 60.3662 426.607 61.8801ZM421.218 54.556C417.787 52.6122 413.8 51 410.354 51C406.88 51 403.219 52.6321 400.117 54.5906C396.984 56.5694 394.229 59.005 392.526 60.8723L391.686 61.7934L392.496 62.7409C392.66 62.9321 392.839 63.1446 393.034 63.375C394.452 65.0537 396.675 67.6841 399.349 69.9906C402.357 72.5856 406.191 75 410.354 75C414.484 75 418.645 72.616 421.985 70.0392C425.376 67.4224 428.175 64.4036 429.614 62.7507L430.447 61.7944L429.585 60.8641C427.816 58.9542 424.679 56.5166 421.218 54.556Z" fill="#DEDCE6"/>
<path d="M294.723 51.2727C300.988 51.2727 304.91 55.8176 304.91 63.0453C304.91 70.273 300.988 74.8021 294.723 74.8021C288.458 74.8021 284.536 70.273 284.536 63.0453C284.536 55.8176 288.458 51.2727 294.723 51.2727ZM294.723 53.8923C290.204 53.8923 287.37 57.4273 287.37 63.0453C287.37 68.6475 290.204 72.1825 294.723 72.1825C299.242 72.1825 302.076 68.6475 302.076 63.0453C302.076 57.4273 299.242 53.8923 294.723 53.8923Z" fill="#DEDCE6"/>
<path fill-rule="evenodd" clip-rule="evenodd" d="M310.843 61.8801C309.351 63.5139 307.098 65.7956 304.495 67.8039C301.262 70.299 297.737 72.1765 294.589 72.1765C291.473 72.1765 288.3 70.3294 285.429 67.8526C283.089 65.8344 281.118 63.5502 279.705 61.8816C281.256 60.3377 283.437 58.5082 285.86 56.978C288.803 55.1196 291.913 53.8235 294.589 53.8235C297.291 53.8235 300.755 55.1395 304.062 57.0126C306.772 58.5484 309.216 60.3662 310.843 61.8801ZM305.453 54.556C302.022 52.6122 298.035 51 294.589 51C291.116 51 287.454 52.6321 284.353 54.5906C281.219 56.5694 278.464 59.005 276.761 60.8723L275.921 61.7934L276.731 62.7409C276.895 62.9321 277.074 63.1446 277.269 63.375C278.688 65.0537 280.91 67.6841 283.584 69.9906C286.593 72.5856 290.426 75 294.589 75C298.719 75 302.881 72.616 306.22 70.0392C309.611 67.4224 312.41 64.4036 313.849 62.7507L314.682 61.7944L313.821 60.8641C312.051 58.9542 308.914 56.5166 305.453 54.556Z" fill="#DEDCE6"/>
<path d="M447.018 71.0577L445.349 69.3879L451.66 63.1073H433.569V60.7482H451.66L445.349 54.4676L447.018 52.7979L456.148 61.9278L447.018 71.0577Z" fill="#DEDCE6"/>
<path d="M380.195 71.0577L378.525 69.3879L384.836 63.1073H366.745V60.7482H384.836L378.525 54.4676L380.195 52.7979L389.325 61.9278L380.195 71.0577Z" fill="#DEDCE6"/>
<path d="M264.43 71.0577L262.76 69.3879L269.072 63.1073H250.98V60.7482H269.072L262.76 54.4676L264.43 52.7979L273.56 61.9278L264.43 71.0577Z" fill="#DEDCE6"/>
<path d="M226.331 51.2727C232.596 51.2727 236.518 55.8176 236.518 63.0453C236.518 70.273 232.596 74.8021 226.331 74.8021C220.065 74.8021 216.144 70.273 216.144 63.0453C216.144 55.8176 220.065 51.2727 226.331 51.2727ZM226.331 53.8923C221.812 53.8923 218.978 57.4273 218.978 63.0453C218.978 68.6475 221.812 72.1825 226.331 72.1825C230.85 72.1825 233.684 68.6475 233.684 63.0453C233.684 57.4273 230.85 53.8923 226.331 53.8923Z" fill="#DEDCE6"/>
<path fill-rule="evenodd" clip-rule="evenodd" d="M242.451 61.8801C240.959 63.5139 238.705 65.7956 236.103 67.8039C232.869 70.299 229.345 72.1765 226.197 72.1765C223.081 72.1765 219.908 70.3294 217.036 67.8526C214.697 65.8344 212.726 63.5502 211.313 61.8816C212.863 60.3377 215.045 58.5082 217.468 56.978C220.411 55.1196 223.521 53.8235 226.197 53.8235C228.899 53.8235 232.363 55.1395 235.669 57.0126C238.38 58.5484 240.824 60.3662 242.451 61.8801ZM237.061 54.556C233.63 52.6122 229.643 51 226.197 51C222.723 51 219.062 52.6321 215.961 54.5906C212.827 56.5694 210.072 59.005 208.369 60.8723L207.529 61.7934L208.339 62.7409C208.503 62.9321 208.682 63.1446 208.877 63.375C210.296 65.0537 212.518 67.6841 215.192 69.9906C218.201 72.5856 222.034 75 226.197 75C230.327 75 234.489 72.616 237.828 70.0392C241.219 67.4224 244.018 64.4036 245.457 62.7507L246.29 61.7944L245.428 60.8641C243.659 58.9542 240.522 56.5166 237.061 54.556Z" fill="#DEDCE6"/>
<path d="M159.507 51.2727C165.773 51.2727 169.694 55.8176 169.694 63.0453C169.694 70.273 165.773 74.8021 159.507 74.8021C153.242 74.8021 149.32 70.273 149.32 63.0453C149.32 55.8176 153.242 51.2727 159.507 51.2727ZM159.507 53.8923C154.988 53.8923 152.154 57.4273 152.154 63.0453C152.154 68.6475 154.988 72.1825 159.507 72.1825C164.026 72.1825 166.86 68.6475 166.86 63.0453C166.86 57.4273 164.026 53.8923 159.507 53.8923Z" fill="#DEDCE6"/>
<path fill-rule="evenodd" clip-rule="evenodd" d="M175.627 61.8801C174.135 63.5139 171.882 65.7956 169.279 67.8039C166.046 70.299 162.522 72.1765 159.373 72.1765C156.258 72.1765 153.084 70.3294 150.213 67.8526C147.873 65.8344 145.903 63.5502 144.489 61.8816C146.04 60.3377 148.222 58.5082 150.645 56.978C153.588 55.1196 156.697 53.8235 159.373 53.8235C162.076 53.8235 165.54 55.1395 168.846 57.0126C171.557 58.5484 174 60.3662 175.627 61.8801ZM170.238 54.556C166.807 52.6122 162.82 51 159.373 51C155.9 51 152.239 52.6321 149.137 54.5906C146.004 56.5694 143.248 59.005 141.546 60.8723L140.706 61.7934L141.516 62.7409C141.679 62.9321 141.859 63.1446 142.054 63.375C143.472 65.0537 145.695 67.6841 148.369 69.9906C151.377 72.5856 155.21 75 159.373 75C163.503 75 167.665 72.616 171.004 70.0392C174.395 67.4224 177.194 64.4036 178.634 62.7507L179.467 61.7944L178.605 60.8641C176.835 58.9542 173.698 56.5166 170.238 54.556Z" fill="#DEDCE6"/>
<path d="M43.7426 51.2727C50.0079 51.2727 53.9294 55.8176 53.9294 63.0453C53.9294 70.273 50.0079 74.8021 43.7426 74.8021C37.4772 74.8021 33.5557 70.273 33.5557 63.0453C33.5557 55.8176 37.4772 51.2727 43.7426 51.2727ZM43.7426 53.8923C39.2236 53.8923 36.3896 57.4273 36.3896 63.0453C36.3896 68.6475 39.2236 72.1825 43.7426 72.1825C48.2616 72.1825 51.0955 68.6475 51.0955 63.0453C51.0955 57.4273 48.2616 53.8923 43.7426 53.8923Z" fill="#DEDCE6"/>
<path fill-rule="evenodd" clip-rule="evenodd" d="M59.8623 61.8801C58.3707 63.5139 56.1171 65.7956 53.5145 67.8039C50.2812 70.299 46.7567 72.1765 43.6084 72.1765C40.4928 72.1765 37.3195 70.3294 34.4482 67.8526C32.1085 65.8344 30.138 63.5502 28.7243 61.8816C30.2752 60.3377 32.4567 58.5082 34.8798 56.978C37.8228 55.1196 40.9327 53.8235 43.6084 53.8235C46.3108 53.8235 49.7748 55.1395 53.0811 57.0126C55.7919 58.5484 58.2357 60.3662 59.8623 61.8801ZM54.4729 54.556C51.042 52.6122 47.055 51 43.6084 51C40.1351 51 36.4738 52.6321 33.3723 54.5906C30.2388 56.5694 27.4834 59.005 25.7809 60.8723L24.9411 61.7934L25.751 62.7409C25.9145 62.9321 26.094 63.1446 26.2887 63.375C27.7073 65.0537 29.9301 67.6841 32.6039 69.9906C35.6123 72.5856 39.4456 75 43.6084 75C47.7385 75 51.9003 72.616 55.2395 70.0392C58.6306 67.4224 61.4295 64.4036 62.8691 62.7507L63.702 61.7944L62.8401 60.8641C61.0707 58.9542 57.9336 56.5166 54.4729 54.556Z" fill="#DEDCE6"/>
<path d="M196.038 71.0577L194.368 69.3879L200.68 63.1073H182.588V60.7482H200.68L194.368 54.4676L196.038 52.7979L205.168 61.9278L196.038 71.0577Z" fill="#DEDCE6"/>
<path d="M129.214 71.0577L127.545 69.3879L133.856 63.1073H115.765V60.7482H133.856L127.545 54.4676L129.214 52.7979L138.344 61.9278L129.214 71.0577Z" fill="#DEDCE6"/>
<path d="M13.4497 71.0577L11.78 69.3879L18.0913 63.1073H-7.62939e-06V60.7482H18.0913L11.78 54.4676L13.4497 52.7979L22.5797 61.9278L13.4497 71.0577Z" fill="#DEDCE6"/>
<path d="M19.9595 102.273C13.6942 102.273 9.77258 106.818 9.77258 114.045C9.77258 121.273 13.6942 125.802 19.9595 125.802C26.2248 125.802 30.1464 121.273 30.1464 114.045C30.1464 106.818 26.2248 102.273 19.9595 102.273ZM19.9595 104.892C24.4785 104.892 27.3124 108.427 27.3124 114.045C27.3124 119.648 24.4785 123.182 19.9595 123.182C15.4405 123.182 12.6065 119.648 12.6065 114.045C12.6065 108.427 15.4405 104.892 19.9595 104.892Z" fill="#DEDCE6"/>
<path fill-rule="evenodd" clip-rule="evenodd" d="M3.83977 112.88C5.33135 114.514 7.58492 116.796 10.1875 118.804C13.4208 121.299 16.9453 123.176 20.0936 123.176C23.2093 123.176 26.3825 121.329 29.2538 118.853C31.5935 116.834 33.5641 114.55 34.9778 112.882C33.4268 111.338 31.2453 109.508 28.8222 107.978C25.8793 106.12 22.7694 104.824 20.0936 104.824C17.3912 104.824 13.9272 106.139 10.6209 108.013C7.9101 109.548 5.4663 111.366 3.83977 112.88ZM9.22908 105.556C12.6601 103.612 16.647 102 20.0936 102C23.5669 102 27.2282 103.632 30.3298 105.591C33.4633 107.569 36.2186 110.005 37.9212 111.872L38.761 112.793L37.951 113.741C37.7876 113.932 37.608 114.145 37.4133 114.375C35.9947 116.054 33.772 118.684 31.0981 120.991C28.0897 123.586 24.2564 126 20.0936 126C15.9635 126 11.8017 123.616 8.46251 121.039C5.07139 118.422 2.27249 115.404 0.832955 113.751L0 112.794L0.861925 111.864C2.63137 109.954 5.76841 107.517 9.22908 105.556Z" fill="#DEDCE6"/>
<path d="M86.783 102.273C80.5176 102.273 76.5961 106.818 76.5961 114.045C76.5961 121.273 80.5176 125.802 86.783 125.802C93.0483 125.802 96.9698 121.273 96.9698 114.045C96.9698 106.818 93.0483 102.273 86.783 102.273ZM86.783 104.892C91.302 104.892 94.1359 108.427 94.1359 114.045C94.1359 119.648 91.302 123.182 86.783 123.182C82.264 123.182 79.43 119.648 79.43 114.045C79.43 108.427 82.264 104.892 86.783 104.892Z" fill="#DEDCE6"/>
<path fill-rule="evenodd" clip-rule="evenodd" d="M70.6633 112.88C72.1549 114.514 74.4085 116.796 77.011 118.804C80.2444 121.299 83.7688 123.176 86.9172 123.176C90.0328 123.176 93.2061 121.329 96.0774 118.853C98.417 116.834 100.388 114.55 101.801 112.882C100.25 111.338 98.0688 109.508 95.6457 107.978C92.7028 106.12 89.5929 104.824 86.9172 104.824C84.2148 104.824 80.7507 106.139 77.4445 108.013C74.7336 109.548 72.2898 111.366 70.6633 112.88ZM76.0526 105.556C79.4836 103.612 83.4705 102 86.9172 102C90.3905 102 94.0518 103.632 97.1533 105.591C100.287 107.569 103.042 110.005 104.745 111.872L105.585 112.793L104.775 113.741C104.611 113.932 104.432 114.145 104.237 114.375C102.818 116.054 100.596 118.684 97.9216 120.991C94.9132 123.586 91.0799 126 86.9172 126C82.7871 126 78.6253 123.616 75.2861 121.039C71.8949 118.422 69.096 115.404 67.6565 113.751L66.8235 112.794L67.6855 111.864C69.4549 109.954 72.592 107.517 76.0526 105.556Z" fill="#DEDCE6"/>
<path d="M202.548 102.273C196.282 102.273 192.361 106.818 192.361 114.045C192.361 121.273 196.282 125.802 202.548 125.802C208.813 125.802 212.735 121.273 212.735 114.045C212.735 106.818 208.813 102.273 202.548 102.273ZM202.548 104.892C207.067 104.892 209.901 108.427 209.901 114.045C209.901 119.648 207.067 123.182 202.548 123.182C198.029 123.182 195.195 119.648 195.195 114.045C195.195 108.427 198.029 104.892 202.548 104.892Z" fill="#DEDCE6"/>
<path fill-rule="evenodd" clip-rule="evenodd" d="M186.428 112.88C187.92 114.514 190.173 116.796 192.776 118.804C196.009 121.299 199.534 123.176 202.682 123.176C205.798 123.176 208.971 121.329 211.842 118.853C214.182 116.834 216.152 114.55 217.566 112.882C216.015 111.338 213.834 109.508 211.41 107.978C208.468 106.12 205.358 104.824 202.682 104.824C199.98 104.824 196.515 106.139 193.209 108.013C190.498 109.548 188.055 111.366 186.428 112.88ZM191.817 105.556C195.248 103.612 199.235 102 202.682 102C206.155 102 209.817 103.632 212.918 105.591C216.052 107.569 218.807 110.005 220.509 111.872L221.349 112.793L220.539 113.741C220.376 113.932 220.196 114.145 220.002 114.375C218.583 116.054 216.36 118.684 213.686 120.991C210.678 123.586 206.845 126 202.682 126C198.552 126 194.39 123.616 191.051 121.039C187.66 118.422 184.861 115.404 183.421 113.751L182.588 112.794L183.45 111.864C185.22 109.954 188.357 107.517 191.817 105.556Z" fill="#DEDCE6"/>
<path d="M50.2523 122.058L51.922 120.388L45.6107 114.107H63.702V111.748H45.6107L51.922 105.468L50.2523 103.798L41.1224 112.928L50.2523 122.058Z" fill="#DEDCE6"/>
<path d="M117.076 122.058L118.746 120.388L112.434 114.107H130.526V111.748H112.434L118.746 105.468L117.076 103.798L107.946 112.928L117.076 122.058Z" fill="#DEDCE6"/>
<path d="M232.841 122.058L234.51 120.388L228.199 114.107H246.29V111.748H228.199L234.51 105.468L232.841 103.798L223.711 112.928L232.841 122.058Z" fill="#DEDCE6"/>
<path d="M270.94 102.273C264.675 102.273 260.753 106.818 260.753 114.045C260.753 121.273 264.675 125.802 270.94 125.802C277.205 125.802 281.127 121.273 281.127 114.045C281.127 106.818 277.205 102.273 270.94 102.273ZM270.94 104.892C275.459 104.892 278.293 108.427 278.293 114.045C278.293 119.648 275.459 123.182 270.94 123.182C266.421 123.182 263.587 119.648 263.587 114.045C263.587 108.427 266.421 104.892 270.94 104.892Z" fill="#DEDCE6"/>
<path fill-rule="evenodd" clip-rule="evenodd" d="M254.82 112.88C256.312 114.514 258.565 116.796 261.168 118.804C264.401 121.299 267.926 123.176 271.074 123.176C274.19 123.176 277.363 121.329 280.234 118.853C282.574 116.834 284.544 114.55 285.958 112.882C284.407 111.338 282.226 109.508 279.803 107.978C276.86 106.12 273.75 104.824 271.074 104.824C268.372 104.824 264.908 106.139 261.601 108.013C258.891 109.548 256.447 111.366 254.82 112.88ZM260.209 105.556C263.64 103.612 267.627 102 271.074 102C274.547 102 278.209 103.632 281.31 105.591C284.444 107.569 287.199 110.005 288.902 111.872L289.741 112.793L288.931 113.741C288.768 113.932 288.588 114.145 288.394 114.375C286.975 116.054 284.752 118.684 282.079 120.991C279.07 123.586 275.237 126 271.074 126C266.944 126 262.782 123.616 259.443 121.039C256.052 118.422 253.253 115.404 251.813 113.751L250.98 112.794L251.842 111.864C253.612 109.954 256.749 107.517 260.209 105.556Z" fill="#DEDCE6"/>
<path d="M337.763 102.273C331.498 102.273 327.576 106.818 327.576 114.045C327.576 121.273 331.498 125.802 337.763 125.802C344.029 125.802 347.95 121.273 347.95 114.045C347.95 106.818 344.029 102.273 337.763 102.273ZM337.763 104.892C342.282 104.892 345.116 108.427 345.116 114.045C345.116 119.648 342.282 123.182 337.763 123.182C333.244 123.182 330.41 119.648 330.41 114.045C330.41 108.427 333.244 104.892 337.763 104.892Z" fill="#DEDCE6"/>
<path fill-rule="evenodd" clip-rule="evenodd" d="M321.644 112.88C323.135 114.514 325.389 116.796 327.991 118.804C331.225 121.299 334.749 123.176 337.898 123.176C341.013 123.176 344.186 121.329 347.058 118.853C349.397 116.834 351.368 114.55 352.782 112.882C351.231 111.338 349.049 109.508 346.626 107.978C343.683 106.12 340.573 104.824 337.898 104.824C335.195 104.824 331.731 106.139 328.425 108.013C325.714 109.548 323.27 111.366 321.644 112.88ZM327.033 105.556C330.464 103.612 334.451 102 337.898 102C341.371 102 345.032 103.632 348.134 105.591C351.267 107.569 354.023 110.005 355.725 111.872L356.565 112.793L355.755 113.741C355.592 113.932 355.412 114.145 355.217 114.375C353.799 116.054 351.576 118.684 348.902 120.991C345.894 123.586 342.06 126 337.898 126C333.767 126 329.606 123.616 326.266 121.039C322.875 118.422 320.076 115.404 318.637 113.751L317.804 112.794L318.666 111.864C320.435 109.954 323.572 107.517 327.033 105.556Z" fill="#DEDCE6"/>
<path d="M453.528 102.273C447.263 102.273 443.341 106.818 443.341 114.045C443.341 121.273 447.263 125.802 453.528 125.802C459.793 125.802 463.715 121.273 463.715 114.045C463.715 106.818 459.793 102.273 453.528 102.273ZM453.528 104.892C458.047 104.892 460.881 108.427 460.881 114.045C460.881 119.648 458.047 123.182 453.528 123.182C449.009 123.182 446.175 119.648 446.175 114.045C446.175 108.427 449.009 104.892 453.528 104.892Z" fill="#DEDCE6"/>
<path fill-rule="evenodd" clip-rule="evenodd" d="M437.408 112.88C438.9 114.514 441.154 116.796 443.756 118.804C446.989 121.299 450.514 123.176 453.662 123.176C456.778 123.176 459.951 121.329 462.823 118.853C465.162 116.834 467.133 114.55 468.546 112.882C466.995 111.338 464.814 109.508 462.391 107.978C459.448 106.12 456.338 104.824 453.662 104.824C450.96 104.824 447.496 106.139 444.19 108.013C441.479 109.548 439.035 111.366 437.408 112.88ZM442.798 105.556C446.229 103.612 450.216 102 453.662 102C457.136 102 460.797 103.632 463.898 105.591C467.032 107.569 469.787 110.005 471.49 111.872L472.33 112.793L471.52 113.741C471.356 113.932 471.177 114.145 470.982 114.375C469.563 116.054 467.341 118.684 464.667 120.991C461.658 123.586 457.825 126 453.662 126C449.532 126 445.37 123.616 442.031 121.039C438.64 118.422 435.841 115.404 434.402 113.751L433.569 112.794L434.431 111.864C436.2 109.954 439.337 107.517 442.798 105.556Z" fill="#DEDCE6"/>
<path d="M301.233 122.058L302.902 120.388L296.591 114.107H314.682V111.748H296.591L302.902 105.468L301.233 103.798L292.103 112.928L301.233 122.058Z" fill="#DEDCE6"/>
<path d="M368.056 122.058L369.726 120.388L363.415 114.107H381.506V111.748H363.415L369.726 105.468L368.056 103.798L358.926 112.928L368.056 122.058Z" fill="#DEDCE6"/>
<path d="M483.821 122.058L485.491 120.388L479.179 114.107H497.271V111.748H479.179L485.491 105.468L483.821 103.798L474.691 112.928L483.821 122.058Z" fill="#DEDCE6"/>
<path d="M521.92 102.273C515.655 102.273 511.733 106.818 511.733 114.045C511.733 121.273 515.655 125.802 521.92 125.802C528.186 125.802 532.107 121.273 532.107 114.045C532.107 106.818 528.186 102.273 521.92 102.273ZM521.92 104.892C526.439 104.892 529.273 108.427 529.273 114.045C529.273 119.648 526.439 123.182 521.92 123.182C517.401 123.182 514.567 119.648 514.567 114.045C514.567 108.427 517.401 104.892 521.92 104.892Z" fill="#DEDCE6"/>
<path fill-rule="evenodd" clip-rule="evenodd" d="M505.801 112.88C507.292 114.514 509.546 116.796 512.148 118.804C515.382 121.299 518.906 123.176 522.054 123.176C525.17 123.176 528.343 121.329 531.215 118.853C533.554 116.834 535.525 114.55 536.939 112.882C535.388 111.338 533.206 109.508 530.783 107.978C527.84 106.12 524.73 104.824 522.054 104.824C519.352 104.824 515.888 106.139 512.582 108.013C509.871 109.548 507.427 111.366 505.801 112.88ZM511.19 105.556C514.621 103.612 518.608 102 522.054 102C525.528 102 529.189 103.632 532.291 105.591C535.424 107.569 538.179 110.005 539.882 111.872L540.722 112.793L539.912 113.741C539.748 113.932 539.569 114.145 539.374 114.375C537.956 116.054 535.733 118.684 533.059 120.991C530.051 123.586 526.217 126 522.054 126C517.924 126 513.763 123.616 510.423 121.039C507.032 118.422 504.233 115.404 502.794 113.751L501.961 112.794L502.823 111.864C504.592 109.954 507.729 107.517 511.19 105.556Z" fill="#DEDCE6"/>
<path d="M619.959 102.273C613.694 102.273 609.773 106.818 609.773 114.045C609.773 121.273 613.694 125.802 619.959 125.802C626.225 125.802 630.146 121.273 630.146 114.045C630.146 106.818 626.225 102.273 619.959 102.273ZM619.959 104.892C624.478 104.892 627.312 108.427 627.312 114.045C627.312 119.648 624.478 123.182 619.959 123.182C615.44 123.182 612.607 119.648 612.607 114.045C612.607 108.427 615.44 104.892 619.959 104.892Z" fill="#DEDCE6"/>
<path fill-rule="evenodd" clip-rule="evenodd" d="M603.84 112.88C605.331 114.514 607.585 116.796 610.187 118.804C613.421 121.299 616.945 123.176 620.094 123.176C623.209 123.176 626.383 121.329 629.254 118.853C631.593 116.834 633.564 114.55 634.978 112.882C633.427 111.338 631.245 109.508 628.822 107.978C625.879 106.12 622.769 104.824 620.094 104.824C617.391 104.824 613.927 106.139 610.621 108.013C607.91 109.548 605.466 111.366 603.84 112.88ZM609.229 105.556C612.66 103.612 616.647 102 620.094 102C623.567 102 627.228 103.632 630.33 105.591C633.463 107.569 636.219 110.005 637.921 111.872L638.761 112.793L637.951 113.741C637.788 113.932 637.608 114.145 637.413 114.375C635.995 116.054 633.772 118.684 631.098 120.991C628.09 123.586 624.256 126 620.094 126C615.964 126 611.802 123.616 608.463 121.039C605.071 118.422 602.272 115.404 600.833 113.751L600 112.794L600.862 111.864C602.631 109.954 605.768 107.517 609.229 105.556Z" fill="#DEDCE6"/>
<path d="M552.213 122.058L553.883 120.388L547.572 114.107H565.663V111.748H547.572L553.883 105.468L552.213 103.798L543.083 112.928L552.213 122.058Z" fill="#DEDCE6"/>
<path d="M650.252 122.058L651.922 120.388L645.611 114.107H663.702V111.748H645.611L651.922 105.468L650.252 103.798L641.122 112.928L650.252 122.058Z" fill="#DEDCE6"/>
<path d="M691.41 102.273C685.145 102.273 681.224 106.818 681.224 114.045C681.224 121.273 685.145 125.802 691.41 125.802C697.676 125.802 701.597 121.273 701.597 114.045C701.597 106.818 697.676 102.273 691.41 102.273ZM691.41 104.892C695.929 104.892 698.763 108.427 698.763 114.045C698.763 119.648 695.929 123.182 691.41 123.182C686.891 123.182 684.057 119.648 684.057 114.045C684.057 108.427 686.891 104.892 691.41 104.892Z" fill="#DEDCE6"/>
<path fill-rule="evenodd" clip-rule="evenodd" d="M675.291 112.88C676.782 114.514 679.036 116.796 681.638 118.804C684.872 121.299 688.396 123.176 691.545 123.176C694.66 123.176 697.833 121.329 700.705 118.853C703.044 116.834 705.015 114.55 706.429 112.882C704.878 111.338 702.696 109.508 700.273 107.978C697.33 106.12 694.22 104.824 691.545 104.824C688.842 104.824 685.378 106.139 682.072 108.013C679.361 109.548 676.917 111.366 675.291 112.88ZM680.68 105.556C684.111 103.612 688.098 102 691.545 102C695.018 102 698.679 103.632 701.781 105.591C704.914 107.569 707.67 110.005 709.372 111.872L710.212 112.793L709.402 113.741C709.238 113.932 709.059 114.145 708.864 114.375C707.446 116.054 705.223 118.684 702.549 120.991C699.541 123.586 695.707 126 691.545 126C687.414 126 683.253 123.616 679.913 121.039C676.522 118.422 673.723 115.404 672.284 113.751L671.451 112.794L672.313 111.864C674.082 109.954 677.219 107.517 680.68 105.556Z" fill="#DEDCE6"/>
<path d="M721.703 122.058L723.373 120.388L717.062 114.107H735.153V111.748H717.062L723.373 105.468L721.703 103.798L712.573 112.928L721.703 122.058Z" fill="#DEDCE6"/>
</svg>
