<svg width="200" height="198" viewBox="0 0 200 198" fill="none" xmlns="http://www.w3.org/2000/svg">
<rect x="7.41931" y="2.76068" width="156.439" height="87.9654" rx="43.9827" fill="#32D251"/>
<rect x="36.6732" y="2.76068" width="127.328" height="59.1077" rx="29.5539" fill="#FFC900"/>
<path d="M93.1591 132.923C92.2884 129.073 95.7017 125.617 99.5626 126.44C101.617 126.878 103.233 128.466 103.706 130.513L109.202 154.3C109.804 156.907 109.214 159.646 107.594 161.774L92.9499 181.006C91.6839 182.669 89.5722 183.452 87.5284 183.016C83.6656 182.193 81.9644 177.637 84.3423 174.484L95.8433 159.232C97.4364 157.119 98.0185 154.413 97.435 151.832L93.1591 132.923Z" fill="#0E0E0E"/>
<path d="M67.8223 125.78C69.9187 122.435 74.7761 122.389 76.9348 125.694C78.0837 127.453 78.1101 129.719 77.0026 131.504L64.1332 152.251C62.723 154.524 60.3741 156.052 57.7242 156.419L33.7809 159.738C31.711 160.025 29.6613 159.092 28.5186 157.342C26.3588 154.035 28.3635 149.605 32.2731 149.044L51.1817 146.333C53.8008 145.957 56.1217 144.448 57.5268 142.206L67.8223 125.78Z" fill="#0E0E0E"/>
<rect x="76.7188" y="177.765" width="22.023" height="7.341" rx="3.6705" transform="rotate(41.1902 76.7188 177.765)" fill="#32D251"/>
<rect x="84.2205" y="169.193" width="17.4665" height="18.7322" rx="4.05021" transform="rotate(41.1902 84.2205 169.193)" fill="#32D251"/>
<rect x="28.1162" y="145.172" width="22.023" height="7.341" rx="3.6705" transform="rotate(85.0628 28.1162 145.172)" fill="#32D251"/>
<rect x="39.4648" y="144.192" width="17.4665" height="18.7322" rx="4.05021" transform="rotate(85.0628 39.4648 144.192)" fill="#32D251"/>
<rect x="50.9565" y="90.0495" width="59.9909" height="11.3951" rx="5.69755" fill="#0E0E0E"/>
<path d="M17.6382 47.3611C18.2618 48.059 17.9384 49.169 17.0375 49.4227L9.0973 51.6586C8.43144 51.8461 7.73838 51.4643 7.5411 50.8013L2.57868 34.124C2.19312 32.8282 3.83493 31.9116 4.73566 32.9197L17.6382 47.3611Z" fill="#32D251"/>
<path d="M87.8999 144.814C85.0838 147.937 80.1917 147.963 77.3424 144.87L48.3308 113.372C44.1277 108.809 47.3417 101.425 53.5457 101.392L111.23 101.084C117.434 101.051 120.727 108.4 116.573 113.008L87.8999 144.814Z" fill="#09B060"/>
<path d="M104.054 30.1328C96.2656 1.22382 71.5844 5.03961 59.2499 10.9664C58.7135 11.2241 58.4554 11.8478 58.6179 12.4202C67.2886 42.9606 91.5512 38.1755 103.483 31.5321C103.972 31.2596 104.2 30.6738 104.054 30.1328Z" fill="white"/>
<circle cx="81.4005" cy="21.5349" r="13.6256" transform="rotate(-14.9 81.4005 21.5349)" fill="black"/>
<mask id="mask0_176_5917" style="mask-type:alpha" maskUnits="userSpaceOnUse" x="36" y="2" width="129" height="60">
<rect x="36.6729" y="2.76068" width="127.328" height="59.1077" rx="29.5539" fill="#FFC900"/>
</mask>
<g mask="url(#mask0_176_5917)">
<path d="M119.277 30.4047C127.066 1.49591 151.747 5.31228 164.082 11.2393C164.618 11.497 164.876 12.1208 164.714 12.6932C156.042 43.2334 131.78 38.4477 119.848 31.8041C119.358 31.5315 119.131 30.9457 119.277 30.4047Z" fill="white"/>
<circle cx="141.93" cy="21.8074" r="13.6256" transform="rotate(14.9013 141.93 21.8074)" fill="black"/>
</g>
<circle r="9.90937" transform="matrix(0.500062 -0.86599 -0.86599 -0.500062 15.2619 108.947)" fill="#32D251"/>
<path d="M28.7987 105.32C31.0746 106.635 32.7352 108.799 33.4153 111.338C34.0953 113.876 33.739 116.581 32.4248 118.857C31.1106 121.133 28.946 122.794 26.4074 123.474C23.8688 124.154 21.164 123.797 18.8881 122.483L23.8434 113.902L28.7987 105.32Z" fill="#0E0E0E"/>
<circle r="9.90937" transform="matrix(0.854654 0.519198 0.519198 -0.854654 186.386 55.6102)" fill="#32D251"/>
<path d="M189.71 69.2242C188.346 71.4703 186.145 73.0824 183.592 73.7058C181.038 74.3292 178.342 73.9128 176.096 72.5483C173.85 71.1838 172.238 68.9829 171.615 66.4298C170.991 63.8767 171.407 61.1805 172.772 58.9343L181.241 64.0792L189.71 69.2242Z" fill="#0E0E0E"/>
</svg>
