<svg width="422" height="624" viewBox="0 0 422 624" fill="none" xmlns="http://www.w3.org/2000/svg">
<path d="M213 379L169.699 304H256.301L213 379Z" fill="#40BF45"/>
<rect x="125.973" y="408.778" width="168.998" height="95.027" rx="47.5135" fill="#FF5E03"/>
<rect x="141.697" y="415.341" width="137.55" height="63.8526" rx="31.9263" fill="#FFC900"/>
<rect x="191.603" y="549.199" width="12.8526" height="62.4854" rx="6.42628" fill="#1C1B29"/>
<rect x="188.595" y="603.207" width="18.8687" height="20.236" rx="4.37534" fill="#FF5E03"/>
<rect x="183.673" y="615.513" width="23.7909" height="7.93031" rx="3.96515" fill="#FF5E03"/>
<rect x="212.796" y="615.513" width="23.7909" height="7.93031" rx="3.96515" fill="#FF5E03"/>
<rect x="215.804" y="549.199" width="12.8526" height="62.4854" rx="6.42628" fill="#0E0E0E"/>
<rect x="172.344" y="515.466" width="75.5709" height="44.4535" rx="14.0769" fill="#FF5E03"/>
<rect x="212.796" y="603.207" width="18.8687" height="20.236" rx="4.37534" fill="#FF5E03"/>
<rect x="178.067" y="503.805" width="64.8098" height="12.3057" rx="6.15283" fill="#0E0E0E"/>
<path d="M137.012 456.959C137.686 457.713 137.337 458.912 136.363 459.186L127.786 461.601C127.067 461.804 126.318 461.391 126.105 460.675L120.744 442.659C120.327 441.259 122.101 440.269 123.074 441.358L137.012 456.959Z" fill="#FF5E03"/>
<path d="M283.988 456.963C283.314 457.717 283.663 458.916 284.637 459.19L293.214 461.606C293.933 461.808 294.682 461.396 294.895 460.68L300.256 442.664C300.673 441.264 298.899 440.274 297.926 441.363L283.988 456.963Z" fill="#FF5E03"/>
<path d="M203.714 457.111C195.3 425.881 168.638 430.004 155.313 436.406C154.734 436.685 154.455 437.358 154.63 437.977C163.997 470.969 190.207 465.8 203.097 458.623C203.626 458.328 203.872 457.696 203.714 457.111Z" fill="white"/>
<circle cx="179.242" cy="447.823" r="14.7194" transform="rotate(-14.9 179.242 447.823)" fill="black"/>
<path d="M216.546 457.247C224.96 426.018 251.623 430.141 264.947 436.544C265.527 436.822 265.806 437.496 265.63 438.114C256.262 471.106 230.052 465.936 217.163 458.759C216.634 458.465 216.388 457.832 216.546 457.247Z" fill="white"/>
<circle cx="241.018" cy="447.96" r="14.7194" transform="rotate(14.9013 241.018 447.96)" fill="black"/>
<circle cx="139.001" cy="512.001" r="9.90937" transform="rotate(132.521 139.001 512.001)" fill="#FF5E03"/>
<path d="M139.607 526.002C141.544 527.778 144.107 528.712 146.733 528.598C149.359 528.485 151.832 527.333 153.608 525.396C155.384 523.459 156.318 520.895 156.204 518.27C156.091 515.644 154.939 513.171 153.002 511.395L146.304 518.698L139.607 526.002Z" fill="#0E0E0E"/>
<circle cx="274.28" cy="581.222" r="9.90937" transform="rotate(-54.1759 274.28 581.222)" fill="#FF5E03"/>
<path d="M272.045 567.387C269.914 565.849 267.259 565.22 264.665 565.639C262.07 566.058 259.748 567.491 258.21 569.622C256.672 571.753 256.043 574.407 256.462 577.002C256.881 579.596 258.314 581.918 260.445 583.456L266.245 575.422L272.045 567.387Z" fill="#0E0E0E"/>
<rect x="26" y="43" width="368" height="305" fill="#40BF45"/>
<path d="M137.25 196H129.938H122.625V188.688V181.375H129.938H137.25H144.562V188.688V196H137.25ZM144.562 181.375V174.062V166.75V159.438V152.125V144.812V137.5V130.188V122.875V115.562V108.25H151.875H159.188V115.562V122.875V130.188V137.5V144.812V152.125V159.438V166.75V174.062V181.375H151.875H144.562ZM122.625 181.375H115.312H108V174.062V166.75H115.312H122.625V174.062V181.375ZM203.062 196H195.75H188.438H181.125V188.688V181.375H188.438H195.75H203.062H210.375V188.688V196H203.062ZM210.375 181.375V174.062V166.75V159.438V152.125V144.812H217.688H225V152.125V159.438V166.75V174.062V181.375H217.688H210.375ZM181.125 181.375H173.812H166.5V174.062V166.75V159.438V152.125V144.812H173.812H181.125V152.125V159.438V166.75V174.062V181.375ZM210.375 144.812H203.062H195.75H188.438H181.125V137.5V130.188H188.438H195.75H203.062H210.375V137.5V144.812ZM239.625 196H232.312V188.688V181.375V174.062V166.75V159.438V152.125V144.812V137.5V130.188H239.625H246.938V137.5V144.812V152.125V159.438V166.75V174.062V181.375V188.688V196H239.625ZM239.625 122.875H232.312V115.562V108.25H239.625H246.938V115.562V122.875H239.625ZM312.75 196H305.438V188.688V181.375V174.062V166.75V159.438V152.125V144.812H312.75H320.062V152.125V159.438V166.75V174.062V181.375V188.688V196H312.75ZM261.562 196H254.25V188.688V181.375V174.062V166.75V159.438V152.125V144.812V137.5V130.188H261.562H268.875H276.188H283.5H290.812H298.125H305.438V137.5V144.812H298.125H290.812H283.5H276.188H268.875V152.125V159.438V166.75V174.062V181.375V188.688V196H261.562ZM159.188 286H151.875H144.562H137.25H129.938H122.625V278.688V271.375H129.938H137.25H144.562H151.875V264.062V256.75V249.438V242.125V234.812V227.5V220.188H159.188H166.5V227.5V234.812V242.125V249.438V256.75V264.062V271.375V278.688V286H159.188ZM122.625 271.375H115.312H108V264.062V256.75V249.438V242.125V234.812V227.5V220.188H115.312H122.625V227.5V234.812V242.125V249.438V256.75V264.062V271.375ZM203.062 286H195.75H188.438H181.125H173.812V278.688V271.375H181.125H188.438H195.75H203.062H210.375V278.688V286H203.062ZM210.375 271.375V264.062V256.75H217.688H225V264.062V271.375H217.688H210.375ZM210.375 256.75H203.062H195.75H188.438V249.438V242.125H195.75H203.062H210.375V249.438V256.75ZM188.438 242.125H181.125H173.812V234.812V227.5H181.125H188.438V234.812V242.125ZM217.688 227.5H210.375H203.062H195.75H188.438V220.188V212.875H195.75H203.062H210.375H217.688H225V220.188V227.5H217.688Z" fill="white"/>
<path d="M262.25 279H258H253.75H249.5V274.75V270.5H253.75H258H262.25H266.5V274.75V279H262.25ZM249.5 270.5H245.25H241V266.25V262V257.75V253.5V249.25V245V240.75V236.5H245.25H249.5V240.75V245V249.25V253.5V257.75V262V266.25V270.5ZM262.25 236.5H258H253.75H249.5V232.25V228H253.75H258H262.25H266.5V232.25V236.5H262.25ZM279.25 279H275V274.75V270.5H279.25H283.5V274.75V279H279.25ZM279.25 249.25H275V245V240.75H279.25H283.5V245V249.25H279.25Z" fill="white"/>
<rect y="0.342285" width="126" height="111.243" fill="#FFC900"/>
<rect x="75" y="322" width="51" height="51" fill="white"/>
<rect x="85.7537" y="341.626" width="29.6575" height="15.2692" fill="black"/>
<rect x="105.427" y="356.896" width="4.99185" height="5.28549" fill="black"/>
<rect x="110.419" y="362.181" width="3.8173" height="4.04184" fill="black"/>
<rect x="86.9282" y="362.181" width="3.8173" height="4.04184" fill="black"/>
<rect x="112.181" y="329" width="3.8173" height="4.04184" fill="black"/>
<rect x="85.1665" y="329" width="3.8173" height="4.04184" fill="black"/>
<rect x="83.4047" y="334.579" width="2.93638" height="4.99185" fill="black"/>
<rect x="115.411" y="334.873" width="2.93638" height="4.99185" fill="black"/>
<rect x="83.4047" y="334.579" width="5.57913" height="2.64274" fill="black"/>
<rect x="112.768" y="334.579" width="5.57913" height="2.64274" fill="black"/>
<rect x="81.3491" y="349.555" width="38.7603" height="2.64274" fill="black"/>
<rect x="91.3328" y="344.563" width="4.40457" height="7.6346" fill="white"/>
<rect x="105.721" y="344.563" width="4.40457" height="7.6346" fill="white"/>
<rect x="90.7455" y="356.896" width="4.99185" height="5.28549" fill="black"/>
<rect x="104.84" y="332.23" width="2.93638" height="4.99185" fill="black"/>
<rect x="93.0946" y="332.23" width="2.93638" height="4.99185" fill="black"/>
<rect x="79" y="339.571" width="2.34911" height="9.9837" fill="black"/>
<rect x="120.109" y="339.571" width="2.34911" height="9.9837" fill="black"/>
<rect x="88.1028" y="339.571" width="24.6656" height="2.05547" fill="black"/>
<rect x="90.4519" y="337.222" width="19.9674" height="2.34911" fill="black"/>
<path d="M85.705 49.1444L83.6203 58.6503H93.293V73.4929H80.4517L78.0335 85H62.7741L65.1922 73.4929H52.4343L50.0161 85H34.8401L37.2582 73.4929H25.2508V58.6503H40.4269L42.5115 49.1444H30.7542V34.3019H45.6801L48.0149 23.295H63.191L60.8562 34.3019H73.6141L75.9489 23.295H91.2084L88.8736 34.3019H98.7964V49.1444H85.705ZM70.4455 49.1444H57.6876L55.603 58.6503H68.3609L70.4455 49.1444Z" fill="white"/>
</svg>
