<svg width="73" height="110" viewBox="0 0 73 110" fill="none" xmlns="http://www.w3.org/2000/svg">
<path d="M27.3127 110H18.2084V100.896V91.7916H27.3127H36.4169V100.896V110H27.3127ZM27.3127 82.6873H18.2084V73.5831V64.4789H27.3127H36.4169V73.5831V82.6873H27.3127ZM36.4169 64.4789V55.3747V46.2705H45.5211H54.6253V55.3747V64.4789H45.5211H36.4169ZM54.6253 46.2705V37.1663V28.062V18.9578H63.7295H72.8337V28.062V37.1663V46.2705H63.7295H54.6253ZM9.10422 37.1663H0V28.062V18.9578H9.10422H18.2084V28.062V37.1663H9.10422ZM54.6253 18.9578H45.5211H36.4169H27.3127H18.2084V9.8536V0.749378H27.3127H36.4169H45.5211H54.6253V9.8536V18.9578Z" fill="#DEDCE6"/>
</svg>
