<svg width="310" height="325" viewBox="0 0 310 325" fill="none" xmlns="http://www.w3.org/2000/svg">
<path d="M151.375 25.7852C151.11 22.4191 155.031 20.3981 157.619 22.5673L201.806 59.608C203.892 61.3566 203.523 64.6657 201.104 65.9126L161.443 86.3525C159.023 87.5994 156.114 85.9793 155.901 83.2657L151.375 25.7852Z" fill="#FF5E03"/>
<path d="M54.2485 23.8808C53.9835 20.5147 57.9049 18.4937 60.4925 20.6629L104.679 57.7036C106.765 59.4522 106.397 62.7612 103.977 64.0082L64.3163 84.4481C61.8967 85.695 58.988 84.0749 58.7743 81.3613L54.2485 23.8808Z" fill="#65B4FF"/>
<rect x="161.562" y="251.177" width="23.6233" height="77.1695" rx="11.8117" transform="rotate(-64.3534 161.562 251.177)" fill="#0E0E0E"/>
<rect x="154.359" y="186.661" width="49.6089" height="77.1695" rx="24.8045" fill="#FF5E03"/>
<rect x="221.248" y="247.375" width="68.3617" height="45.2785" rx="22.6393" fill="#FF5E03"/>
<rect x="280.499" y="268.985" width="22.9212" height="10.9317" rx="5.46586" transform="rotate(38.2592 280.499 268.985)" fill="#0E0E0E"/>
<rect x="286.217" y="249.836" width="28.1019" height="30.1382" rx="14.0509" transform="rotate(38.2592 286.217 249.836)" fill="#0E0E0E"/>
<path d="M0 76.5515C0 65.1848 9.21449 55.9703 20.5811 55.9703H185.23C218.194 55.9703 244.916 82.6924 244.916 115.656V182.544C244.916 215.508 218.194 242.23 185.23 242.23H59.6854C26.7221 242.23 0 215.508 0 182.544V76.5515Z" fill="#65B4FF"/>
<rect x="187.34" y="297.041" width="27.424" height="13.0793" rx="6.53963" transform="rotate(38.2592 187.34 297.041)" fill="#0E0E0E"/>
<rect x="194.181" y="274.13" width="33.6225" height="36.0589" rx="16.8112" transform="rotate(38.2592 194.181 274.13)" fill="#0E0E0E"/>
<rect x="116.171" y="91.413" width="114.266" height="59.0375" rx="17.1399" fill="#0E0E0E"/>
<rect x="144.737" y="137.12" width="64.7508" height="76.1775" rx="17.1399" fill="#0E0E0E"/>
<rect x="137.119" y="110.457" width="11.3196" height="22.6393" fill="#32D251"/>
<rect x="150.45" y="110.457" width="11.3196" height="22.6393" fill="#32D251"/>
<rect x="163.781" y="110.457" width="11.3196" height="22.6393" fill="#32D251"/>
<rect x="177.113" y="110.457" width="11.3196" height="22.6393" fill="#32D251"/>
<rect x="190.444" y="110.457" width="11.3196" height="22.6393" fill="#32D251"/>
<rect x="203.775" y="110.457" width="11.3196" height="22.6393" fill="#32D251"/>
<rect x="137.119" y="119.979" width="78.0819" height="3.80887" fill="#0E0E0E"/>
<rect x="75.1211" y="245.744" width="23.6233" height="77.1695" rx="11.8117" transform="rotate(-42.1833 75.1211 245.744)" fill="#0E0E0E"/>
<rect x="69.9758" y="186.661" width="49.6089" height="77.1695" rx="24.8045" fill="#FF5E03"/>
<rect x="115.254" y="270.014" width="79.2374" height="52.4819" rx="26.241" fill="#FF5E03"/>
<path d="M42.4826 119.425V87.9034H30.4186L4.73401 126.495V130.127H31.0672V141.413H42.4826V130.127H48.7092V119.425H42.4826ZM31.0672 104.183V119.425H21.4031L30.9375 104.183H31.0672ZM73.0976 97.2432C80.2322 97.2432 80.6862 103.794 80.6862 105.74C80.6862 115.599 53.1207 138.365 53.1207 138.365V141.413H94.8257V130.711H74.9785C74.9785 130.711 93.8528 118.258 93.8528 105.74C93.8528 98.9944 91.453 86.9305 73.0976 86.9305C58.5689 86.9305 53.3801 102.497 53.3801 102.497L63.5632 107.426C63.5632 107.426 67.2602 97.2432 73.0976 97.2432Z" fill="#7BBFFF"/>
</svg>
