<svg width="82" height="73" viewBox="0 0 82 73" fill="none" xmlns="http://www.w3.org/2000/svg">
<path d="M0.901179 39.7715C-0.300394 37.6903 -0.300393 35.1262 0.90118 33.045L18.0379 3.36325C19.2395 1.28206 21.4601 0 23.8632 0H58.1367C60.5399 0 62.7605 1.28206 63.9621 3.36325L81.0988 33.045C82.3004 35.1262 82.3004 37.6903 81.0988 39.7715L63.9621 69.4532C62.7605 71.5344 60.5399 72.8164 58.1367 72.8164H23.8632C21.4601 72.8164 19.2395 71.5344 18.0379 69.4532L0.901179 39.7715Z" fill="url(#paint0_linear_176_6685)"/>
<path d="M39.8102 25.08C40.3439 24.1556 41.6783 24.1556 42.212 25.08L52.987 43.7428C53.7241 45.0195 52.2237 46.4122 51.0054 45.5822L41.7918 39.3052C41.3208 38.9843 40.7014 38.9843 40.2304 39.3052L31.0169 45.5821C29.7985 46.4122 28.2981 45.0195 29.0352 43.7428L39.8102 25.08Z" fill="#EBDFFF"/>
<defs>
<linearGradient id="paint0_linear_176_6685" x1="16.5" y1="6.22106e-07" x2="64" y2="73" gradientUnits="userSpaceOnUse">
<stop stop-color="#7F5FFF"/>
<stop offset="1" stop-color="#8769FF"/>
</linearGradient>
</defs>
</svg>
